SplineFontDB: 3.2
FontName: ArundinaSerif
FullName: Arundina Serif
FamilyName: Arundina Serif
Weight: Book
Copyright: Copyright (c) 2003 by Bitstream, Inc. All Rights Reserved.\nCopyright (c) 2007 by Software Industry Promotion Agency (Public Organization). All Rights Reserved.
Version: 3.08
ItalicAngle: 0
UnderlinePosition: -153
UnderlineWidth: 102
Ascent: 1638
Descent: 410
InvalidEm: 0
LayerCount: 3
Layer: 0 0 "Back" 1
Layer: 1 1 "Fore" 0
Layer: 2 0 "Cube" 0
XUID: [1021 375 425136265 6775759]
FSType: 0
OS2Version: 2
OS2_WeightWidthSlopeOnly: 0
OS2_UseTypoMetrics: 1
CreationTime: 1131303360
ModificationTime: 1773377285
PfmFamily: 17
TTFWeight: 400
TTFWidth: 5
LineGap: 0
VLineGap: 0
Panose: 2 11 3 0 2 2 2 2 2 4
OS2TypoAscent: 2478
OS2TypoAOffset: 0
OS2TypoDescent: -1107
OS2TypoDOffset: 0
OS2TypoLinegap: 0
OS2WinAscent: 0
OS2WinAOffset: 1
OS2WinDescent: 0
OS2WinDOffset: 1
HheadAscent: 0
HheadAOffset: 1
HheadDescent: 0
HheadDOffset: 1
OS2SubXSize: 1434
OS2SubYSize: 1331
OS2SubXOff: 0
OS2SubYOff: 287
OS2SupXSize: 1434
OS2SupYSize: 1331
OS2SupXOff: 0
OS2SupYOff: 977
OS2StrikeYSize: 102
OS2StrikeYPos: 512
OS2FamilyClass: 261
OS2Vendor: 'BLWK'
Lookup: 4 0 0 "'frac' Diagonal Fractions in Latin lookup 0" { "'frac' Diagonal Fractions in Latin lookup 0 subtable"  } ['frac' ('latn' <'dflt' > ) ]
Lookup: 6 0 0 "'liga' Standard Ligatures in Latin lookup 1" { "'liga' Standard Ligatures in Latin lookup 1 subtable"  } ['liga' ('latn' <'dflt' > 'thai' <'dflt' > ) ]
Lookup: 6 0 0 "'liga' Standard Ligatures in Latin lookup 2" { "'liga' Standard Ligatures in Latin lookup 2 subtable"  } ['liga' ('latn' <'dflt' > 'thai' <'dflt' > ) ]
Lookup: 6 0 0 "'liga' Standard Ligatures in Latin lookup 3" { "'liga' Standard Ligatures in Latin lookup 3 subtable"  } ['liga' ('latn' <'dflt' > 'thai' <'dflt' > ) ]
Lookup: 6 0 0 "'liga' Standard Ligatures in Latin lookup 4" { "'liga' Standard Ligatures in Latin lookup 4 subtable"  } ['liga' ('latn' <'dflt' > 'thai' <'dflt' > ) ]

StartChar: .notdef
Encoding: 373 -1 0
Width: 1083
VWidth: 3198
Flags: W
HStem: 0 162<253 839> 1331 162<253 836>
VStem: 0 162<323 1171> 918 166<326 1163>
DStem2: 253 1331 162 1171 0.557167 -0.830401<82.1619 521.962 767.771 1205.07> 162 323 253 162 0.555842 0.831288<0 442.874 685.605 1118.5>
LayerCount: 3
Fore
SplineSet
0 1493 m 1,0,-1
 1084 1493 l 1,1,-1
 1084 0 l 1,2,-1
 0 0 l 1,3,-1
 0 1493 l 1,0,-1
839 162 m 1,4,5
 800 220 800 220 763 273 c 128,-1,6
 726 326 726 326 691 378.5 c 128,-1,7
 656 431 656 431 619.5 485.5 c 128,-1,8
 583 540 583 540 543 601 c 1,9,10
 503 543 503 543 467 491 c 128,-1,11
 431 439 431 439 397.5 386 c 128,-1,12
 364 333 364 333 329 278 c 128,-1,13
 294 223 294 223 253 162 c 1,14,-1
 839 162 l 1,4,5
836 1331 m 1,15,-1
 253 1331 l 1,16,-1
 281 1285 l 2,17,18
 314 1235 314 1235 346 1188.5 c 128,-1,19
 378 1142 378 1142 408.5 1094 c 128,-1,20
 439 1046 439 1046 471 998 c 128,-1,21
 503 950 503 950 540 895 c 1,22,-1
 836 1331 l 1,15,-1
162 323 m 1,23,24
 234 428 234 428 301.5 532.5 c 128,-1,25
 369 637 369 637 445 748 c 1,26,27
 403 809 403 809 369.5 859 c 128,-1,28
 336 909 336 909 304 958 c 128,-1,29
 272 1007 272 1007 238.5 1057 c 128,-1,30
 205 1107 205 1107 162 1171 c 1,31,-1
 162 323 l 1,23,24
918 326 m 1,32,-1
 918 1163 l 1,33,34
 882 1110 882 1110 848.5 1058.5 c 128,-1,35
 815 1007 815 1007 780 958 c 128,-1,36
 745 909 745 909 711.5 856 c 128,-1,37
 678 803 678 803 640 748 c 1,38,-1
 918 326 l 1,32,-1
EndSplineSet
Layer: 2
SplineSet
0 1493 m 1
 1084 1493 l 1
 1084 0 l 1
 0 0 l 1
 0 1493 l 1
839 162 m 1
 543 601 l 1
 253 162 l 1
 839 162 l 1
836 1331 m 1
 253 1331 l 1
 540 895 l 1
 836 1331 l 1
162 323 m 1
 445 748 l 1
 162 1171 l 1
 162 323 l 1
918 326 m 1
 918 1163 l 1
 640 748 l 1
 918 326 l 1
EndSplineSet
EndChar

StartChar: exclam
Encoding: 2 33 4
Width: 821
VWidth: 3198
Flags: W
HStem: -28 265<313.163 508.846> 1473 20G<281 540>
VStem: 278 265<6.46274 202.496> 348 125<419 847.669>
LayerCount: 3
Fore
SplineSet
278 106 m 0,0,1
 278 159 278 159 316.5 198 c 128,-1,2
 355 237 355 237 412 237 c 0,3,4
 467 237 467 237 505 198 c 128,-1,5
 543 159 543 159 543 106 c 0,6,7
 543 48 543 48 505 10 c 128,-1,8
 467 -28 467 -28 412 -28 c 0,9,10
 355 -28 355 -28 316.5 10 c 128,-1,11
 278 48 278 48 278 106 c 0,0,1
281 1493 m 1,12,-1
 540 1493 l 1,13,-1
 473 672 l 1,14,-1
 473 419 l 1,15,-1
 348 419 l 1,16,-1
 348 672 l 1,17,-1
 281 1493 l 1,12,-1
EndSplineSet
Layer: 2
SplineSet
412 -28 m 3xe0
 336 -28 278 30 278 106 c 3
 278 178 339 237 412 237 c 3
 484 237 543 177 543 106 c 3
 543 31 486 -28 412 -28 c 3xe0
281 1493 m 1
 540 1493 l 1
 473 672 l 1
 473 419 l 1
 348 419 l 1
 348 672 l 1xd0
 281 1493 l 1
EndSplineSet
EndChar

StartChar: quotedbl
Encoding: 3 34 5
Width: 940
VWidth: 3198
Flags: W
HStem: 937 556<201 361 583 742>
VStem: 201 160<937 1493> 583 159<937 1493>
LayerCount: 3
Fore
SplineSet
361 1493 m 1,0,-1
 361 937 l 1,1,-1
 201 937 l 1,2,-1
 201 1493 l 1,3,-1
 361 1493 l 1,0,-1
742 1493 m 1,4,-1
 742 937 l 1,5,-1
 583 937 l 1,6,-1
 583 1493 l 1,7,-1
 742 1493 l 1,4,-1
EndSplineSet
Layer: 2
SplineSet
361 1493 m 1
 361 937 l 1
 201 937 l 1
 201 1493 l 1
 361 1493 l 1
742 1493 m 1
 742 937 l 1
 583 937 l 1
 583 1493 l 1
 742 1493 l 1
EndSplineSet
EndChar

StartChar: numbersign
Encoding: 4 35 6
Width: 1713
VWidth: 3198
Flags: W
HStem: 0 21G<364 539.146 815 993.903> 412 153<156 467 675 921 1129 1443> 903 153<272 589 800 1043 1251 1557>
VStem: 364 170<0 170> 729 174<1297 1471> 815 174<0 174> 1184 172<1299 1471>
DStem2: 364 0 534 0 0.243311 0.969948<41.3629 424.68 623.691 930.608 1130.35 1515.6> 815 0 989 0 0.243311 0.969948<42.3362 425.41 624.421 931.338 1130.35 1516.58>
LayerCount: 3
Fore
SplineSet
1043 903 m 1,0,-1
 757 903 l 1,1,-1
 675 565 l 1,2,-1
 959 565 l 1,3,-1
 1043 903 l 1,0,-1
903 1471 m 1,4,-1
 800 1056 l 1,5,-1
 1081 1056 l 1,6,-1
 1184 1471 l 1,7,-1
 1356 1471 l 1,8,-1
 1251 1056 l 1,9,-1
 1557 1056 l 1,10,-1
 1557 903 l 1,11,-1
 1212 903 l 1,12,-1
 1129 565 l 1,13,-1
 1443 565 l 1,14,-1
 1443 412 l 1,15,-1
 1090 412 l 1,16,-1
 989 0 l 1,17,-1
 815 0 l 1,18,-1
 921 412 l 1,19,-1
 640 412 l 1,20,-1
 534 0 l 1,21,-1
 364 0 l 1,22,-1
 467 412 l 1,23,-1
 156 412 l 1,24,-1
 156 565 l 1,25,-1
 506 565 l 1,26,-1
 589 903 l 1,27,-1
 272 903 l 1,28,-1
 272 1056 l 1,29,-1
 626 1056 l 1,30,-1
 729 1471 l 1,31,-1
 903 1471 l 1,4,-1
EndSplineSet
Layer: 2
SplineSet
1043 903 m 1xf2
 757 903 l 1
 675 565 l 1
 959 565 l 1
 1043 903 l 1xf2
903 1471 m 1xfa
 800 1056 l 1
 1081 1056 l 1
 1184 1471 l 1
 1356 1471 l 1
 1251 1056 l 1
 1557 1056 l 1
 1557 903 l 1
 1212 903 l 1
 1129 565 l 1
 1443 565 l 1
 1443 412 l 1
 1090 412 l 1
 989 0 l 1
 815 0 l 1xf6
 921 412 l 1
 640 412 l 1
 534 0 l 1
 364 0 l 1
 467 412 l 1
 156 412 l 1
 156 565 l 1
 506 565 l 1
 589 903 l 1
 272 903 l 1
 272 1056 l 1
 626 1056 l 1
 729 1471 l 1
 903 1471 l 1xfa
EndSplineSet
EndChar

StartChar: dollar
Encoding: 5 36 7
Width: 1300
VWidth: 3198
Flags: W
HStem: -31 98<409.482 589 690 832.881> 1187 101<454.319 589 690 834.944> 1534 20G<589 690>
VStem: 173 199<864.834 1099.34> 176 108<183.463 348> 589 101<-301 -31 67 522 768 1187 1284.57 1554> 921 211<169.879 414.49> 959 106<928 1063.93>
LayerCount: 3
Fore
SplineSet
690 67 m 1,0,1
 803 77 803 77 862 133 c 128,-1,2
 921 189 921 189 921 281 c 0,3,4
 921 369 921 369 863.5 429 c 128,-1,5
 806 489 806 489 690 522 c 1,6,-1
 690 67 l 1,0,1
589 1187 m 1,7,8
 486 1181 486 1181 429 1127.5 c 128,-1,9
 372 1074 372 1074 372 985 c 0,10,11
 372 909 372 909 424 854.5 c 128,-1,12
 476 800 476 800 589 768 c 1,13,-1
 589 1187 l 1,7,8
176 70 m 1,14,-1
 176 348 l 1,15,-1
 284 348 l 1,16,17
 287 211 287 211 364.5 140.5 c 128,-1,18
 442 70 442 70 589 67 c 1,19,-1
 589 553 l 1,20,21
 361 617 361 617 267 700.5 c 128,-1,22
 173 784 173 784 173 921 c 0,23,24
 173 1081 173 1081 283.5 1178.5 c 128,-1,25
 394 1276 394 1276 589 1288 c 1,26,-1
 589 1554 l 1,27,-1
 690 1554 l 1,28,-1
 690 1288 l 1,29,30
 790 1279 790 1279 884.5 1255 c 128,-1,31
 979 1231 979 1231 1065 1190 c 1,32,-1
 1065 928 l 1,33,-1
 959 928 l 1,34,35
 946 1043 946 1043 877.5 1110.5 c 128,-1,36
 809 1178 809 1178 690 1187 c 1,37,-1
 690 736 l 1,38,39
 934 668 934 668 1033 581.5 c 128,-1,40
 1132 495 1132 495 1132 348 c 0,41,42
 1132 186 1132 186 1017.5 85 c 128,-1,43
 903 -16 903 -16 690 -31 c 1,44,-1
 690 -301 l 1,45,-1
 589 -301 l 1,46,-1
 589 -31 l 1,47,48
 492 -28 492 -28 389.5 -3 c 128,-1,49
 287 22 287 22 176 70 c 1,14,-1
EndSplineSet
Layer: 2
SplineSet
690 67 m 1xe6
 824 79 921 144 921 281 c 3
 921 423 815 486 690 522 c 1
 690 67 l 1xe6
589 1187 m 1
 463 1180 372 1113 372 985 c 3xf4
 372 857 471 801 589 768 c 1
 589 1187 l 1
589 -31 m 1
 432 -26 302 15 176 70 c 1
 176 348 l 1
 284 348 l 1xee
 288 161 398 71 589 67 c 1
 589 553 l 1
 360 618 173 683 173 921 c 3
 173 1155 356 1274 589 1288 c 1
 589 1554 l 1
 690 1554 l 1
 690 1288 l 1
 832 1275 957 1241 1065 1190 c 1
 1065 928 l 1
 959 928 l 1xf5
 942 1081 848 1175 690 1187 c 1
 690 736 l 1
 935 668 1132 602 1132 348 c 3xe6
 1132 103 937 -14 690 -31 c 1
 690 -301 l 1
 589 -301 l 1
 589 -31 l 1
EndSplineSet
EndChar

StartChar: percent
Encoding: 6 37 8
Width: 1944
VWidth: 3198
Flags: W
HStem: -28 92<1381.43 1595.11> 707 89<351.702 563.567 1398.96 1577.42> 1426 94<350.116 562.639>
VStem: 112 160<896.095 1330.53> 428 155<-28 127> 643 160<896.505 1326.96> 1142 160<163.074 595.959> 1362 154<1366 1520> 1673 160<162.664 592.954>
DStem2: 428 -28 583 -28 0.516609 0.856221<80.0744 1807.94>
LayerCount: 3
Fore
SplineSet
458 1426 m 256,0,1
 372 1426 372 1426 322 1343 c 128,-1,2
 272 1260 272 1260 272 1113 c 0,3,4
 272 962 272 962 322 879 c 128,-1,5
 372 796 372 796 458 796 c 256,6,7
 543 796 543 796 593 879 c 128,-1,8
 643 962 643 962 643 1113 c 0,9,10
 643 1260 643 1260 593 1343 c 128,-1,11
 543 1426 543 1426 458 1426 c 256,0,1
1487 693 m 256,12,13
 1401 693 1401 693 1351.5 609 c 128,-1,14
 1302 525 1302 525 1302 378 c 256,15,16
 1302 230 1302 230 1351.5 147 c 128,-1,17
 1401 64 1401 64 1487 64 c 256,18,19
 1574 64 1574 64 1623.5 147 c 128,-1,20
 1673 230 1673 230 1673 378 c 256,21,22
 1673 525 1673 525 1623.5 609 c 128,-1,23
 1574 693 1574 693 1487 693 c 256,12,13
1487 784 m 256,24,25
 1648 784 1648 784 1740.5 673 c 128,-1,26
 1833 562 1833 562 1833 378 c 256,27,28
 1833 192 1833 192 1740.5 82 c 128,-1,29
 1648 -28 1648 -28 1487 -28 c 256,30,31
 1327 -28 1327 -28 1234.5 82 c 128,-1,32
 1142 192 1142 192 1142 378 c 0,33,34
 1142 565 1142 565 1234.5 674.5 c 128,-1,35
 1327 784 1327 784 1487 784 c 256,24,25
1362 1520 m 1,36,-1
 1516 1520 l 1,37,-1
 583 -28 l 1,38,-1
 428 -28 l 1,39,-1
 1362 1520 l 1,36,-1
458 1520 m 0,40,41
 614 1520 614 1520 708.5 1409 c 128,-1,42
 803 1298 803 1298 803 1113 c 0,43,44
 803 925 803 925 710 816 c 128,-1,45
 617 707 617 707 458 707 c 256,46,47
 297 707 297 707 204.5 816 c 128,-1,48
 112 925 112 925 112 1113 c 0,49,50
 112 1298 112 1298 204.5 1409 c 128,-1,51
 297 1520 297 1520 458 1520 c 0,40,41
EndSplineSet
Layer: 2
SplineSet
643 1113 m 3
 643 1269 596 1426 458 1426 c 259
 319 1426 272 1270 272 1113 c 3
 272 953 318 796 458 796 c 259
 597 796 643 954 643 1113 c 3
1673 378 m 259
 1673 535 1626 693 1487 693 c 259
 1349 693 1302 534 1302 378 c 259
 1302 221 1348 64 1487 64 c 259
 1627 64 1673 220 1673 378 c 259
1142 378 m 3
 1142 611 1261 784 1487 784 c 259
 1712 784 1833 609 1833 378 c 259
 1833 145 1713 -28 1487 -28 c 259
 1262 -28 1142 146 1142 378 c 3
1362 1520 m 1
 1516 1520 l 1
 583 -28 l 1
 428 -28 l 1
 1362 1520 l 1
112 1113 m 3
 112 1345 232 1520 458 1520 c 3
 679 1520 803 1342 803 1113 c 3
 803 879 683 707 458 707 c 259
 231 707 112 878 112 1113 c 3
EndSplineSet
EndChar

StartChar: ampersand
Encoding: 7 38 9
Width: 1822
VWidth: 3198
Flags: W
HStem: -28 120<564.133 965.085> 0 106<1490 1727> 742 106<1215 1395 1509.9 1688> 1193 259<1024.67 1142> 1413 107<631.753 932.389>
VStem: 147 201<306.566 657.694> 355 192<1059.54 1332.57> 1029 113<1193 1317.55> 1395 121<553.415 742>
DStem2: 723 915 525 845 0.687053 -0.726608<-82.3015 748.38 875.931 1077.76>
LayerCount: 3
Fore
SplineSet
1107 230 m 1,0,-1
 525 845 l 1,1,2
 436 764 436 764 392 675 c 128,-1,3
 348 586 348 586 348 483 c 0,4,5
 348 317 348 317 463.5 204.5 c 128,-1,6
 579 92 579 92 751 92 c 0,7,8
 854 92 854 92 944 127 c 128,-1,9
 1034 162 1034 162 1107 230 c 1,0,-1
1727 0 m 1,10,-1
 1324 0 l 1,11,-1
 1187 144 l 1,12,13
 1084 58 1084 58 964.5 15 c 128,-1,14
 845 -28 845 -28 707 -28 c 0,15,16
 448 -28 448 -28 297.5 104.5 c 128,-1,17
 147 237 147 237 147 461 c 0,18,19
 147 595 147 595 222 710 c 128,-1,20
 297 825 297 825 454 925 c 1,21,22
 403 985 403 985 379 1046 c 128,-1,23
 355 1107 355 1107 355 1174 c 0,24,25
 355 1334 355 1334 470.5 1427 c 128,-1,26
 586 1520 586 1520 781 1520 c 0,27,28
 851 1520 851 1520 938.5 1503.5 c 128,-1,29
 1026 1487 1026 1487 1142 1452 c 1,30,-1
 1142 1193 l 1,31,-1
 1029 1193 l 1,32,33
 1014 1298 1014 1298 951.5 1355.5 c 128,-1,34
 889 1413 889 1413 778 1413 c 0,35,36
 675 1413 675 1413 611 1355.5 c 128,-1,37
 547 1298 547 1298 547 1209 c 0,38,39
 547 1148 547 1148 580.5 1087 c 128,-1,40
 614 1026 614 1026 723 915 c 2,41,-1
 1238 372 l 1,42,43
 1309 451 1309 451 1347 544 c 128,-1,44
 1385 637 1385 637 1395 742 c 1,45,-1
 1215 742 l 1,46,-1
 1215 848 l 1,47,-1
 1688 848 l 1,48,-1
 1688 742 l 1,49,-1
 1516 742 l 1,50,51
 1501 611 1501 611 1451 497.5 c 128,-1,52
 1401 384 1401 384 1318 287 c 1,53,-1
 1490 106 l 1,54,-1
 1727 106 l 1,55,-1
 1727 0 l 1,10,-1
EndSplineSet
Layer: 2
SplineSet
348 483 m 3xa780
 348 260 526 92 751 92 c 3
 906 92 1021 150 1107 230 c 1
 525 845 l 1
 427 755 348 649 348 483 c 3xa780
1516 742 m 1
 1494 552 1420 406 1318 287 c 1
 1490 106 l 1
 1727 106 l 1
 1727 0 l 1
 1324 0 l 1x6f80
 1187 144 l 1
 1065 42 915 -28 707 -28 c 3
 382 -28 147 146 147 461 c 3
 147 689 290 821 454 925 c 1
 397 992 355 1065 355 1174 c 3
 355 1403 542 1520 781 1520 c 3xaf80
 914 1520 1018 1489 1142 1452 c 1
 1142 1193 l 1
 1029 1193 l 1x3780
 1010 1328 930 1413 778 1413 c 3x2f80
 649 1413 547 1334 547 1209 c 3
 547 1071 623 1021 723 915 c 2
 1238 372 l 1
 1324 468 1380 586 1395 742 c 1
 1215 742 l 1
 1215 848 l 1
 1688 848 l 1
 1688 742 l 1
 1516 742 l 1
EndSplineSet
EndChar

StartChar: quotesingle
Encoding: 8 39 10
Width: 562
VWidth: 3198
Flags: W
HStem: 937 556<201 361>
VStem: 201 160<937 1493>
LayerCount: 3
Fore
SplineSet
361 1493 m 1,0,-1
 361 937 l 1,1,-1
 201 937 l 1,2,-1
 201 1493 l 1,3,-1
 361 1493 l 1,0,-1
EndSplineSet
Layer: 2
SplineSet
361 1493 m 1
 361 937 l 1
 201 937 l 1
 201 1493 l 1
 361 1493 l 1
EndSplineSet
EndChar

StartChar: parenleft
Encoding: 9 40 11
Width: 799
VWidth: 3198
Flags: W
HStem: 1534 20G<489 653>
VStem: 162 202<238.384 997.126>
LayerCount: 3
Fore
SplineSet
653 -320 m 1,0,1
 409 -211 409 -211 285.5 25.5 c 128,-1,2
 162 262 162 262 162 617 c 0,3,4
 162 976 162 976 285.5 1211 c 128,-1,5
 409 1446 409 1446 653 1554 c 1,6,-1
 653 1459 l 1,7,8
 498 1349 498 1349 431 1157 c 128,-1,9
 364 965 364 965 364 617 c 256,10,11
 364 269 364 269 431 76.5 c 128,-1,12
 498 -116 498 -116 653 -220 c 1,13,-1
 653 -320 l 1,0,1
EndSplineSet
Layer: 2
SplineSet
653 -320 m 1
 327 -174 162 145 162 617 c 3
 162 1092 325 1409 653 1554 c 1
 653 1459 l 1
 421 1295 364 1039 364 617 c 259
 364 199 419 -63 653 -220 c 1
 653 -320 l 1
EndSplineSet
EndChar

StartChar: parenright
Encoding: 10 41 12
Width: 799
VWidth: 3198
Flags: W
HStem: 1534 20G<144 309>
VStem: 436 201<238.399 996.902>
LayerCount: 3
Fore
SplineSet
144 -320 m 1,0,-1
 144 -220 l 1,1,2
 297 -116 297 -116 366.5 76.5 c 128,-1,3
 436 269 436 269 436 617 c 256,4,5
 436 965 436 965 366.5 1157 c 128,-1,6
 297 1349 297 1349 144 1459 c 1,7,-1
 144 1554 l 1,8,9
 390 1446 390 1446 513.5 1211 c 128,-1,10
 637 976 637 976 637 617 c 0,11,12
 637 262 637 262 513.5 25.5 c 128,-1,13
 390 -211 390 -211 144 -320 c 1,0,-1
EndSplineSet
Layer: 2
SplineSet
144 1554 m 1
 474 1409 637 1093 637 617 c 3
 637 144 472 -175 144 -320 c 1
 144 -220 l 1
 375 -64 436 201 436 617 c 259
 436 1037 374 1295 144 1459 c 1
 144 1554 l 1
EndSplineSet
EndChar

StartChar: asterisk
Encoding: 11 42 13
Width: 1022
VWidth: 3198
Flags: W
HStem: 1500 20G<445 579>
VStem: 445 134<589 970 1138 1520>
LayerCount: 3
Fore
SplineSet
992 1238 m 1,0,-1
 601 1056 l 1,1,-1
 992 870 l 1,2,-1
 915 751 l 1,3,-1
 565 970 l 1,4,-1
 579 589 l 1,5,-1
 445 589 l 1,6,-1
 458 970 l 1,7,-1
 109 751 l 1,8,-1
 31 870 l 1,9,-1
 422 1053 l 1,10,-1
 31 1238 l 1,11,-1
 109 1356 l 1,12,-1
 458 1138 l 1,13,-1
 445 1520 l 1,14,-1
 579 1520 l 1,15,-1
 565 1138 l 1,16,-1
 915 1356 l 1,17,-1
 992 1238 l 1,0,-1
EndSplineSet
Layer: 2
SplineSet
992 1238 m 1
 601 1056 l 1
 992 870 l 1
 915 751 l 1
 565 970 l 1
 579 589 l 1
 445 589 l 1
 458 970 l 1
 109 751 l 1
 31 870 l 1
 422 1053 l 1
 31 1238 l 1
 109 1356 l 1
 458 1138 l 1
 445 1520 l 1
 579 1520 l 1
 565 1138 l 1
 915 1356 l 1
 992 1238 l 1
EndSplineSet
EndChar

StartChar: plus
Encoding: 12 43 14
Width: 1713
VWidth: 3198
Flags: W
HStem: 0 21G<778 937> 559 164<217 778 937 1496>
VStem: 778 159<0 559 723 1282>
LayerCount: 3
Fore
SplineSet
937 1282 m 1,0,-1
 937 723 l 1,1,-1
 1496 723 l 1,2,-1
 1496 559 l 1,3,-1
 937 559 l 1,4,-1
 937 0 l 1,5,-1
 778 0 l 1,6,-1
 778 559 l 1,7,-1
 217 559 l 1,8,-1
 217 723 l 1,9,-1
 778 723 l 1,10,-1
 778 1282 l 1,11,-1
 937 1282 l 1,0,-1
EndSplineSet
Layer: 2
SplineSet
937 1282 m 1
 937 723 l 1
 1496 723 l 1
 1496 559 l 1
 937 559 l 1
 937 0 l 1
 778 0 l 1
 778 559 l 1
 217 559 l 1
 217 723 l 1
 778 723 l 1
 778 1282 l 1
 937 1282 l 1
EndSplineSet
EndChar

StartChar: comma
Encoding: 13 44 15
Width: 651
VWidth: 3198
Flags: W
HStem: -278 504
VStem: 256 195<9.6163 226>
LayerCount: 3
Fore
SplineSet
73 -198 m 1,0,1
 166 -128 166 -128 211 -35 c 128,-1,2
 256 58 256 58 256 192 c 2,3,-1
 256 226 l 1,4,-1
 451 226 l 1,5,6
 445 55 445 55 371 -67 c 128,-1,7
 297 -189 297 -189 153 -278 c 1,8,-1
 73 -198 l 1,0,1
EndSplineSet
Layer: 2
SplineSet
73 -198 m 1
 188 -111 256 -1 256 192 c 2
 256 226 l 1
 451 226 l 1
 442 -27 326 -171 153 -278 c 1
 73 -198 l 1
EndSplineSet
EndChar

StartChar: hyphen
Encoding: 14 45 16
Width: 690
VWidth: 3198
Flags: W
HStem: 470 156<89 601>
VStem: 89 512<470 626>
LayerCount: 3
Fore
SplineSet
89 626 m 1,0,-1
 601 626 l 1,1,-1
 601 470 l 1,2,-1
 89 470 l 1,3,-1
 89 626 l 1,0,-1
EndSplineSet
Layer: 2
SplineSet
89 626 m 1
 601 626 l 1
 601 470 l 1
 89 470 l 1
 89 626 l 1
EndSplineSet
EndChar

StartChar: period
Encoding: 15 46 17
Width: 651
VWidth: 3198
Flags: W
HStem: -28 265<227.163 423.393>
VStem: 192 266<6.46274 202.496>
LayerCount: 3
Fore
SplineSet
192 106 m 0,0,1
 192 159 192 159 230.5 198 c 128,-1,2
 269 237 269 237 326 237 c 0,3,4
 381 237 381 237 419.5 198 c 128,-1,5
 458 159 458 159 458 106 c 0,6,7
 458 48 458 48 419.5 10 c 128,-1,8
 381 -28 381 -28 326 -28 c 0,9,10
 269 -28 269 -28 230.5 10 c 128,-1,11
 192 48 192 48 192 106 c 0,0,1
EndSplineSet
Layer: 2
SplineSet
326 -28 m 3
 250 -28 192 30 192 106 c 3
 192 178 253 237 326 237 c 3
 398 237 458 177 458 106 c 3
 458 31 400 -28 326 -28 c 3
EndSplineSet
EndChar

StartChar: slash
Encoding: 16 47 18
Width: 690
VWidth: 3198
Flags: W
HStem: 1473 20G<524.697 690>
VStem: 0 159<-192 -33> 531 159<1334 1493>
DStem2: 0 -192 159 -192 0.300562 0.953762<47.7894 1766.69>
LayerCount: 3
Fore
SplineSet
531 1493 m 1,0,-1
 690 1493 l 1,1,-1
 159 -192 l 1,2,-1
 0 -192 l 1,3,-1
 531 1493 l 1,0,-1
EndSplineSet
Layer: 2
SplineSet
531 1493 m 1
 690 1493 l 1
 159 -192 l 1
 0 -192 l 1
 531 1493 l 1
EndSplineSet
EndChar

StartChar: zero
Encoding: 17 48 19
Width: 1300
VWidth: 3198
Flags: W
HStem: -28 98<519.496 785.189> 1420 100<519.353 785.189>
VStem: 134 211<384.554 1105.68> 956 212<385.436 1104.57>
LayerCount: 3
Fore
SplineSet
653 70 m 256,0,1
 806 70 806 70 881 238 c 128,-1,2
 956 406 956 406 956 745 c 256,3,4
 956 1084 956 1084 881 1252 c 128,-1,5
 806 1420 806 1420 653 1420 c 256,6,7
 498 1420 498 1420 421.5 1252 c 128,-1,8
 345 1084 345 1084 345 745 c 256,9,10
 345 406 345 406 421.5 238 c 128,-1,11
 498 70 498 70 653 70 c 256,0,1
653 -28 m 0,12,13
 406 -28 406 -28 270 175 c 128,-1,14
 134 378 134 378 134 745 c 256,15,16
 134 1113 134 1113 270 1316.5 c 128,-1,17
 406 1520 406 1520 653 1520 c 0,18,19
 895 1520 895 1520 1031.5 1316.5 c 128,-1,20
 1168 1113 1168 1113 1168 745 c 256,21,22
 1168 378 1168 378 1031.5 175 c 128,-1,23
 895 -28 895 -28 653 -28 c 0,12,13
EndSplineSet
Layer: 2
SplineSet
653 70 m 259
 917 70 956 419 956 745 c 259
 956 1071 917 1420 653 1420 c 259
 387 1420 345 1072 345 745 c 259
 345 417 387 70 653 70 c 259
134 745 m 259
 134 1161 273 1520 653 1520 c 3
 1028 1520 1168 1157 1168 745 c 259
 1168 332 1028 -28 653 -28 c 3
 274 -28 134 330 134 745 c 259
EndSplineSet
EndChar

StartChar: one
Encoding: 18 49 20
Width: 1300
VWidth: 3198
Flags: W
HStem: 0 106<290 550 751 1010> 1151 131<250 381> 1500 20G<583.412 751>
VStem: 550 201<106 1346>
DStem2: 250 1282 250 1151 0.83697 0.547249<0 286.115>
LayerCount: 3
Fore
SplineSet
290 0 m 1,0,-1
 290 106 l 1,1,-1
 550 106 l 1,2,-1
 550 1346 l 1,3,-1
 250 1151 l 1,4,-1
 250 1282 l 1,5,-1
 614 1520 l 1,6,-1
 751 1520 l 1,7,-1
 751 106 l 1,8,-1
 1010 106 l 1,9,-1
 1010 0 l 1,10,-1
 290 0 l 1,0,-1
EndSplineSet
Layer: 2
SplineSet
290 0 m 1
 290 106 l 1
 550 106 l 1
 550 1346 l 1
 250 1151 l 1
 250 1282 l 1
 614 1520 l 1
 751 1520 l 1
 751 106 l 1
 1010 106 l 1
 1010 0 l 1
 290 0 l 1
EndSplineSet
EndChar

StartChar: two
Encoding: 19 50 21
Width: 1300
VWidth: 3198
Flags: W
HStem: 0 162<361 985> 1420 100<390.286 740.717>
VStem: 150 112<1135 1289.57> 870 211<924.975 1284.41> 985 116<162 348>
DStem2: 141 109 361 162 0.707891 0.706322<193.171 979.024>
LayerCount: 3
Fore
SplineSet
262 1135 m 1,0,-1
 150 1135 l 1,1,-1
 150 1401 l 1,2,3
 256 1459 256 1459 364.5 1489.5 c 128,-1,4
 473 1520 473 1520 576 1520 c 0,5,6
 809 1520 809 1520 945 1406 c 128,-1,7
 1081 1292 1081 1292 1081 1101 c 0,8,9
 1081 879 1081 879 775 576 c 0,10,11
 751 553 751 553 739 540 c 2,12,-1
 361 162 l 1,13,-1
 985 162 l 1,14,-1
 985 348 l 1,15,-1
 1101 348 l 1,16,-1
 1101 0 l 1,17,-1
 141 0 l 1,18,-1
 141 109 l 1,19,-1
 592 559 l 2,20,21
 742 711 742 711 806 836.5 c 128,-1,22
 870 962 870 962 870 1101 c 0,23,24
 870 1251 870 1251 792 1335.5 c 128,-1,25
 714 1420 714 1420 576 1420 c 0,26,27
 431 1420 431 1420 353 1349.5 c 128,-1,28
 275 1279 275 1279 262 1135 c 1,0,-1
EndSplineSet
Layer: 2
SplineSet
576 1420 m 3xf0
 377 1420 279 1321 262 1135 c 1
 150 1135 l 1
 150 1401 l 1
 269 1466 410 1520 576 1520 c 3
 862 1520 1081 1375 1081 1101 c 3xf0
 1081 928 943 744 739 540 c 2
 361 162 l 1
 985 162 l 1
 985 348 l 1
 1101 348 l 1
 1101 0 l 1xe8
 141 0 l 1
 141 109 l 1
 592 559 l 2
 747 714 870 872 870 1101 c 3
 870 1294 766 1420 576 1420 c 3xf0
EndSplineSet
EndChar

StartChar: three
Encoding: 20 51 22
Width: 1300
VWidth: 3198
Flags: W
HStem: -28 98<409.451 788.905> 757 103<486 753.394> 1168 261<198 316.625> 1420 100<427.696 776.808>
VStem: 156 113<207.1 361> 198 113<1168 1304.91> 885 202<991.726 1316.76> 940 211<218.722 597.169>
LayerCount: 3
Fore
SplineSet
198 1429 m 1,0,1
 317 1474 317 1474 424 1497 c 128,-1,2
 531 1520 531 1520 623 1520 c 0,3,4
 845 1520 845 1520 966 1425.5 c 128,-1,5
 1087 1331 1087 1331 1087 1163 c 0,6,7
 1087 1026 1087 1026 1002.5 937 c 128,-1,8
 918 848 918 848 764 815 c 1,9,10
 946 787 946 787 1048.5 680 c 128,-1,11
 1151 573 1151 573 1151 403 c 0,12,13
 1151 195 1151 195 1010.5 83.5 c 128,-1,14
 870 -28 870 -28 604 -28 c 0,15,16
 489 -28 489 -28 377 -4.5 c 128,-1,17
 265 19 265 19 156 70 c 1,18,-1
 156 361 l 1,19,-1
 269 361 l 1,20,21
 278 217 278 217 364.5 143.5 c 128,-1,22
 451 70 451 70 611 70 c 0,23,24
 764 70 764 70 852 158.5 c 128,-1,25
 940 247 940 247 940 400 c 0,26,27
 940 576 940 576 848.5 666.5 c 128,-1,28
 757 757 757 757 583 757 c 2,29,-1
 486 757 l 1,30,-1
 486 860 l 1,31,-1
 537 860 l 2,32,33
 714 860 714 860 799.5 932 c 128,-1,34
 885 1004 885 1004 885 1151 c 0,35,36
 885 1282 885 1282 813.5 1351 c 128,-1,37
 742 1420 742 1420 608 1420 c 256,38,39
 473 1420 473 1420 398 1356 c 128,-1,40
 323 1292 323 1292 311 1168 c 1,41,-1
 198 1168 l 1,42,-1
 198 1429 l 1,0,1
EndSplineSet
Layer: 2
SplineSet
608 1420 m 259xd2
 428 1420 327 1333 311 1168 c 1
 198 1168 l 1
 198 1429 l 1xe6
 329 1478 466 1520 623 1520 c 3
 887 1520 1087 1411 1087 1163 c 3xd6
 1087 959 944 854 764 815 c 1
 986 781 1151 648 1151 403 c 3
 1151 99 925 -28 604 -28 c 3
 428 -28 285 10 156 70 c 1
 156 361 l 1
 269 361 l 1
 281 166 401 70 611 70 c 3
 814 70 940 197 940 400 c 3xd9
 940 634 816 757 583 757 c 2
 486 757 l 1
 486 860 l 1
 537 860 l 2
 757 860 885 941 885 1151 c 3
 885 1327 785 1420 608 1420 c 259xd2
EndSplineSet
EndChar

StartChar: four
Encoding: 21 52 23
Width: 1300
VWidth: 3198
Flags: W
HStem: 0 106<473 714 915 1154> 400 106<205 714 915 1199> 1500 20G<704.082 915>
VStem: 714 201<106 400 506 1298>
DStem2: 64 509 205 506 0.542562 0.840016<73.9812 1015.44>
LayerCount: 3
Fore
SplineSet
714 506 m 1,0,-1
 714 1298 l 1,1,-1
 205 506 l 1,2,-1
 714 506 l 1,0,-1
1154 0 m 1,3,-1
 473 0 l 1,4,-1
 473 106 l 1,5,-1
 714 106 l 1,6,-1
 714 400 l 1,7,-1
 64 400 l 1,8,-1
 64 509 l 1,9,-1
 717 1520 l 1,10,-1
 915 1520 l 1,11,-1
 915 506 l 1,12,-1
 1199 506 l 1,13,-1
 1199 400 l 1,14,-1
 915 400 l 1,15,-1
 915 106 l 1,16,-1
 1154 106 l 1,17,-1
 1154 0 l 1,3,-1
EndSplineSet
Layer: 2
SplineSet
714 506 m 1
 714 1298 l 1
 205 506 l 1
 714 506 l 1
1154 0 m 1
 473 0 l 1
 473 106 l 1
 714 106 l 1
 714 400 l 1
 64 400 l 1
 64 509 l 1
 717 1520 l 1
 915 1520 l 1
 915 506 l 1
 1199 506 l 1
 1199 400 l 1
 915 400 l 1
 915 106 l 1
 1154 106 l 1
 1154 0 l 1
EndSplineSet
EndChar

StartChar: five
Encoding: 22 53 24
Width: 1300
VWidth: 3198
Flags: W
HStem: -28 98<420.614 775.642> 873 100<423.359 778.901> 1327 166<345 1029>
VStem: 173 114<204.028 361> 241 104<903 1327> 934 211<247.283 695.61>
LayerCount: 3
Fore
SplineSet
1029 1493 m 1,0,-1
 1029 1327 l 1,1,-1
 345 1327 l 1,2,-1
 345 903 l 1,3,4
 397 937 397 937 467 955 c 128,-1,5
 537 973 537 973 623 973 c 0,6,7
 864 973 864 973 1004.5 838.5 c 128,-1,8
 1145 704 1145 704 1145 473 c 0,9,10
 1145 237 1145 237 1002.5 104.5 c 128,-1,11
 860 -28 860 -28 604 -28 c 0,12,13
 503 -28 503 -28 395 -4.5 c 128,-1,14
 287 19 287 19 173 70 c 1,15,-1
 173 361 l 1,16,-1
 287 361 l 1,17,18
 297 217 297 217 377.5 143.5 c 128,-1,19
 458 70 458 70 604 70 c 0,20,21
 764 70 764 70 849 174 c 128,-1,22
 934 278 934 278 934 473 c 256,23,24
 934 668 934 668 849 770.5 c 128,-1,25
 764 873 764 873 604 873 c 0,26,27
 515 873 515 873 446.5 841 c 128,-1,28
 378 809 378 809 326 742 c 1,29,-1
 241 742 l 1,30,-1
 241 1493 l 1,31,-1
 1029 1493 l 1,0,-1
EndSplineSet
Layer: 2
SplineSet
604 873 m 3xf4
 471 873 388 822 326 742 c 1
 241 742 l 1
 241 1493 l 1
 1029 1493 l 1
 1029 1327 l 1
 345 1327 l 1
 345 903 l 1xec
 414 948 508 973 623 973 c 3
 938 973 1145 785 1145 473 c 3
 1145 149 934 -28 604 -28 c 3
 438 -28 301 13 173 70 c 1
 173 361 l 1
 287 361 l 1
 300 173 405 70 604 70 c 3
 833 70 934 233 934 473 c 259
 934 713 834 873 604 873 c 3xf4
EndSplineSet
EndChar

StartChar: six
Encoding: 23 54 25
Width: 1300
VWidth: 3198
Flags: W
HStem: -28 98<514.421 823.288> 873 97<511.539 823.45> 1215 244<977.939 1093> 1420 100<550.244 893.12>
VStem: 137 208<821 1057.06> 962 212<251.938 702.72> 982 111<1215 1334.69>
LayerCount: 3
Fore
SplineSet
668 70 m 256,0,1
 809 70 809 70 885.5 172.5 c 128,-1,2
 962 275 962 275 962 470 c 256,3,4
 962 665 962 665 885.5 769 c 128,-1,5
 809 873 809 873 668 873 c 0,6,7
 525 873 525 873 451.5 772.5 c 128,-1,8
 378 672 378 672 378 483 c 0,9,10
 378 284 378 284 453 177 c 128,-1,11
 528 70 528 70 668 70 c 256,0,1
345 821 m 1,12,13
 412 895 412 895 497.5 932.5 c 128,-1,14
 583 970 583 970 690 970 c 0,15,16
 915 970 915 970 1044.5 837 c 128,-1,17
 1174 704 1174 704 1174 470 c 0,18,19
 1174 244 1174 244 1034.5 108 c 128,-1,20
 895 -28 895 -28 662 -28 c 0,21,22
 409 -28 409 -28 273 160 c 128,-1,23
 137 348 137 348 137 697 c 0,24,25
 137 1087 137 1087 297.5 1303.5 c 128,-1,26
 458 1520 458 1520 751 1520 c 0,27,28
 831 1520 831 1520 917.5 1505 c 128,-1,29
 1004 1490 1004 1490 1093 1459 c 1,30,-1
 1093 1215 l 1,31,-1
 982 1215 l 1,32,33
 970 1315 970 1315 906 1367.5 c 128,-1,34
 842 1420 842 1420 729 1420 c 0,35,36
 537 1420 537 1420 441 1273 c 128,-1,37
 345 1126 345 1126 345 821 c 1,12,13
EndSplineSet
Layer: 2
SplineSet
378 483 m 3xcc
 378 253 456 70 668 70 c 259
 880 70 962 242 962 470 c 259
 962 698 880 873 668 873 c 3
 457 873 378 708 378 483 c 3xcc
982 1215 m 1xea
 966 1349 879 1420 729 1420 c 3
 427 1420 345 1159 345 821 c 1
 425 910 531 970 690 970 c 3
 994 970 1174 776 1174 470 c 3
 1174 166 968 -28 662 -28 c 3
 283 -28 137 289 137 697 c 3
 137 1159 317 1520 751 1520 c 3xdc
 877 1520 990 1495 1093 1459 c 1
 1093 1215 l 1
 982 1215 l 1xea
EndSplineSet
EndChar

StartChar: seven
Encoding: 24 55 26
Width: 1300
VWidth: 3198
Flags: W
HStem: 0 21G<422 581.354> 1327 166<287 979>
VStem: 173 114<1145 1327>
DStem2: 422 0 573 0 0.385416 0.922743<58.1978 1439.16>
LayerCount: 3
Fore
SplineSet
1154 1391 m 1,0,-1
 573 0 l 1,1,-1
 422 0 l 1,2,-1
 979 1327 l 1,3,-1
 287 1327 l 1,4,-1
 287 1145 l 1,5,-1
 173 1145 l 1,6,-1
 173 1493 l 1,7,-1
 1154 1493 l 1,8,-1
 1154 1391 l 1,0,-1
EndSplineSet
Layer: 2
SplineSet
1154 1391 m 1
 573 0 l 1
 422 0 l 1
 979 1327 l 1
 287 1327 l 1
 287 1145 l 1
 173 1145 l 1
 173 1493 l 1
 1154 1493 l 1
 1154 1391 l 1
EndSplineSet
EndChar

StartChar: eight
Encoding: 25 56 27
Width: 1300
VWidth: 3198
Flags: W
HStem: -28 98<485.772 817.637> 745 100<500.695 802.483> 1420 100<496.732 807.428>
VStem: 137 211<211.685 593.524> 186 204<958.233 1311.03> 912 205<959.334 1310.38> 953 210<212.546 596.74>
LayerCount: 3
Fore
SplineSet
953 406 m 256,0,1
 953 565 953 565 873 655 c 128,-1,2
 793 745 793 745 653 745 c 0,3,4
 509 745 509 745 428.5 655 c 128,-1,5
 348 565 348 565 348 406 c 256,6,7
 348 247 348 247 428.5 158.5 c 128,-1,8
 509 70 509 70 653 70 c 0,9,10
 793 70 793 70 873 158.5 c 128,-1,11
 953 247 953 247 953 406 c 256,0,1
912 1132 m 256,12,13
 912 1270 912 1270 843.5 1345 c 128,-1,14
 775 1420 775 1420 653 1420 c 0,15,16
 528 1420 528 1420 459 1345 c 128,-1,17
 390 1270 390 1270 390 1132 c 256,18,19
 390 995 390 995 459 920 c 128,-1,20
 528 845 528 845 653 845 c 0,21,22
 775 845 775 845 843.5 920 c 128,-1,23
 912 995 912 995 912 1132 c 256,12,13
806 793 m 1,24,25
 976 771 976 771 1069.5 668 c 128,-1,26
 1163 565 1163 565 1163 406 c 0,27,28
 1163 198 1163 198 1030.5 85 c 128,-1,29
 898 -28 898 -28 653 -28 c 0,30,31
 403 -28 403 -28 270 85 c 128,-1,32
 137 198 137 198 137 406 c 0,33,34
 137 565 137 565 231.5 668 c 128,-1,35
 326 771 326 771 498 793 c 1,36,37
 345 821 345 821 265.5 909.5 c 128,-1,38
 186 998 186 998 186 1132 c 0,39,40
 186 1312 186 1312 311 1416 c 128,-1,41
 436 1520 436 1520 653 1520 c 0,42,43
 867 1520 867 1520 992 1416 c 128,-1,44
 1117 1312 1117 1312 1117 1132 c 0,45,46
 1117 998 1117 998 1035 909.5 c 128,-1,47
 953 821 953 821 806 793 c 1,24,25
EndSplineSet
Layer: 2
SplineSet
653 70 m 3xf2
 848 70 953 205 953 406 c 259
 953 607 848 745 653 745 c 3
 454 745 348 609 348 406 c 259
 348 203 454 70 653 70 c 3xf2
653 845 m 3
 823 845 912 958 912 1132 c 259
 912 1307 823 1420 653 1420 c 3
 480 1420 390 1309 390 1132 c 259xec
 390 956 481 845 653 845 c 3
1117 1132 m 3
 1117 935 981 826 806 793 c 1
 1016 766 1163 633 1163 406 c 3
 1163 111 959 -28 653 -28 c 3
 343 -28 137 109 137 406 c 3xf2
 137 634 287 766 498 793 c 1
 317 826 186 932 186 1132 c 3
 186 1389 386 1520 653 1520 c 3
 918 1520 1117 1388 1117 1132 c 3
EndSplineSet
EndChar

StartChar: nine
Encoding: 26 57 28
Width: 1300
VWidth: 3198
Flags: W
HStem: -28 98<414.046 751.445> 31 247<208 327.988> 522 95<476.689 789.116> 1420 100<478.015 788.163>
VStem: 128 211<787.473 1242.9> 208 112<163.871 278> 959 204<433.234 668>
LayerCount: 3
Fore
SplineSet
959 668 m 1,0,1
 889 595 889 595 803 558.5 c 128,-1,2
 717 522 717 522 608 522 c 0,3,4
 384 522 384 522 256 654.5 c 128,-1,5
 128 787 128 787 128 1020 c 0,6,7
 128 1248 128 1248 267 1384 c 128,-1,8
 406 1520 406 1520 640 1520 c 0,9,10
 895 1520 895 1520 1029 1331 c 128,-1,11
 1163 1142 1163 1142 1163 793 c 0,12,13
 1163 400 1163 400 1004 186 c 128,-1,14
 845 -28 845 -28 550 -28 c 0,15,16
 470 -28 470 -28 383.5 -14 c 128,-1,17
 297 0 297 0 208 31 c 1,18,-1
 208 278 l 1,19,-1
 320 278 l 1,20,21
 333 180 333 180 398.5 125 c 128,-1,22
 464 70 464 70 573 70 c 0,23,24
 764 70 764 70 858.5 215.5 c 128,-1,25
 953 361 953 361 959 668 c 1,0,1
634 1420 m 256,26,27
 492 1420 492 1420 415.5 1317.5 c 128,-1,28
 339 1215 339 1215 339 1020 c 256,29,30
 339 825 339 825 415.5 721 c 128,-1,31
 492 617 492 617 634 617 c 256,32,33
 775 617 775 617 850 717.5 c 128,-1,34
 925 818 925 818 925 1007 c 0,35,36
 925 1206 925 1206 850 1313 c 128,-1,37
 775 1420 775 1420 634 1420 c 256,26,27
EndSplineSet
Layer: 2
SplineSet
320 278 m 1x76
 337 149 427 70 573 70 c 3
 875 70 952 333 959 668 c 1
 875 580 769 522 608 522 c 3
 306 522 128 715 128 1020 c 3
 128 1326 332 1520 640 1520 c 3
 1021 1520 1163 1202 1163 793 c 3
 1163 327 987 -28 550 -28 c 3xba
 423 -28 311 -5 208 31 c 1
 208 278 l 1
 320 278 l 1x76
925 1007 m 3
 925 1237 847 1420 634 1420 c 259
 421 1420 339 1249 339 1020 c 259
 339 791 421 617 634 617 c 259
 843 617 925 783 925 1007 c 3
EndSplineSet
EndChar

StartChar: colon
Encoding: 27 58 29
Width: 690
VWidth: 3198
Flags: W
HStem: -28 265<248.485 443.085> 623 266<248.154 444.887>
VStem: 214 265<5.76236 202.496 657.504 854.784>
LayerCount: 3
Fore
SplineSet
214 106 m 0,0,1
 214 159 214 159 252 198 c 128,-1,2
 290 237 290 237 345 237 c 256,3,4
 400 237 400 237 439.5 198 c 128,-1,5
 479 159 479 159 479 106 c 0,6,7
 479 48 479 48 441 10 c 128,-1,8
 403 -28 403 -28 345 -28 c 256,9,10
 287 -28 287 -28 250.5 10 c 128,-1,11
 214 48 214 48 214 106 c 0,0,1
214 754 m 256,12,13
 214 809 214 809 252 849 c 128,-1,14
 290 889 290 889 345 889 c 0,15,16
 403 889 403 889 441 850.5 c 128,-1,17
 479 812 479 812 479 754 c 256,18,19
 479 697 479 697 441 660 c 128,-1,20
 403 623 403 623 345 623 c 0,21,22
 290 623 290 623 252 662 c 128,-1,23
 214 701 214 701 214 754 c 256,12,13
EndSplineSet
Layer: 2
SplineSet
345 -28 m 259
 268 -28 214 29 214 106 c 3
 214 177 273 237 345 237 c 259
 417 237 479 177 479 106 c 3
 479 29 422 -28 345 -28 c 259
345 623 m 3
 273 623 214 683 214 754 c 259
 214 827 272 889 345 889 c 3
 422 889 479 831 479 754 c 259
 479 678 421 623 345 623 c 3
EndSplineSet
EndChar

StartChar: semicolon
Encoding: 28 59 30
Width: 690
VWidth: 3198
Flags: W
HStem: 623 266<253.3 447.734>
VStem: 217 266<657.504 853.034> 256 195<9.6163 226>
LayerCount: 3
Fore
SplineSet
73 -198 m 1,0,1
 166 -128 166 -128 211 -35 c 128,-1,2
 256 58 256 58 256 192 c 2,3,-1
 256 226 l 1,4,-1
 451 226 l 1,5,6
 445 55 445 55 371 -67 c 128,-1,7
 297 -189 297 -189 153 -278 c 1,8,-1
 73 -198 l 1,0,1
217 754 m 256,9,10
 217 809 217 809 255.5 849 c 128,-1,11
 294 889 294 889 348 889 c 0,12,13
 406 889 406 889 444.5 849 c 128,-1,14
 483 809 483 809 483 754 c 256,15,16
 483 701 483 701 444.5 662 c 128,-1,17
 406 623 406 623 348 623 c 0,18,19
 294 623 294 623 255.5 662 c 128,-1,20
 217 701 217 701 217 754 c 256,9,10
EndSplineSet
Layer: 2
SplineSet
73 -198 m 1xa0
 188 -111 256 -1 256 192 c 2
 256 226 l 1
 451 226 l 1
 442 -27 326 -171 153 -278 c 1
 73 -198 l 1xa0
348 623 m 3
 277 623 217 683 217 754 c 259
 217 826 276 889 348 889 c 3
 423 889 483 828 483 754 c 259xc0
 483 681 422 623 348 623 c 3
EndSplineSet
EndChar

StartChar: less
Encoding: 29 60 31
Width: 1713
VWidth: 3198
Flags: W
DStem2: 217 726 461 640 0.940051 0.341035<200.043 1302.59> 461 640 217 559 0.939342 -0.342981<0 1100.84>
LayerCount: 3
Fore
SplineSet
1496 1020 m 1,0,-1
 461 640 l 1,1,-1
 1496 265 l 1,2,-1
 1496 92 l 1,3,-1
 217 559 l 1,4,-1
 217 726 l 1,5,-1
 1496 1190 l 1,6,-1
 1496 1020 l 1,0,-1
EndSplineSet
Layer: 2
SplineSet
1496 1020 m 1
 461 640 l 1
 1496 265 l 1
 1496 92 l 1
 217 559 l 1
 217 726 l 1
 1496 1190 l 1
 1496 1020 l 1
EndSplineSet
EndChar

StartChar: equal
Encoding: 30 61 32
Width: 1713
VWidth: 3198
Flags: W
HStem: 358 160<217 1496> 764 161<217 1496>
LayerCount: 3
Fore
SplineSet
217 925 m 1,0,-1
 1496 925 l 1,1,-1
 1496 764 l 1,2,-1
 217 764 l 1,3,-1
 217 925 l 1,0,-1
217 518 m 1,4,-1
 1496 518 l 1,5,-1
 1496 358 l 1,6,-1
 217 358 l 1,7,-1
 217 518 l 1,4,-1
EndSplineSet
Layer: 2
SplineSet
217 925 m 1
 1496 925 l 1
 1496 764 l 1
 217 764 l 1
 217 925 l 1
217 518 m 1
 1496 518 l 1
 1496 358 l 1
 217 358 l 1
 217 518 l 1
EndSplineSet
EndChar

StartChar: greater
Encoding: 31 62 33
Width: 1713
VWidth: 3198
Flags: W
DStem2: 217 1190 217 1020 0.940051 -0.341035<57.9759 1162.4> 217 265 217 92 0.939342 0.342981<0 1102.72>
LayerCount: 3
Fore
SplineSet
217 1020 m 1,0,-1
 217 1190 l 1,1,-1
 1496 726 l 1,2,-1
 1496 559 l 1,3,-1
 217 92 l 1,4,-1
 217 265 l 1,5,-1
 1254 640 l 1,6,-1
 217 1020 l 1,0,-1
EndSplineSet
Layer: 2
SplineSet
217 1020 m 1
 217 1190 l 1
 1496 726 l 1
 1496 559 l 1
 217 92 l 1
 217 265 l 1
 1254 640 l 1
 217 1020 l 1
EndSplineSet
EndChar

StartChar: question
Encoding: 32 63 34
Width: 1096
VWidth: 3198
Flags: W
HStem: -28 265<394.804 592.238> 1420 100<355.809 669.087>
VStem: 141 96<1168 1297.36> 361 265<5.76236 202.846> 431 122<397 661.608> 787 211<937.581 1298.63>
LayerCount: 3
Fore
SplineSet
361 106 m 0,0,1
 361 159 361 159 398.5 198 c 128,-1,2
 436 237 436 237 492 237 c 256,3,4
 550 237 550 237 588 198 c 128,-1,5
 626 159 626 159 626 106 c 0,6,7
 626 48 626 48 588 10 c 128,-1,8
 550 -28 550 -28 492 -28 c 256,9,10
 436 -28 436 -28 398.5 10 c 128,-1,11
 361 48 361 48 361 106 c 0,0,1
141 1426 m 1,12,13
 247 1474 247 1474 341.5 1497 c 128,-1,14
 436 1520 436 1520 522 1520 c 0,15,16
 742 1520 742 1520 870 1413 c 128,-1,17
 998 1306 998 1306 998 1123 c 0,18,19
 998 937 998 937 888 820.5 c 128,-1,20
 778 704 778 704 553 653 c 1,21,-1
 553 397 l 1,22,-1
 431 397 l 1,23,-1
 431 726 l 1,24,25
 608 768 608 768 697.5 869 c 128,-1,26
 787 970 787 970 787 1126 c 0,27,28
 787 1263 787 1263 713.5 1341.5 c 128,-1,29
 640 1420 640 1420 515 1420 c 0,30,31
 400 1420 400 1420 328 1354 c 128,-1,32
 256 1288 256 1288 237 1168 c 1,33,-1
 141 1168 l 1,34,-1
 141 1426 l 1,12,13
EndSplineSet
Layer: 2
SplineSet
492 -28 m 259xf4
 417 -28 361 30 361 106 c 3
 361 178 419 237 492 237 c 259
 566 237 626 179 626 106 c 3
 626 29 569 -28 492 -28 c 259xf4
515 1420 m 3
 351 1420 260 1316 237 1168 c 1
 141 1168 l 1
 141 1426 l 1
 258 1479 375 1520 522 1520 c 3
 794 1520 998 1384 998 1123 c 3
 998 836 809 711 553 653 c 1
 553 397 l 1
 431 397 l 1
 431 726 l 1xec
 637 775 787 890 787 1126 c 3
 787 1302 687 1420 515 1420 c 3
EndSplineSet
EndChar

StartChar: at
Encoding: 33 64 35
Width: 2045
VWidth: 3198
Flags: W
HStem: -355 102<809.099 1329.28> 86 115<894.86 1169.66> 870 115<895.238 1172.31> 1337 106<820.256 1332.66>
VStem: 134 171<266.102 819.737> 601 180<328.819 743.644> 1292 157<195 247 319.886 753.76 825 965> 1807 97<446.902 902.232>
LayerCount: 3
Fore
SplineSet
1292 247 m 1,0,1
 1235 166 1235 166 1161 126 c 128,-1,2
 1087 86 1087 86 995 86 c 0,3,4
 818 86 818 86 709.5 211 c 128,-1,5
 601 336 601 336 601 537 c 0,6,7
 601 736 601 736 709.5 860.5 c 128,-1,8
 818 985 818 985 995 985 c 0,9,10
 1087 985 1087 985 1161 947 c 128,-1,11
 1235 909 1235 909 1292 825 c 1,12,-1
 1292 965 l 1,13,-1
 1449 965 l 1,14,-1
 1449 195 l 1,15,16
 1618 230 1618 230 1712.5 354.5 c 128,-1,17
 1807 479 1807 479 1807 668 c 0,18,19
 1807 781 1807 781 1773.5 880 c 128,-1,20
 1740 979 1740 979 1673 1062 c 0,21,22
 1568 1196 1568 1196 1414 1266.5 c 128,-1,23
 1260 1337 1260 1337 1084 1337 c 0,24,25
 992 1337 992 1337 903.5 1317.5 c 128,-1,26
 815 1298 815 1298 729 1260 c 0,27,28
 528 1168 528 1168 416.5 979 c 128,-1,29
 305 790 305 790 305 543 c 0,30,31
 305 378 305 378 355.5 235 c 128,-1,32
 406 92 406 92 498 -9 c 0,33,34
 608 -128 608 -128 758.5 -190.5 c 128,-1,35
 909 -253 909 -253 1081 -253 c 0,36,37
 1209 -253 1209 -253 1321.5 -214.5 c 128,-1,38
 1434 -176 1434 -176 1529 -98 c 1,39,-1
 1584 -170 l 1,40,41
 1474 -262 1474 -262 1336.5 -308.5 c 128,-1,42
 1199 -355 1199 -355 1037 -355 c 0,43,44
 854 -355 854 -355 688 -289 c 128,-1,45
 522 -223 522 -223 397 -98 c 0,46,47
 269 25 269 25 201.5 190 c 128,-1,48
 134 355 134 355 134 543 c 0,49,50
 134 726 134 726 201.5 889.5 c 128,-1,51
 269 1053 269 1053 397 1181 c 0,52,53
 525 1306 525 1306 696 1374.5 c 128,-1,54
 867 1443 867 1443 1062 1443 c 0,55,56
 1276 1443 1276 1443 1451.5 1359.5 c 128,-1,57
 1627 1276 1627 1276 1749 1120 c 0,58,59
 1823 1020 1823 1020 1863.5 906.5 c 128,-1,60
 1904 793 1904 793 1904 668 c 0,61,62
 1904 400 1904 400 1740.5 244.5 c 128,-1,63
 1577 89 1577 89 1292 86 c 1,64,-1
 1292 247 l 1,0,1
1292 486 m 2,65,-1
 1292 589 l 2,66,67
 1292 714 1292 714 1221.5 792 c 128,-1,68
 1151 870 1151 870 1037 870 c 0,69,70
 915 870 915 870 848 781.5 c 128,-1,71
 781 693 781 693 781 537 c 0,72,73
 781 378 781 378 848 289.5 c 128,-1,74
 915 201 915 201 1037 201 c 0,75,76
 1151 201 1151 201 1221.5 281 c 128,-1,77
 1292 361 1292 361 1292 486 c 2,65,-1
EndSplineSet
Layer: 2
SplineSet
1584 -170 m 1
 1449 -283 1272 -355 1037 -355 c 3
 513 -355 134 36 134 543 c 3
 134 1059 528 1443 1062 1443 c 3
 1527 1443 1904 1104 1904 668 c 3
 1904 302 1660 90 1292 86 c 1
 1292 247 l 1
 1227 155 1138 86 995 86 c 3
 748 86 601 284 601 537 c 3
 601 789 749 985 995 985 c 3
 1140 985 1227 921 1292 825 c 1
 1292 965 l 1
 1449 965 l 1
 1449 195 l 1
 1667 240 1807 409 1807 668 c 3
 1807 1050 1485 1337 1084 1337 c 3
 611 1337 305 996 305 543 c 3
 305 81 609 -253 1081 -253 c 3
 1273 -253 1416 -191 1529 -98 c 1
 1584 -170 l 1
1037 201 m 3
 1194 201 1292 326 1292 486 c 2
 1292 589 l 2
 1292 749 1194 870 1037 870 c 3
 859 870 781 725 781 537 c 3
 781 347 858 201 1037 201 c 3
EndSplineSet
EndChar

StartChar: A
Encoding: 34 65 36
Width: 1477
VWidth: 3198
Flags: W
HStem: 0 106<-12 119 244 406 956 1123 1349 1496> 436 104<409 959> 1251 242<532 939>
DStem2: 119 106 244 106 0.359295 0.933224<44.9118 397.788 509.215 1271.54> 818 1493 684 1251 0.357535 -0.9339<178.094 940.419 1051.49 1404.37>
LayerCount: 3
Fore
SplineSet
409 540 m 1,0,-1
 959 540 l 1,1,-1
 684 1251 l 1,2,-1
 409 540 l 1,0,-1
-12 0 m 1,3,-1
 -12 106 l 1,4,-1
 119 106 l 1,5,-1
 653 1493 l 1,6,-1
 818 1493 l 1,7,-1
 1349 106 l 1,8,-1
 1496 106 l 1,9,-1
 1496 0 l 1,10,-1
 956 0 l 1,11,-1
 956 106 l 1,12,-1
 1123 106 l 1,13,-1
 998 436 l 1,14,-1
 369 436 l 1,15,-1
 244 106 l 1,16,-1
 406 106 l 1,17,-1
 406 0 l 1,18,-1
 -12 0 l 1,3,-1
EndSplineSet
Layer: 2
SplineSet
409 540 m 1
 959 540 l 1
 684 1251 l 1
 409 540 l 1
-12 0 m 1
 -12 106 l 1
 119 106 l 1
 653 1493 l 1
 818 1493 l 1
 1349 106 l 1
 1496 106 l 1
 1496 0 l 1
 956 0 l 1
 956 106 l 1
 1123 106 l 1
 998 436 l 1
 369 436 l 1
 244 106 l 1
 406 106 l 1
 406 0 l 1
 -12 0 l 1
EndSplineSet
EndChar

StartChar: B
Encoding: 35 66 37
Width: 1502
VWidth: 3198
Flags: W
HStem: 0 106<112 305 506 1015.02> 754 106<506 972.315> 1385 108<112 305 506 972.315>
VStem: 305 201<106 754 860 1385> 1074 232<957.946 1285.51> 1151 228<234.461 621.997>
LayerCount: 3
Fore
SplineSet
506 106 m 1,0,-1
 806 106 l 2,1,2
 985 106 985 106 1068 184 c 128,-1,3
 1151 262 1151 262 1151 431 c 256,4,5
 1151 601 1151 601 1068 677.5 c 128,-1,6
 985 754 985 754 806 754 c 2,7,-1
 506 754 l 1,8,-1
 506 106 l 1,0,-1
506 860 m 1,9,-1
 757 860 l 2,10,11
 925 860 925 860 999.5 922.5 c 128,-1,12
 1074 985 1074 985 1074 1123 c 256,13,14
 1074 1260 1074 1260 999.5 1322.5 c 128,-1,15
 925 1385 925 1385 757 1385 c 2,16,-1
 506 1385 l 1,17,-1
 506 860 l 1,9,-1
112 0 m 1,18,-1
 112 106 l 1,19,-1
 305 106 l 1,20,-1
 305 1385 l 1,21,-1
 112 1385 l 1,22,-1
 112 1493 l 1,23,-1
 851 1493 l 2,24,25
 1074 1493 1074 1493 1190 1401 c 128,-1,26
 1306 1309 1306 1309 1306 1123 c 0,27,28
 1306 992 1306 992 1225.5 911.5 c 128,-1,29
 1145 831 1145 831 992 815 c 1,30,31
 1184 790 1184 790 1281.5 692.5 c 128,-1,32
 1379 595 1379 595 1379 431 c 0,33,34
 1379 211 1379 211 1240 105.5 c 128,-1,35
 1101 0 1101 0 803 0 c 2,36,-1
 112 0 l 1,18,-1
EndSplineSet
Layer: 2
SplineSet
1151 431 m 259xf4
 1151 663 1040 754 806 754 c 2
 506 754 l 1
 506 106 l 1
 806 106 l 2
 1040 106 1151 200 1151 431 c 259xf4
1074 1123 m 259xf8
 1074 1320 965 1385 757 1385 c 2
 506 1385 l 1
 506 860 l 1
 757 860 l 2
 965 860 1074 925 1074 1123 c 259xf8
1379 431 m 3xf4
 1379 103 1156 0 803 0 c 2
 112 0 l 1
 112 106 l 1
 305 106 l 1
 305 1385 l 1
 112 1385 l 1
 112 1493 l 1
 851 1493 l 2
 1127 1493 1306 1388 1306 1123 c 3xf8
 1306 931 1176 834 992 815 c 1
 1221 785 1379 674 1379 431 c 3xf4
EndSplineSet
EndChar

StartChar: C
Encoding: 36 67 38
Width: 1566
VWidth: 3198
Flags: W
HStem: -28 105<613.53 1040.44> 1413 107<622.099 1067.88>
VStem: 116 229<462.373 1023.31> 1260 183<214 397> 1288 113<1046 1187.93>
LayerCount: 3
Fore
SplineSet
1443 397 m 1,0,1
 1379 186 1379 186 1222 79 c 128,-1,2
 1065 -28 1065 -28 828 -28 c 0,3,4
 681 -28 681 -28 556 21 c 128,-1,5
 431 70 431 70 336 166 c 0,6,7
 223 281 223 281 169.5 423 c 128,-1,8
 116 565 116 565 116 745 c 0,9,10
 116 1093 116 1093 315.5 1306.5 c 128,-1,11
 515 1520 515 1520 845 1520 c 0,12,13
 970 1520 970 1520 1106 1488 c 128,-1,14
 1242 1456 1242 1456 1401 1391 c 1,15,-1
 1401 1046 l 1,16,-1
 1288 1046 l 1,17,18
 1254 1235 1254 1235 1141.5 1324 c 128,-1,19
 1029 1413 1029 1413 828 1413 c 0,20,21
 589 1413 589 1413 467 1242 c 128,-1,22
 345 1071 345 1071 345 745 c 256,23,24
 345 419 345 419 467 248 c 128,-1,25
 589 77 589 77 828 77 c 0,26,27
 995 77 995 77 1103.5 157 c 128,-1,28
 1212 237 1212 237 1260 397 c 1,29,-1
 1443 397 l 1,0,1
EndSplineSet
Layer: 2
SplineSet
845 1520 m 3xf0
 1058 1520 1226 1462 1401 1391 c 1
 1401 1046 l 1
 1288 1046 l 1xe8
 1244 1288 1107 1413 828 1413 c 3
 472 1413 345 1128 345 745 c 259
 345 362 471 77 828 77 c 3
 1070 77 1201 201 1260 397 c 1
 1443 397 l 1
 1363 132 1162 -28 828 -28 c 3
 379 -28 116 316 116 745 c 3
 116 1196 399 1520 845 1520 c 3xf0
EndSplineSet
EndChar

StartChar: D
Encoding: 37 68 39
Width: 1639
VWidth: 3198
Flags: W
HStem: 0 106<112 305 506 945.007> 1385 108<112 305 506 946.421>
VStem: 305 201<106 1385> 1292 231<463.113 1033.3>
LayerCount: 3
Fore
SplineSet
506 106 m 1,0,-1
 690 106 l 2,1,2
 982 106 982 106 1137 272.5 c 128,-1,3
 1292 439 1292 439 1292 748 c 256,4,5
 1292 1059 1292 1059 1137 1222 c 128,-1,6
 982 1385 982 1385 690 1385 c 2,7,-1
 506 1385 l 1,8,-1
 506 106 l 1,0,-1
112 0 m 1,9,-1
 112 106 l 1,10,-1
 305 106 l 1,11,-1
 305 1385 l 1,12,-1
 112 1385 l 1,13,-1
 112 1493 l 1,14,-1
 707 1493 l 2,15,16
 1093 1493 1093 1493 1308 1297 c 128,-1,17
 1523 1101 1523 1101 1523 748 c 256,18,19
 1523 397 1523 397 1306.5 198.5 c 128,-1,20
 1090 0 1090 0 707 0 c 2,21,-1
 112 0 l 1,9,-1
EndSplineSet
Layer: 2
SplineSet
1292 748 m 259
 1292 1152 1088 1385 690 1385 c 2
 506 1385 l 1
 506 106 l 1
 690 106 l 2
 1087 106 1292 346 1292 748 c 259
1523 748 m 259
 1523 265 1199 0 707 0 c 2
 112 0 l 1
 112 106 l 1
 305 106 l 1
 305 1385 l 1
 112 1385 l 1
 112 1493 l 1
 707 1493 l 2
 1203 1493 1523 1234 1523 748 c 259
EndSplineSet
EndChar

StartChar: E
Encoding: 38 69 40
Width: 1492
VWidth: 3198
Flags: W
HStem: 0 122<506 1209> 0 106<112 305> 748 122<506 995> 1370 123<506 1190> 1385 108<112 305>
VStem: 305 201<122 748 870 1370> 995 122<559 748 870 1056> 1190 125<1160 1370> 1209 122<122 333>
LayerCount: 3
Fore
SplineSet
112 0 m 1,0,-1
 112 106 l 1,1,-1
 305 106 l 1,2,-1
 305 1385 l 1,3,-1
 112 1385 l 1,4,-1
 112 1493 l 1,5,-1
 1315 1493 l 1,6,-1
 1315 1160 l 1,7,-1
 1190 1160 l 1,8,-1
 1190 1370 l 1,9,-1
 506 1370 l 1,10,-1
 506 870 l 1,11,-1
 995 870 l 1,12,-1
 995 1056 l 1,13,-1
 1117 1056 l 1,14,-1
 1117 559 l 1,15,-1
 995 559 l 1,16,-1
 995 748 l 1,17,-1
 506 748 l 1,18,-1
 506 122 l 1,19,-1
 1209 122 l 1,20,-1
 1209 333 l 1,21,-1
 1331 333 l 1,22,-1
 1331 0 l 1,23,-1
 112 0 l 1,0,-1
EndSplineSet
Layer: 2
SplineSet
112 0 m 1x6680
 112 106 l 1
 305 106 l 1
 305 1385 l 1
 112 1385 l 1
 112 1493 l 1
 1315 1493 l 1x6f
 1315 1160 l 1
 1190 1160 l 1
 1190 1370 l 1x37
 506 1370 l 1
 506 870 l 1
 995 870 l 1
 995 1056 l 1
 1117 1056 l 1
 1117 559 l 1
 995 559 l 1
 995 748 l 1
 506 748 l 1
 506 122 l 1
 1209 122 l 1xb680
 1209 333 l 1
 1331 333 l 1
 1331 0 l 1
 112 0 l 1x6680
EndSplineSet
EndChar

StartChar: F
Encoding: 39 70 41
Width: 1419
VWidth: 3198
Flags: W
HStem: 0 106<112 305 506 745> 748 122<506 1014> 1370 123<506 1212> 1385 108<112 305>
VStem: 305 201<106 748 870 1370> 1014 124<559 748 870 1056> 1212 122<1160 1370>
LayerCount: 3
Fore
SplineSet
112 0 m 1,0,-1
 112 106 l 1,1,-1
 305 106 l 1,2,-1
 305 1385 l 1,3,-1
 112 1385 l 1,4,-1
 112 1493 l 1,5,-1
 1334 1493 l 1,6,-1
 1334 1160 l 1,7,-1
 1212 1160 l 1,8,-1
 1212 1370 l 1,9,-1
 506 1370 l 1,10,-1
 506 870 l 1,11,-1
 1014 870 l 1,12,-1
 1014 1056 l 1,13,-1
 1138 1056 l 1,14,-1
 1138 559 l 1,15,-1
 1014 559 l 1,16,-1
 1014 748 l 1,17,-1
 506 748 l 1,18,-1
 506 106 l 1,19,-1
 745 106 l 1,20,-1
 745 0 l 1,21,-1
 112 0 l 1,0,-1
EndSplineSet
Layer: 2
SplineSet
112 0 m 1xee
 112 106 l 1
 305 106 l 1
 305 1385 l 1
 112 1385 l 1
 112 1493 l 1
 1334 1493 l 1xde
 1334 1160 l 1
 1212 1160 l 1
 1212 1370 l 1
 506 1370 l 1
 506 870 l 1
 1014 870 l 1
 1014 1056 l 1
 1138 1056 l 1
 1138 559 l 1
 1014 559 l 1
 1014 748 l 1
 506 748 l 1
 506 106 l 1
 745 106 l 1
 745 0 l 1
 112 0 l 1xee
EndSplineSet
EndChar

StartChar: G
Encoding: 40 71 42
Width: 1633
VWidth: 3198
Flags: W
HStem: -28 105<637.279 1122.73> 576 105<992 1270> 1413 107<627.291 1091.98>
VStem: 116 229<461.982 1031.03> 1270 204<166.961 576> 1312 111<1046 1187.53>
LayerCount: 3
Fore
SplineSet
1312 1046 m 1,0,1
 1276 1235 1276 1235 1166 1324 c 128,-1,2
 1056 1413 1056 1413 857 1413 c 0,3,4
 598 1413 598 1413 471.5 1247 c 128,-1,5
 345 1081 345 1081 345 745 c 0,6,7
 345 415 345 415 474.5 246 c 128,-1,8
 604 77 604 77 860 77 c 0,9,10
 973 77 973 77 1077 105.5 c 128,-1,11
 1181 134 1181 134 1270 192 c 1,12,-1
 1270 576 l 1,13,-1
 992 576 l 1,14,-1
 992 681 l 1,15,-1
 1474 681 l 1,16,-1
 1474 125 l 1,17,18
 1340 48 1340 48 1187 10 c 128,-1,19
 1034 -28 1034 -28 860 -28 c 0,20,21
 522 -28 522 -28 319 183 c 128,-1,22
 116 394 116 394 116 745 c 0,23,24
 116 1101 116 1101 319 1310.5 c 128,-1,25
 522 1520 522 1520 867 1520 c 0,26,27
 995 1520 995 1520 1132.5 1489.5 c 128,-1,28
 1270 1459 1270 1459 1423 1401 c 1,29,-1
 1423 1046 l 1,30,-1
 1312 1046 l 1,0,1
EndSplineSet
Layer: 2
SplineSet
867 1520 m 3xf8
 1077 1520 1251 1466 1423 1401 c 1
 1423 1046 l 1
 1312 1046 l 1xf4
 1266 1287 1135 1413 857 1413 c 3
 477 1413 345 1149 345 745 c 3
 345 347 485 77 860 77 c 3
 1027 77 1163 122 1270 192 c 1
 1270 576 l 1
 992 576 l 1
 992 681 l 1
 1474 681 l 1
 1474 125 l 1
 1308 30 1110 -28 860 -28 c 3
 405 -28 116 286 116 745 c 3
 116 1212 403 1520 867 1520 c 3xf8
EndSplineSet
EndChar

StartChar: H
Encoding: 41 72 43
Width: 1783
VWidth: 3198
Flags: W
HStem: 0 106<112 305 506 697 1087 1279 1480 1673> 748 122<506 1279> 1385 108<112 305 506 697 1087 1279 1480 1673>
VStem: 305 201<106 748 870 1385> 1279 201<106 748 870 1385>
LayerCount: 3
Fore
SplineSet
112 0 m 1,0,-1
 112 106 l 1,1,-1
 305 106 l 1,2,-1
 305 1385 l 1,3,-1
 112 1385 l 1,4,-1
 112 1493 l 1,5,-1
 697 1493 l 1,6,-1
 697 1385 l 1,7,-1
 506 1385 l 1,8,-1
 506 870 l 1,9,-1
 1279 870 l 1,10,-1
 1279 1385 l 1,11,-1
 1087 1385 l 1,12,-1
 1087 1493 l 1,13,-1
 1673 1493 l 1,14,-1
 1673 1385 l 1,15,-1
 1480 1385 l 1,16,-1
 1480 106 l 1,17,-1
 1673 106 l 1,18,-1
 1673 0 l 1,19,-1
 1087 0 l 1,20,-1
 1087 106 l 1,21,-1
 1279 106 l 1,22,-1
 1279 748 l 1,23,-1
 506 748 l 1,24,-1
 506 106 l 1,25,-1
 697 106 l 1,26,-1
 697 0 l 1,27,-1
 112 0 l 1,0,-1
EndSplineSet
Layer: 2
SplineSet
112 0 m 1
 112 106 l 1
 305 106 l 1
 305 1385 l 1
 112 1385 l 1
 112 1493 l 1
 697 1493 l 1
 697 1385 l 1
 506 1385 l 1
 506 870 l 1
 1279 870 l 1
 1279 1385 l 1
 1087 1385 l 1
 1087 1493 l 1
 1673 1493 l 1
 1673 1385 l 1
 1480 1385 l 1
 1480 106 l 1
 1673 106 l 1
 1673 0 l 1
 1087 0 l 1
 1087 106 l 1
 1279 106 l 1
 1279 748 l 1
 506 748 l 1
 506 106 l 1
 697 106 l 1
 697 0 l 1
 112 0 l 1
EndSplineSet
EndChar

StartChar: I
Encoding: 42 73 44
Width: 808
VWidth: 3198
Flags: W
HStem: 0 106<112 305 506 697> 1385 108<112 305 506 697>
VStem: 305 201<106 1385>
LayerCount: 3
Fore
SplineSet
506 106 m 1,0,-1
 697 106 l 1,1,-1
 697 0 l 1,2,-1
 112 0 l 1,3,-1
 112 106 l 1,4,-1
 305 106 l 1,5,-1
 305 1385 l 1,6,-1
 112 1385 l 1,7,-1
 112 1493 l 1,8,-1
 697 1493 l 1,9,-1
 697 1385 l 1,10,-1
 506 1385 l 1,11,-1
 506 106 l 1,0,-1
EndSplineSet
Layer: 2
SplineSet
506 106 m 1
 697 106 l 1
 697 0 l 1
 112 0 l 1
 112 106 l 1
 305 106 l 1
 305 1385 l 1
 112 1385 l 1
 112 1493 l 1
 697 1493 l 1
 697 1385 l 1
 506 1385 l 1
 506 106 l 1
EndSplineSet
EndChar

StartChar: J
Encoding: 43 74 45
Width: 821
VWidth: 3198
Flags: W
HStem: -425 105<-4.93259 261.303> -358 236<-173 -58> 1385 108<103 333 537 726>
VStem: -173 115<-267.875 -122> 333 204<-226.841 1385>
LayerCount: 3
Fore
SplineSet
-173 -358 m 1,0,-1
 -173 -122 l 1,1,-1
 -58 -122 l 1,2,3
 -55 -220 -55 -220 -12 -270 c 128,-1,4
 31 -320 31 -320 122 -320 c 0,5,6
 241 -320 241 -320 287 -245 c 128,-1,7
 333 -170 333 -170 333 48 c 2,8,-1
 333 1385 l 1,9,-1
 103 1385 l 1,10,-1
 103 1493 l 1,11,-1
 726 1493 l 1,12,-1
 726 1385 l 1,13,-1
 537 1385 l 1,14,-1
 537 42 l 2,15,16
 537 -208 537 -208 438 -316.5 c 128,-1,17
 339 -425 339 -425 119 -425 c 0,18,19
 48 -425 48 -425 -25 -407.5 c 128,-1,20
 -98 -390 -98 -390 -173 -358 c 1,0,-1
EndSplineSet
Layer: 2
SplineSet
119 -425 m 3xb8
 7 -425 -87 -395 -173 -358 c 1
 -173 -122 l 1
 -58 -122 l 1x78
 -54 -247 -4 -320 122 -320 c 3
 317 -320 333 -185 333 48 c 2
 333 1385 l 1
 103 1385 l 1
 103 1493 l 1
 726 1493 l 1
 726 1385 l 1
 537 1385 l 1
 537 42 l 2
 537 -276 427 -425 119 -425 c 3xb8
EndSplineSet
EndChar

StartChar: K
Encoding: 44 75 46
Width: 1527
VWidth: 3198
Flags: W
HStem: 0 106<112 305 506 697 1391 1560> 1385 108<112 305 506 697 985 1148 1315 1480>
VStem: 305 201<106 707 821 1385>
DStem2: 506 821 675 821 0.75127 0.659995<126.965 854.553> 675 821 506 707 0.707601 -0.706612<0 962.233>
LayerCount: 3
Fore
SplineSet
112 0 m 1,0,-1
 112 106 l 1,1,-1
 305 106 l 1,2,-1
 305 1385 l 1,3,-1
 112 1385 l 1,4,-1
 112 1493 l 1,5,-1
 697 1493 l 1,6,-1
 697 1385 l 1,7,-1
 506 1385 l 1,8,-1
 506 821 l 1,9,-1
 1148 1385 l 1,10,-1
 985 1385 l 1,11,-1
 985 1493 l 1,12,-1
 1480 1493 l 1,13,-1
 1480 1385 l 1,14,-1
 1315 1385 l 1,15,-1
 675 821 l 1,16,-1
 1391 106 l 1,17,-1
 1560 106 l 1,18,-1
 1560 0 l 1,19,-1
 1215 0 l 1,20,-1
 506 707 l 1,21,-1
 506 106 l 1,22,-1
 697 106 l 1,23,-1
 697 0 l 1,24,-1
 112 0 l 1,0,-1
EndSplineSet
Layer: 2
SplineSet
112 0 m 1
 112 106 l 1
 305 106 l 1
 305 1385 l 1
 112 1385 l 1
 112 1493 l 1
 697 1493 l 1
 697 1385 l 1
 506 1385 l 1
 506 821 l 1
 1148 1385 l 1
 985 1385 l 1
 985 1493 l 1
 1480 1493 l 1
 1480 1385 l 1
 1315 1385 l 1
 675 821 l 1
 1391 106 l 1
 1560 106 l 1
 1560 0 l 1
 1215 0 l 1
 506 707 l 1
 506 106 l 1
 697 106 l 1
 697 0 l 1
 112 0 l 1
EndSplineSet
EndChar

StartChar: L
Encoding: 45 76 47
Width: 1358
VWidth: 3198
Flags: W
HStem: 0 122<506 1187> 0 106<112 305> 1385 108<112 305 506 697>
VStem: 305 201<122 1385> 1187 125<122 372>
LayerCount: 3
Fore
SplineSet
112 0 m 1,0,-1
 112 106 l 1,1,-1
 305 106 l 1,2,-1
 305 1385 l 1,3,-1
 112 1385 l 1,4,-1
 112 1493 l 1,5,-1
 697 1493 l 1,6,-1
 697 1385 l 1,7,-1
 506 1385 l 1,8,-1
 506 122 l 1,9,-1
 1187 122 l 1,10,-1
 1187 372 l 1,11,-1
 1312 372 l 1,12,-1
 1312 0 l 1,13,-1
 112 0 l 1,0,-1
EndSplineSet
Layer: 2
SplineSet
112 0 m 1x78
 112 106 l 1
 305 106 l 1x78
 305 1385 l 1
 112 1385 l 1
 112 1493 l 1
 697 1493 l 1
 697 1385 l 1
 506 1385 l 1
 506 122 l 1
 1187 122 l 1xb8
 1187 372 l 1
 1312 372 l 1
 1312 0 l 1
 112 0 l 1x78
EndSplineSet
EndChar

StartChar: M
Encoding: 46 77 48
Width: 2094
VWidth: 3198
Flags: W
HStem: 0 106<112 305 425 617 1401 1590 1794 1983> 1385 108<103 305 1794 1993>
VStem: 305 120<106 1260> 1590 204<106 1260>
DStem2: 537 1493 425 1260 0.442153 -0.89694<159.466 1187.37> 1062 428 1078 217 0.440117 0.89794<0 979.468>
LayerCount: 3
Fore
SplineSet
112 0 m 1,0,-1
 112 106 l 1,1,-1
 305 106 l 1,2,-1
 305 1385 l 1,3,-1
 103 1385 l 1,4,-1
 103 1493 l 1,5,-1
 537 1493 l 1,6,-1
 1062 428 l 1,7,-1
 1584 1493 l 1,8,-1
 1993 1493 l 1,9,-1
 1993 1385 l 1,10,-1
 1794 1385 l 1,11,-1
 1794 106 l 1,12,-1
 1983 106 l 1,13,-1
 1983 0 l 1,14,-1
 1401 0 l 1,15,-1
 1401 106 l 1,16,-1
 1590 106 l 1,17,-1
 1590 1260 l 1,18,-1
 1078 217 l 1,19,-1
 937 217 l 1,20,-1
 425 1260 l 1,21,-1
 425 106 l 1,22,-1
 617 106 l 1,23,-1
 617 0 l 1,24,-1
 112 0 l 1,0,-1
EndSplineSet
Layer: 2
SplineSet
112 0 m 1
 112 106 l 1
 305 106 l 1
 305 1385 l 1
 103 1385 l 1
 103 1493 l 1
 537 1493 l 1
 1062 428 l 1
 1584 1493 l 1
 1993 1493 l 1
 1993 1385 l 1
 1794 1385 l 1
 1794 106 l 1
 1983 106 l 1
 1983 0 l 1
 1401 0 l 1
 1401 106 l 1
 1590 106 l 1
 1590 1260 l 1
 1078 217 l 1
 937 217 l 1
 425 1260 l 1
 425 106 l 1
 617 106 l 1
 617 0 l 1
 112 0 l 1
EndSplineSet
EndChar

StartChar: N
Encoding: 47 78 49
Width: 1789
VWidth: 3198
Flags: W
HStem: -28 21G<1363.75 1501> 0 106<98 301 422 623> 1385 108<98 301 1178 1379 1501 1702>
VStem: 301 121<106 1227> 1379 122<317 1385>
DStem2: 483 1493 422 1227 0.606368 -0.795184<174.531 1478.44>
LayerCount: 3
Fore
SplineSet
98 0 m 1,0,-1
 98 106 l 1,1,-1
 301 106 l 1,2,-1
 301 1385 l 1,3,-1
 98 1385 l 1,4,-1
 98 1493 l 1,5,-1
 483 1493 l 1,6,-1
 1379 317 l 1,7,-1
 1379 1385 l 1,8,-1
 1178 1385 l 1,9,-1
 1178 1493 l 1,10,-1
 1702 1493 l 1,11,-1
 1702 1385 l 1,12,-1
 1501 1385 l 1,13,-1
 1501 -28 l 1,14,-1
 1379 -28 l 1,15,-1
 422 1227 l 1,16,-1
 422 106 l 1,17,-1
 623 106 l 1,18,-1
 623 0 l 1,19,-1
 98 0 l 1,0,-1
EndSplineSet
Layer: 2
SplineSet
98 0 m 1
 98 106 l 1
 301 106 l 1
 301 1385 l 1
 98 1385 l 1
 98 1493 l 1
 483 1493 l 1
 1379 317 l 1
 1379 1385 l 1
 1178 1385 l 1
 1178 1493 l 1
 1702 1493 l 1
 1702 1385 l 1
 1501 1385 l 1
 1501 -28 l 1
 1379 -28 l 1
 422 1227 l 1
 422 106 l 1
 623 106 l 1
 623 0 l 1
 98 0 l 1
EndSplineSet
EndChar

StartChar: O
Encoding: 48 79 50
Width: 1678
VWidth: 3198
Flags: W
HStem: -28 105<622.804 1054.45> 1413 107<623.511 1054.98>
VStem: 116 229<458.808 1031.53> 1334 229<467.306 1033.39>
LayerCount: 3
Fore
SplineSet
839 77 m 0,0,1
 1084 77 1084 77 1209 246 c 128,-1,2
 1334 415 1334 415 1334 745 c 256,3,4
 1334 1074 1334 1074 1209 1243.5 c 128,-1,5
 1084 1413 1084 1413 839 1413 c 0,6,7
 595 1413 595 1413 470 1243.5 c 128,-1,8
 345 1074 345 1074 345 745 c 256,9,10
 345 415 345 415 470 246 c 128,-1,11
 595 77 595 77 839 77 c 0,0,1
839 -28 m 0,12,13
 687 -28 687 -28 559 21 c 128,-1,14
 431 70 431 70 336 166 c 0,15,16
 223 281 223 281 169.5 421.5 c 128,-1,17
 116 562 116 562 116 745 c 0,18,19
 116 925 116 925 169.5 1067 c 128,-1,20
 223 1209 223 1209 336 1321 c 0,21,22
 436 1420 436 1420 560 1470 c 128,-1,23
 684 1520 684 1520 839 1520 c 0,24,25
 1163 1520 1163 1520 1363 1306.5 c 128,-1,26
 1563 1093 1563 1093 1563 745 c 0,27,28
 1563 565 1563 565 1507.5 421.5 c 128,-1,29
 1452 278 1452 278 1343 166 c 0,30,31
 1245 70 1245 70 1118.5 21 c 128,-1,32
 992 -28 992 -28 839 -28 c 0,12,13
EndSplineSet
Layer: 2
SplineSet
345 745 m 259
 345 355 476 77 839 77 c 3
 1203 77 1334 355 1334 745 c 259
 1334 1135 1203 1413 839 1413 c 3
 476 1413 345 1134 345 745 c 259
839 -28 m 3
 394 -28 116 306 116 745 c 3
 116 1186 398 1520 839 1520 c 3
 1281 1520 1563 1194 1563 745 c 3
 1563 304 1278 -28 839 -28 c 3
EndSplineSet
EndChar

StartChar: P
Encoding: 49 80 51
Width: 1377
VWidth: 3198
Flags: W
HStem: 0 106<112 305 506 736> 653 104<506 943.458> 1385 108<112 305 506 944.459>
VStem: 305 201<106 653 757 1385> 1074 232<887.998 1255.82>
LayerCount: 3
Fore
SplineSet
506 757 m 1,0,-1
 771 757 l 2,1,2
 918 757 918 757 996 839 c 128,-1,3
 1074 921 1074 921 1074 1071 c 0,4,5
 1074 1224 1074 1224 996 1304.5 c 128,-1,6
 918 1385 918 1385 771 1385 c 2,7,-1
 506 1385 l 1,8,-1
 506 757 l 1,0,-1
112 0 m 1,9,-1
 112 106 l 1,10,-1
 305 106 l 1,11,-1
 305 1385 l 1,12,-1
 112 1385 l 1,13,-1
 112 1493 l 1,14,-1
 818 1493 l 2,15,16
 1043 1493 1043 1493 1174.5 1380 c 128,-1,17
 1306 1267 1306 1267 1306 1071 c 0,18,19
 1306 879 1306 879 1174.5 766 c 128,-1,20
 1043 653 1043 653 818 653 c 2,21,-1
 506 653 l 1,22,-1
 506 106 l 1,23,-1
 736 106 l 1,24,-1
 736 0 l 1,25,-1
 112 0 l 1,9,-1
EndSplineSet
Layer: 2
SplineSet
1074 1071 m 3
 1074 1272 970 1385 771 1385 c 2
 506 1385 l 1
 506 757 l 1
 771 757 l 2
 968 757 1074 873 1074 1071 c 3
1306 1071 m 3
 1306 800 1098 653 818 653 c 2
 506 653 l 1
 506 106 l 1
 736 106 l 1
 736 0 l 1
 112 0 l 1
 112 106 l 1
 305 106 l 1
 305 1385 l 1
 112 1385 l 1
 112 1493 l 1
 818 1493 l 2
 1101 1493 1306 1346 1306 1071 c 3
EndSplineSet
EndChar

StartChar: Q
Encoding: 50 81 52
Width: 1678
VWidth: 3198
Flags: W
HStem: -326 182<1138.37 1349> -28 105<623.784 886.824> 1413 107<623.511 1054.98>
VStem: 116 229<462.5 1030.7> 1334 229<455.091 1033.39>
LayerCount: 3
Fore
SplineSet
864 -28 m 1,0,1
 522 -28 522 -28 319 181 c 128,-1,2
 116 390 116 390 116 745 c 0,3,4
 116 925 116 925 169.5 1067 c 128,-1,5
 223 1209 223 1209 336 1321 c 0,6,7
 436 1420 436 1420 560 1470 c 128,-1,8
 684 1520 684 1520 839 1520 c 0,9,10
 1163 1520 1163 1520 1363 1306.5 c 128,-1,11
 1563 1093 1563 1093 1563 745 c 0,12,13
 1563 448 1563 448 1415 246.5 c 128,-1,14
 1267 45 1267 45 1001 -12 c 1,15,16
 1056 -80 1056 -80 1132.5 -112 c 128,-1,17
 1209 -144 1209 -144 1318 -144 c 2,18,-1
 1349 -144 l 1,19,-1
 1349 -326 l 1,20,21
 1181 -320 1181 -320 1060.5 -245 c 128,-1,22
 940 -170 940 -170 864 -28 c 1,0,1
839 77 m 0,23,24
 1084 77 1084 77 1209 246 c 128,-1,25
 1334 415 1334 415 1334 745 c 256,26,27
 1334 1074 1334 1074 1209 1243.5 c 128,-1,28
 1084 1413 1084 1413 839 1413 c 0,29,30
 595 1413 595 1413 470 1243.5 c 128,-1,31
 345 1074 345 1074 345 745 c 256,32,33
 345 415 345 415 470 246 c 128,-1,34
 595 77 595 77 839 77 c 0,23,24
EndSplineSet
Layer: 2
SplineSet
1349 -326 m 1
 1105 -317 957 -201 864 -28 c 1
 403 -28 116 280 116 745 c 3
 116 1182 398 1520 839 1520 c 3
 1281 1520 1563 1194 1563 745 c 3
 1563 337 1343 61 1001 -12 c 1
 1071 -99 1165 -144 1318 -144 c 2
 1349 -144 l 1
 1349 -326 l 1
345 745 m 259
 345 355 476 77 839 77 c 3
 1203 77 1334 355 1334 745 c 259
 1334 1135 1203 1413 839 1413 c 3
 476 1413 345 1134 345 745 c 259
EndSplineSet
EndChar

StartChar: R
Encoding: 51 82 53
Width: 1541
VWidth: 3198
Flags: W
HStem: 0 106<112 305 506 717 1407 1590> 693 107<506 886.968> 1385 108<112 305 506 979.466>
VStem: 305 201<106 693 800 1385> 1093 231<908.77 1277.94>
DStem2: 1190 550 1004 473 0.44342 -0.896314<-192.733 494.186>
LayerCount: 3
Fore
SplineSet
982 742 m 1,0,1
 1049 723 1049 723 1100 676 c 128,-1,2
 1151 629 1151 629 1190 550 c 2,3,-1
 1407 106 l 1,4,-1
 1590 106 l 1,5,-1
 1590 0 l 1,6,-1
 1238 0 l 1,7,-1
 1004 473 l 2,8,9
 937 611 937 611 882.5 652 c 128,-1,10
 828 693 828 693 729 693 c 2,11,-1
 506 693 l 1,12,-1
 506 106 l 1,13,-1
 717 106 l 1,14,-1
 717 0 l 1,15,-1
 112 0 l 1,16,-1
 112 106 l 1,17,-1
 305 106 l 1,18,-1
 305 1385 l 1,19,-1
 112 1385 l 1,20,-1
 112 1493 l 1,21,-1
 870 1493 l 2,22,23
 1087 1493 1087 1493 1205.5 1387.5 c 128,-1,24
 1324 1282 1324 1282 1324 1093 c 0,25,26
 1324 940 1324 940 1237.5 852 c 128,-1,27
 1151 764 1151 764 982 742 c 1,0,1
506 800 m 1,28,-1
 800 800 l 2,29,30
 953 800 953 800 1023 871.5 c 128,-1,31
 1093 943 1093 943 1093 1093 c 0,32,33
 1093 1242 1093 1242 1023 1313.5 c 128,-1,34
 953 1385 953 1385 800 1385 c 2,35,-1
 506 1385 l 1,36,-1
 506 800 l 1,28,-1
EndSplineSet
Layer: 2
SplineSet
1324 1093 m 3
 1324 871 1188 769 982 742 c 1
 1083 713 1144 644 1190 550 c 2
 1407 106 l 1
 1590 106 l 1
 1590 0 l 1
 1238 0 l 1
 1004 473 l 2
 933 618 901 693 729 693 c 2
 506 693 l 1
 506 106 l 1
 717 106 l 1
 717 0 l 1
 112 0 l 1
 112 106 l 1
 305 106 l 1
 305 1385 l 1
 112 1385 l 1
 112 1493 l 1
 870 1493 l 2
 1143 1493 1324 1358 1324 1093 c 3
1093 1093 m 3
 1093 1294 1002 1385 800 1385 c 2
 506 1385 l 1
 506 800 l 1
 800 800 l 2
 1003 800 1093 891 1093 1093 c 3
EndSplineSet
EndChar

StartChar: S
Encoding: 52 83 54
Width: 1400
VWidth: 3198
Flags: W
HStem: -28 105<465.167 916.779> 1413 107<480.332 915.476>
VStem: 173 196<1013.45 1309.33> 192 113<231.943 412> 1053 201<198.229 508.076> 1065 113<1113 1263.69>
DStem2: 690 873 559 690 0.962254 -0.272153<-284.47 393.889>
LayerCount: 3
Fore
SplineSet
192 70 m 1,0,-1
 192 412 l 1,1,-1
 305 412 l 1,2,3
 311 244 311 244 404.5 160.5 c 128,-1,4
 498 77 498 77 687 77 c 0,5,6
 867 77 867 77 960 147 c 128,-1,7
 1053 217 1053 217 1053 355 c 0,8,9
 1053 464 1053 464 996.5 520 c 128,-1,10
 940 576 940 576 757 634 c 2,11,-1
 559 690 l 2,12,13
 345 757 345 757 259 853.5 c 128,-1,14
 173 950 173 950 173 1120 c 0,15,16
 173 1312 173 1312 307.5 1416 c 128,-1,17
 442 1520 442 1520 684 1520 c 0,18,19
 790 1520 790 1520 913.5 1497 c 128,-1,20
 1037 1474 1037 1474 1178 1429 c 1,21,-1
 1178 1113 l 1,22,-1
 1065 1113 l 1,23,24
 1049 1270 1049 1270 959.5 1341.5 c 128,-1,25
 870 1413 870 1413 690 1413 c 0,26,27
 531 1413 531 1413 450 1347.5 c 128,-1,28
 369 1282 369 1282 369 1160 c 0,29,30
 369 1056 369 1056 430.5 993.5 c 128,-1,31
 492 931 492 931 690 873 c 2,32,-1
 876 815 l 2,33,34
 1078 754 1078 754 1166 659.5 c 128,-1,35
 1254 565 1254 565 1254 406 c 0,36,37
 1254 192 1254 192 1115 82 c 128,-1,38
 976 -28 976 -28 701 -28 c 0,39,40
 576 -28 576 -28 448 -4.5 c 128,-1,41
 320 19 320 19 192 70 c 1,0,-1
EndSplineSet
Layer: 2
SplineSet
701 -28 m 3xe8
 507 -28 342 10 192 70 c 1
 192 412 l 1
 305 412 l 1
 313 181 443 77 687 77 c 3
 903 77 1053 152 1053 355 c 3xd8
 1053 543 943 581 757 634 c 2
 559 690 l 2
 321 758 173 852 173 1120 c 3
 173 1399 391 1520 684 1520 c 3
 864 1520 1022 1479 1178 1429 c 1
 1178 1113 l 1
 1065 1113 l 1xe4
 1043 1326 927 1413 690 1413 c 3
 499 1413 369 1340 369 1160 c 3
 369 967 496 934 690 873 c 2
 876 815 l 2
 1098 746 1254 662 1254 406 c 3
 1254 93 1033 -28 701 -28 c 3xe8
EndSplineSet
EndChar

StartChar: T
Encoding: 53 84 55
Width: 1364
VWidth: 3198
Flags: W
HStem: 0 106<390 583 784 976> 1138 355<19 144 1221 1343> 1373 120<144 583 784 1221>
VStem: 19 125<1138 1373> 583 201<106 1373> 1221 122<1138 1373>
LayerCount: 3
Fore
SplineSet
390 0 m 1,0,-1
 390 106 l 1,1,-1
 583 106 l 1,2,-1
 583 1373 l 1,3,-1
 144 1373 l 1,4,-1
 144 1138 l 1,5,-1
 19 1138 l 1,6,-1
 19 1493 l 1,7,-1
 1343 1493 l 1,8,-1
 1343 1138 l 1,9,-1
 1221 1138 l 1,10,-1
 1221 1373 l 1,11,-1
 784 1373 l 1,12,-1
 784 106 l 1,13,-1
 976 106 l 1,14,-1
 976 0 l 1,15,-1
 390 0 l 1,0,-1
EndSplineSet
Layer: 2
SplineSet
390 0 m 1xbc
 390 106 l 1
 583 106 l 1
 583 1373 l 1
 144 1373 l 1xbc
 144 1138 l 1
 19 1138 l 1
 19 1493 l 1
 1343 1493 l 1
 1343 1138 l 1
 1221 1138 l 1xdc
 1221 1373 l 1
 784 1373 l 1
 784 106 l 1
 976 106 l 1
 976 0 l 1
 390 0 l 1xbc
EndSplineSet
EndChar

StartChar: U
Encoding: 54 85 56
Width: 1725
VWidth: 3198
Flags: W
HStem: -28 131<669.395 1140.36> 1385 108<95 287 489 678 1129 1321 1443 1635>
VStem: 287 202<297.387 1385> 1321 122<296.311 1385>
LayerCount: 3
Fore
SplineSet
287 1385 m 1,0,-1
 95 1385 l 1,1,-1
 95 1493 l 1,2,-1
 678 1493 l 1,3,-1
 678 1385 l 1,4,-1
 489 1385 l 1,5,-1
 489 614 l 2,6,7
 489 326 489 326 582 214.5 c 128,-1,8
 675 103 675 103 906 103 c 256,9,10
 1135 103 1135 103 1228 214.5 c 128,-1,11
 1321 326 1321 326 1321 614 c 2,12,-1
 1321 1385 l 1,13,-1
 1129 1385 l 1,14,-1
 1129 1493 l 1,15,-1
 1635 1493 l 1,16,-1
 1635 1385 l 1,17,-1
 1443 1385 l 1,18,-1
 1443 595 l 2,19,20
 1443 253 1443 253 1312 112.5 c 128,-1,21
 1181 -28 1181 -28 867 -28 c 256,22,23
 553 -28 553 -28 420 114 c 128,-1,24
 287 256 287 256 287 595 c 2,25,-1
 287 1385 l 1,0,-1
EndSplineSet
Layer: 2
SplineSet
867 -28 m 259
 435 -28 287 155 287 595 c 2
 287 1385 l 1
 95 1385 l 1
 95 1493 l 1
 678 1493 l 1
 678 1385 l 1
 489 1385 l 1
 489 614 l 2
 489 258 571 103 906 103 c 259
 1239 103 1321 259 1321 614 c 2
 1321 1385 l 1
 1129 1385 l 1
 1129 1493 l 1
 1635 1493 l 1
 1635 1385 l 1
 1443 1385 l 1
 1443 595 l 2
 1443 152 1301 -28 867 -28 c 259
EndSplineSet
EndChar

StartChar: V
Encoding: 55 86 57
Width: 1477
VWidth: 3198
Flags: W
HStem: 0 21G<651.332 838.668> 1385 108<-19 128 358 525 1071 1238 1362 1510>
DStem2: 358 1385 128 1385 0.357985 -0.933727<0 1226.41> 800 241 831 0 0.357985 0.933727<0 1224.98>
LayerCount: 3
Fore
SplineSet
358 1385 m 1,0,-1
 800 241 l 1,1,-1
 1238 1385 l 1,2,-1
 1071 1385 l 1,3,-1
 1071 1493 l 1,4,-1
 1510 1493 l 1,5,-1
 1510 1385 l 1,6,-1
 1362 1385 l 1,7,-1
 831 0 l 1,8,-1
 659 0 l 1,9,-1
 128 1385 l 1,10,-1
 -19 1385 l 1,11,-1
 -19 1493 l 1,12,-1
 525 1493 l 1,13,-1
 525 1385 l 1,14,-1
 358 1385 l 1,0,-1
EndSplineSet
Layer: 2
SplineSet
358 1385 m 1
 800 241 l 1
 1238 1385 l 1
 1071 1385 l 1
 1071 1493 l 1
 1510 1493 l 1
 1510 1385 l 1
 1362 1385 l 1
 831 0 l 1
 659 0 l 1
 128 1385 l 1
 -19 1385 l 1
 -19 1493 l 1
 525 1493 l 1
 525 1385 l 1
 358 1385 l 1
EndSplineSet
EndChar

StartChar: W
Encoding: 56 87 58
Width: 2103
VWidth: 3198
Flags: W
HStem: 0 21G<544.31 719.63 1389.42 1565.65> 1385 108<9 156 369 553 1669 1840 1951 2097>
DStem2: 369 1385 156 1385 0.27362 -0.961838<0 1146.42> 678 281 714 0 0.270952 0.962593<0 1001.48> 1181 1493 1056 1215 0.271292 -0.962497<233.663 1271.69> 1526 269 1560 0 0.271691 0.962384<0 1159.33>
LayerCount: 3
Fore
SplineSet
1560 0 m 1,0,-1
 1395 0 l 1,1,-1
 1056 1215 l 1,2,-1
 714 0 l 1,3,-1
 550 0 l 1,4,-1
 156 1385 l 1,5,-1
 9 1385 l 1,6,-1
 9 1493 l 1,7,-1
 553 1493 l 1,8,-1
 553 1385 l 1,9,-1
 369 1385 l 1,10,-1
 678 281 l 1,11,-1
 1020 1493 l 1,12,-1
 1181 1493 l 1,13,-1
 1526 269 l 1,14,-1
 1840 1385 l 1,15,-1
 1669 1385 l 1,16,-1
 1669 1493 l 1,17,-1
 2097 1493 l 1,18,-1
 2097 1385 l 1,19,-1
 1951 1385 l 1,20,-1
 1560 0 l 1,0,-1
EndSplineSet
Layer: 2
SplineSet
1560 0 m 1
 1395 0 l 1
 1056 1215 l 1
 714 0 l 1
 550 0 l 1
 156 1385 l 1
 9 1385 l 1
 9 1493 l 1
 553 1493 l 1
 553 1385 l 1
 369 1385 l 1
 678 281 l 1
 1020 1493 l 1
 1181 1493 l 1
 1526 269 l 1
 1840 1385 l 1
 1669 1385 l 1
 1669 1493 l 1
 2097 1493 l 1
 2097 1385 l 1
 1951 1385 l 1
 1560 0 l 1
EndSplineSet
EndChar

StartChar: X
Encoding: 57 88 59
Width: 1457
VWidth: 3198
Flags: W
HStem: 0 106<12 186 314 506 857 1034 1288 1446> 1385 108<19 180 436 611 889 1084 1212 1379>
DStem2: 436 1385 180 1385 0.5553 -0.83165<0 574.946 753.962 1395.75> 186 106 314 106 0.574621 0.818419<73.5515 719.75 981.12 1562.77>
LayerCount: 3
Fore
SplineSet
678 640 m 1,0,-1
 314 106 l 1,1,-1
 506 106 l 1,2,-1
 506 0 l 1,3,-1
 12 0 l 1,4,-1
 12 106 l 1,5,-1
 186 106 l 1,6,-1
 614 732 l 1,7,-1
 180 1385 l 1,8,-1
 19 1385 l 1,9,-1
 19 1493 l 1,10,-1
 611 1493 l 1,11,-1
 611 1385 l 1,12,-1
 436 1385 l 1,13,-1
 754 906 l 1,14,-1
 1084 1385 l 1,15,-1
 889 1385 l 1,16,-1
 889 1493 l 1,17,-1
 1379 1493 l 1,18,-1
 1379 1385 l 1,19,-1
 1212 1385 l 1,20,-1
 815 809 l 1,21,-1
 1288 106 l 1,22,-1
 1446 106 l 1,23,-1
 1446 0 l 1,24,-1
 857 0 l 1,25,-1
 857 106 l 1,26,-1
 1034 106 l 1,27,-1
 678 640 l 1,0,-1
EndSplineSet
Layer: 2
SplineSet
678 640 m 1
 314 106 l 1
 506 106 l 1
 506 0 l 1
 12 0 l 1
 12 106 l 1
 186 106 l 1
 614 732 l 1
 180 1385 l 1
 19 1385 l 1
 19 1493 l 1
 611 1493 l 1
 611 1385 l 1
 436 1385 l 1
 754 906 l 1
 1084 1385 l 1
 889 1385 l 1
 889 1493 l 1
 1379 1493 l 1
 1379 1385 l 1
 1212 1385 l 1
 815 809 l 1
 1288 106 l 1
 1446 106 l 1
 1446 0 l 1
 857 0 l 1
 857 106 l 1
 1034 106 l 1
 678 640 l 1
EndSplineSet
EndChar

StartChar: Y
Encoding: 58 89 60
Width: 1349
VWidth: 3198
Flags: W
HStem: 0 106<387 576 781 970> 1385 108<-22 116 358 531 934 1104 1227 1370>
VStem: 576 205<106 643>
DStem2: 358 1385 116 1385 0.526907 -0.849923<0 708.836> 729 781 781 662 0.525017 0.851092<0 710.941>
LayerCount: 3
Fore
SplineSet
387 0 m 1,0,-1
 387 106 l 1,1,-1
 576 106 l 1,2,-1
 576 643 l 1,3,-1
 116 1385 l 1,4,-1
 -22 1385 l 1,5,-1
 -22 1493 l 1,6,-1
 531 1493 l 1,7,-1
 531 1385 l 1,8,-1
 358 1385 l 1,9,-1
 729 781 l 1,10,-1
 1104 1385 l 1,11,-1
 934 1385 l 1,12,-1
 934 1493 l 1,13,-1
 1370 1493 l 1,14,-1
 1370 1385 l 1,15,-1
 1227 1385 l 1,16,-1
 781 662 l 1,17,-1
 781 106 l 1,18,-1
 970 106 l 1,19,-1
 970 0 l 1,20,-1
 387 0 l 1,0,-1
EndSplineSet
Layer: 2
SplineSet
387 0 m 1
 387 106 l 1
 576 106 l 1
 576 643 l 1
 116 1385 l 1
 -22 1385 l 1
 -22 1493 l 1
 531 1493 l 1
 531 1385 l 1
 358 1385 l 1
 729 781 l 1
 1104 1385 l 1
 934 1385 l 1
 934 1493 l 1
 1370 1493 l 1
 1370 1385 l 1
 1227 1385 l 1
 781 662 l 1
 781 106 l 1
 970 106 l 1
 970 0 l 1
 387 0 l 1
EndSplineSet
EndChar

StartChar: Z
Encoding: 59 90 61
Width: 1422
VWidth: 3198
Flags: W
HStem: 0 122<378 1218> 1370 123<250 1020>
VStem: 128 122<1145 1370> 1218 125<122 333>
DStem2: 92 70 378 122 0.581001 0.813903<208.489 1597.24>
LayerCount: 3
Fore
SplineSet
92 0 m 1,0,-1
 92 70 l 1,1,-1
 1020 1370 l 1,2,-1
 250 1370 l 1,3,-1
 250 1145 l 1,4,-1
 128 1145 l 1,5,-1
 128 1493 l 1,6,-1
 1306 1493 l 1,7,-1
 1306 1420 l 1,8,-1
 378 122 l 1,9,-1
 1218 122 l 1,10,-1
 1218 333 l 1,11,-1
 1343 333 l 1,12,-1
 1343 0 l 1,13,-1
 92 0 l 1,0,-1
EndSplineSet
Layer: 2
SplineSet
92 0 m 1
 92 70 l 1
 1020 1370 l 1
 250 1370 l 1
 250 1145 l 1
 128 1145 l 1
 128 1493 l 1
 1306 1493 l 1
 1306 1420 l 1
 378 122 l 1
 1218 122 l 1
 1218 333 l 1
 1343 333 l 1
 1343 0 l 1
 92 0 l 1
EndSplineSet
EndChar

StartChar: bracketleft
Encoding: 60 91 62
Width: 799
VWidth: 3198
Flags: W
HStem: -269 107<369 640> 1449 105<369 640>
VStem: 176 193<-162 1449>
LayerCount: 3
Fore
SplineSet
176 1554 m 1,0,-1
 640 1554 l 1,1,-1
 640 1449 l 1,2,-1
 369 1449 l 1,3,-1
 369 -162 l 1,4,-1
 640 -162 l 1,5,-1
 640 -269 l 1,6,-1
 176 -269 l 1,7,-1
 176 1554 l 1,0,-1
EndSplineSet
Layer: 2
SplineSet
176 1554 m 1
 640 1554 l 1
 640 1449 l 1
 369 1449 l 1
 369 -162 l 1
 640 -162 l 1
 640 -269 l 1
 176 -269 l 1
 176 1554 l 1
EndSplineSet
EndChar

StartChar: backslash
Encoding: 61 92 63
Width: 690
VWidth: 3198
Flags: W
HStem: 1473 20G<0 165.303>
VStem: 0 159<1334 1493> 531 159<-192 -33>
DStem2: 159 1493 0 1493 0.300562 -0.953762<0 1718.9>
LayerCount: 3
Fore
SplineSet
159 1493 m 1,0,-1
 690 -192 l 1,1,-1
 531 -192 l 1,2,-1
 0 1493 l 1,3,-1
 159 1493 l 1,0,-1
EndSplineSet
Layer: 2
SplineSet
159 1493 m 1
 690 -192 l 1
 531 -192 l 1
 0 1493 l 1
 159 1493 l 1
EndSplineSet
EndChar

StartChar: bracketright
Encoding: 62 93 64
Width: 799
VWidth: 3198
Flags: W
HStem: -269 107<156 431> 1449 105<156 431>
VStem: 431 192<-162 1449>
LayerCount: 3
Fore
SplineSet
623 1554 m 1,0,-1
 623 -269 l 1,1,-1
 156 -269 l 1,2,-1
 156 -162 l 1,3,-1
 431 -162 l 1,4,-1
 431 1449 l 1,5,-1
 156 1449 l 1,6,-1
 156 1554 l 1,7,-1
 623 1554 l 1,0,-1
EndSplineSet
Layer: 2
SplineSet
623 1554 m 1
 623 -269 l 1
 156 -269 l 1
 156 -162 l 1
 431 -162 l 1
 431 1449 l 1
 156 1449 l 1
 156 1554 l 1
 623 1554 l 1
EndSplineSet
EndChar

StartChar: asciicircum
Encoding: 63 94 65
Width: 1713
VWidth: 3198
Flags: W
HStem: 934 559
LayerCount: 3
Fore
SplineSet
956 1493 m 1,0,-1
 1496 934 l 1,1,-1
 1343 934 l 1,2,-1
 857 1318 l 1,3,-1
 372 934 l 1,4,-1
 217 934 l 1,5,-1
 757 1493 l 1,6,-1
 956 1493 l 1,0,-1
EndSplineSet
Layer: 2
SplineSet
956 1493 m 1
 1496 934 l 1
 1343 934 l 1
 857 1318 l 1
 372 934 l 1
 217 934 l 1
 757 1493 l 1
 956 1493 l 1
EndSplineSet
EndChar

StartChar: underscore
Encoding: 64 95 66
Width: 1022
VWidth: 3198
Flags: W
HStem: -483 80<0 1023>
LayerCount: 3
Fore
SplineSet
1023 -403 m 1,0,-1
 1023 -483 l 1,1,-1
 0 -483 l 1,2,-1
 0 -403 l 1,3,-1
 1023 -403 l 1,0,-1
EndSplineSet
Layer: 2
SplineSet
1023 -403 m 1
 1023 -483 l 1
 0 -483 l 1
 0 -403 l 1
 1023 -403 l 1
EndSplineSet
EndChar

StartChar: grave
Encoding: 65 96 67
Width: 1022
VWidth: 3198
Flags: W
HStem: 1260 375
VStem: 170 456
LayerCount: 3
Fore
SplineSet
369 1635 m 1,0,-1
 626 1260 l 1,1,-1
 509 1260 l 1,2,-1
 170 1635 l 1,3,-1
 369 1635 l 1,0,-1
EndSplineSet
Layer: 2
SplineSet
369 1635 m 1
 626 1260 l 1
 509 1260 l 1
 170 1635 l 1
 369 1635 l 1
EndSplineSet
EndChar

StartChar: a
Encoding: 66 97 68
Width: 1218
VWidth: 3198
Flags: W
HStem: -28 105<403.795 691.749> 0 106<998 1163> 559 106<397.514 815> 793 217<186 284.897> 992 98<366.7 708.007>
VStem: 103 205<172.206 475.017> 186 92<793 904.669> 815 183<106 116 179.315 559 665 878.697>
LayerCount: 3
Fore
SplineSet
815 333 m 2,0,-1
 815 559 l 1,1,-1
 576 559 l 2,2,3
 442 559 442 559 375 500.5 c 128,-1,4
 308 442 308 442 308 320 c 0,5,6
 308 208 308 208 375 142.5 c 128,-1,7
 442 77 442 77 559 77 c 0,8,9
 675 77 675 77 745 147 c 128,-1,10
 815 217 815 217 815 333 c 2,0,-1
998 662 m 2,11,-1
 998 106 l 1,12,-1
 1163 106 l 1,13,-1
 1163 0 l 1,14,-1
 815 0 l 1,15,-1
 815 116 l 1,16,17
 754 42 754 42 674.5 7 c 128,-1,18
 595 -28 595 -28 486 -28 c 0,19,20
 311 -28 311 -28 207 65.5 c 128,-1,21
 103 159 103 159 103 320 c 0,22,23
 103 483 103 483 221 574 c 128,-1,24
 339 665 339 665 556 665 c 2,25,-1
 815 665 l 1,26,-1
 815 739 l 2,27,28
 815 860 815 860 741.5 926 c 128,-1,29
 668 992 668 992 534 992 c 0,30,31
 425 992 425 992 359.5 942 c 128,-1,32
 294 892 294 892 278 793 c 1,33,-1
 186 793 l 1,34,-1
 186 1010 l 1,35,36
 281 1049 281 1049 371 1069.5 c 128,-1,37
 461 1090 461 1090 547 1090 c 0,38,39
 768 1090 768 1090 883 981.5 c 128,-1,40
 998 873 998 873 998 662 c 2,11,-1
EndSplineSet
Layer: 2
SplineSet
559 77 m 3xa5
 713 77 815 179 815 333 c 2
 815 559 l 1
 576 559 l 2
 404 559 308 489 308 320 c 3
 308 169 406 77 559 77 c 3xa5
547 1090 m 3x2b
 836 1090 998 948 998 662 c 2
 998 106 l 1
 1163 106 l 1
 1163 0 l 1
 815 0 l 1x6b
 815 116 l 1
 740 25 644 -28 486 -28 c 3
 261 -28 103 99 103 320 c 3
 103 561 299 665 556 665 c 2
 815 665 l 1
 815 739 l 2
 815 906 705 992 534 992 c 3xad
 386 992 299 922 278 793 c 1
 186 793 l 1
 186 1010 l 1x33
 295 1055 409 1090 547 1090 c 3x2b
EndSplineSet
Substitution2: "Single Substitution lookup 22 subtable" uni0E38
EndChar

StartChar: b
Encoding: 67 98 69
Width: 1310
VWidth: 3198
Flags: W
HStem: -28 114<559.214 855.414> 0 106<61 237> 976 114<559.214 855.632> 1449 105<61 237>
VStem: 61 358<0 106 1449 1554> 237 182<106 166 239.586 821.984 895 1449> 992 217<277.043 785.392>
LayerCount: 3
Fore
SplineSet
237 106 m 1,0,-1
 237 1449 l 1,1,-1
 61 1449 l 1,2,-1
 61 1554 l 1,3,-1
 419 1554 l 1,4,-1
 419 895 l 1,5,6
 473 998 473 998 556.5 1044 c 128,-1,7
 640 1090 640 1090 764 1090 c 0,8,9
 959 1090 959 1090 1084 935.5 c 128,-1,10
 1209 781 1209 781 1209 531 c 256,11,12
 1209 281 1209 281 1084 126.5 c 128,-1,13
 959 -28 959 -28 764 -28 c 0,14,15
 640 -28 640 -28 556.5 18 c 128,-1,16
 473 64 473 64 419 166 c 1,17,-1
 419 0 l 1,18,-1
 61 0 l 1,19,-1
 61 106 l 1,20,-1
 237 106 l 1,0,-1
419 479 m 2,21,22
 419 287 419 287 492 186.5 c 128,-1,23
 565 86 565 86 707 86 c 256,24,25
 848 86 848 86 920 198.5 c 128,-1,26
 992 311 992 311 992 531 c 0,27,28
 992 754 992 754 920 865 c 128,-1,29
 848 976 848 976 707 976 c 256,30,31
 565 976 565 976 492 875.5 c 128,-1,32
 419 775 419 775 419 583 c 2,33,-1
 419 479 l 2,21,22
EndSplineSet
Layer: 2
SplineSet
764 -28 m 3xb6
 583 -28 485 41 419 166 c 1xb6
 419 0 l 1
 61 0 l 1
 61 106 l 1x7a
 237 106 l 1
 237 1449 l 1x76
 61 1449 l 1
 61 1554 l 1
 419 1554 l 1x7a
 419 895 l 1
 485 1021 583 1090 764 1090 c 3
 1049 1090 1209 831 1209 531 c 259
 1209 231 1049 -28 764 -28 c 3xb6
707 976 m 259
 496 976 419 809 419 583 c 2
 419 479 l 2
 419 252 496 86 707 86 c 259
 927 86 992 286 992 531 c 3
 992 778 928 976 707 976 c 259
EndSplineSet
Substitution2: "Single Substitution lookup 22 subtable" uni0E39
EndChar

StartChar: c
Encoding: 68 99 70
Width: 1144
VWidth: 3198
Flags: W
HStem: -28 98<464.882 782.599> 992 98<464.529 792.539>
VStem: 103 214<281.733 780.921> 906 147<173 320> 912 105<726 863.024>
LayerCount: 3
Fore
SplineSet
1053 320 m 1,0,1
 1014 150 1014 150 903.5 61 c 128,-1,2
 793 -28 793 -28 617 -28 c 0,3,4
 384 -28 384 -28 243.5 125 c 128,-1,5
 103 278 103 278 103 531 c 0,6,7
 103 787 103 787 243.5 938.5 c 128,-1,8
 384 1090 384 1090 617 1090 c 0,9,10
 717 1090 717 1090 817.5 1066.5 c 128,-1,11
 918 1043 918 1043 1017 998 c 1,12,-1
 1017 726 l 1,13,-1
 912 726 l 1,14,15
 889 864 889 864 818.5 928 c 128,-1,16
 748 992 748 992 617 992 c 0,17,18
 470 992 470 992 393.5 876.5 c 128,-1,19
 317 761 317 761 317 531 c 256,20,21
 317 301 317 301 393.5 185.5 c 128,-1,22
 470 70 470 70 617 70 c 0,23,24
 736 70 736 70 807.5 132.5 c 128,-1,25
 879 195 879 195 906 320 c 1,26,-1
 1053 320 l 1,0,1
EndSplineSet
Layer: 2
SplineSet
617 70 m 3xe8
 791 70 873 169 906 320 c 1
 1053 320 l 1xf0
 1005 109 867 -28 617 -28 c 3
 298 -28 103 206 103 531 c 3
 103 859 296 1090 617 1090 c 3
 771 1090 902 1050 1017 998 c 1
 1017 726 l 1
 912 726 l 1
 884 896 806 992 617 992 c 3
 387 992 317 787 317 531 c 259
 317 275 387 70 617 70 c 3xe8
EndSplineSet
Substitution2: "Single Substitution lookup 22 subtable" uni0E3A
EndChar

StartChar: d
Encoding: 69 100 71
Width: 1310
VWidth: 3198
Flags: W
HStem: -28 114<455.237 750.245> 0 106<1074 1251> 976 114<454.801 750.245> 1449 105<717 889>
VStem: 103 214<270.846 791.807> 889 185<106 166 240.875 821.125 895 1449>
LayerCount: 3
Fore
SplineSet
1074 106 m 1,0,-1
 1251 106 l 1,1,-1
 1251 0 l 1,2,-1
 889 0 l 1,3,-1
 889 166 l 1,4,5
 839 64 839 64 753.5 18 c 128,-1,6
 668 -28 668 -28 547 -28 c 0,7,8
 348 -28 348 -28 225.5 126.5 c 128,-1,9
 103 281 103 281 103 531 c 256,10,11
 103 781 103 781 225.5 935.5 c 128,-1,12
 348 1090 348 1090 547 1090 c 0,13,14
 668 1090 668 1090 753.5 1044 c 128,-1,15
 839 998 839 998 889 895 c 1,16,-1
 889 1449 l 1,17,-1
 717 1449 l 1,18,-1
 717 1554 l 1,19,-1
 1074 1554 l 1,20,-1
 1074 106 l 1,0,-1
889 479 m 2,21,-1
 889 583 l 2,22,23
 889 775 889 775 815.5 875.5 c 128,-1,24
 742 976 742 976 604 976 c 0,25,26
 464 976 464 976 390.5 865 c 128,-1,27
 317 754 317 754 317 531 c 0,28,29
 317 311 317 311 390.5 198.5 c 128,-1,30
 464 86 464 86 604 86 c 0,31,32
 742 86 742 86 815.5 186.5 c 128,-1,33
 889 287 889 287 889 479 c 2,21,-1
EndSplineSet
Layer: 2
SplineSet
547 1090 m 3xbc
 724 1090 828 1021 889 895 c 1
 889 1449 l 1
 717 1449 l 1
 717 1554 l 1
 1074 1554 l 1
 1074 106 l 1
 1251 106 l 1
 1251 0 l 1
 889 0 l 1x7c
 889 166 l 1
 828 41 724 -28 547 -28 c 3
 259 -28 103 229 103 531 c 259
 103 833 259 1090 547 1090 c 3xbc
604 86 m 3xbc
 812 86 889 255 889 479 c 2
 889 583 l 2
 889 807 812 976 604 976 c 3
 383 976 317 778 317 531 c 3
 317 287 385 86 604 86 c 3xbc
EndSplineSet
EndChar

StartChar: e
Encoding: 70 101 72
Width: 1211
VWidth: 3198
Flags: W
HStem: -28 98<473.755 806.677> 512 105<317 892> 992 98<457.007 756.773>
VStem: 103 214<285.375 512 617 777.827> 892 218<617 776.875> 943 147<173 320>
LayerCount: 3
Fore
SplineSet
1110 512 m 1,0,-1
 317 512 l 1,1,-1
 317 503 l 2,2,3
 317 287 317 287 398 178.5 c 128,-1,4
 479 70 479 70 637 70 c 0,5,6
 757 70 757 70 834.5 132.5 c 128,-1,7
 912 195 912 195 943 320 c 1,8,-1
 1090 320 l 1,9,10
 1049 147 1049 147 929 59.5 c 128,-1,11
 809 -28 809 -28 617 -28 c 0,12,13
 384 -28 384 -28 243.5 125 c 128,-1,14
 103 278 103 278 103 531 c 256,15,16
 103 784 103 784 242 937 c 128,-1,17
 381 1090 381 1090 604 1090 c 0,18,19
 848 1090 848 1090 977.5 941.5 c 128,-1,20
 1107 793 1107 793 1110 512 c 1,0,-1
892 617 m 1,21,22
 885 806 885 806 813.5 899 c 128,-1,23
 742 992 742 992 604 992 c 0,24,25
 479 992 479 992 406 897.5 c 128,-1,26
 333 803 333 803 317 617 c 1,27,-1
 892 617 l 1,21,22
EndSplineSet
Layer: 2
SplineSet
103 531 m 259xf4
 103 850 293 1090 604 1090 c 3
 948 1090 1106 864 1110 512 c 1xf8
 317 512 l 1
 317 253 397 70 637 70 c 3
 814 70 906 170 943 320 c 1
 1090 320 l 1
 1038 99 884 -28 617 -28 c 3
 298 -28 103 206 103 531 c 259xf4
892 617 m 1
 884 836 813 992 604 992 c 3
 406 992 335 821 317 617 c 1
 892 617 l 1
EndSplineSet
EndChar

StartChar: f
Encoding: 71 102 73
Width: 757
VWidth: 3198
Flags: W
HStem: 0 106<73 250 436 668> 956 106<73 250 436 729> 1306 201<784 879> 1459 95<489.903 743.924>
VStem: 250 186<106 956 1062 1396.43> 784 95<1306 1420>
LayerCount: 3
Fore
SplineSet
879 1306 m 1,0,-1
 784 1306 l 1,1,2
 781 1379 781 1379 741 1419 c 128,-1,3
 701 1459 701 1459 620 1459 c 0,4,5
 518 1459 518 1459 477 1401 c 128,-1,6
 436 1343 436 1343 436 1199 c 2,7,-1
 436 1062 l 1,8,-1
 729 1062 l 1,9,-1
 729 956 l 1,10,-1
 436 956 l 1,11,-1
 436 106 l 1,12,-1
 668 106 l 1,13,-1
 668 0 l 1,14,-1
 73 0 l 1,15,-1
 73 106 l 1,16,-1
 250 106 l 1,17,-1
 250 956 l 1,18,-1
 73 956 l 1,19,-1
 73 1062 l 1,20,-1
 250 1062 l 1,21,-1
 250 1196 l 2,22,23
 250 1373 250 1373 343 1463.5 c 128,-1,24
 436 1554 436 1554 614 1554 c 0,25,26
 681 1554 681 1554 748 1543 c 128,-1,27
 815 1532 815 1532 879 1507 c 1,28,-1
 879 1306 l 1,0,-1
EndSplineSet
Layer: 2
SplineSet
614 1554 m 3xdc
 714 1554 802 1537 879 1507 c 1
 879 1306 l 1
 784 1306 l 1xec
 780 1406 726 1459 620 1459 c 3
 466 1459 436 1368 436 1199 c 2
 436 1062 l 1
 729 1062 l 1
 729 956 l 1
 436 956 l 1
 436 106 l 1
 668 106 l 1
 668 0 l 1
 73 0 l 1
 73 106 l 1
 250 106 l 1
 250 956 l 1
 73 956 l 1
 73 1062 l 1
 250 1062 l 1
 250 1196 l 2
 250 1432 377 1554 614 1554 c 3xdc
EndSplineSet
EndChar

StartChar: g
Encoding: 72 103 74
Width: 1310
VWidth: 3198
Flags: W
HStem: -454 99<391.732 759.081> -378 222<205 311.611> -28 114<455.237 750.245> 956 106<1074 1251> 976 114<454.801 750.245>
VStem: 103 214<270.846 791.807> 205 96<-267.983 -156> 889 185<-203.594 166 240.875 821.125 895 956>
LayerCount: 3
Fore
SplineSet
1074 956 m 1,0,-1
 1074 22 l 2,1,2
 1074 -208 1074 -208 947.5 -331 c 128,-1,3
 821 -454 821 -454 589 -454 c 0,4,5
 486 -454 486 -454 390 -436.5 c 128,-1,6
 294 -419 294 -419 205 -378 c 1,7,-1
 205 -156 l 1,8,-1
 301 -156 l 1,9,10
 320 -259 320 -259 385.5 -307 c 128,-1,11
 451 -355 451 -355 576 -355 c 0,12,13
 739 -355 739 -355 814 -264 c 128,-1,14
 889 -173 889 -173 889 22 c 2,15,-1
 889 166 l 1,16,17
 839 64 839 64 753.5 18 c 128,-1,18
 668 -28 668 -28 547 -28 c 0,19,20
 348 -28 348 -28 225.5 126.5 c 128,-1,21
 103 281 103 281 103 531 c 256,22,23
 103 781 103 781 225.5 935.5 c 128,-1,24
 348 1090 348 1090 547 1090 c 0,25,26
 668 1090 668 1090 753.5 1044 c 128,-1,27
 839 998 839 998 889 895 c 1,28,-1
 889 1062 l 1,29,-1
 1251 1062 l 1,30,-1
 1251 956 l 1,31,-1
 1074 956 l 1,0,-1
889 583 m 2,32,33
 889 775 889 775 815.5 875.5 c 128,-1,34
 742 976 742 976 604 976 c 0,35,36
 464 976 464 976 390.5 865 c 128,-1,37
 317 754 317 754 317 531 c 0,38,39
 317 311 317 311 390.5 198.5 c 128,-1,40
 464 86 464 86 604 86 c 0,41,42
 742 86 742 86 815.5 186.5 c 128,-1,43
 889 287 889 287 889 479 c 2,44,-1
 889 583 l 2,32,33
EndSplineSet
Layer: 2
SplineSet
547 1090 m 3xad
 724 1090 828 1021 889 895 c 1
 889 1062 l 1
 1251 1062 l 1
 1251 956 l 1
 1074 956 l 1
 1074 22 l 2
 1074 -285 897 -454 589 -454 c 3xb5
 438 -454 314 -428 205 -378 c 1
 205 -156 l 1
 301 -156 l 1x63
 327 -295 410 -355 576 -355 c 3
 808 -355 889 -221 889 22 c 2
 889 166 l 1
 828 41 724 -28 547 -28 c 3
 259 -28 103 229 103 531 c 259
 103 833 259 1090 547 1090 c 3xad
604 86 m 3
 812 86 889 255 889 479 c 2
 889 583 l 2
 889 807 812 976 604 976 c 3x2d
 383 976 317 778 317 531 c 3
 317 287 385 86 604 86 c 3
EndSplineSet
EndChar

StartChar: h
Encoding: 73 104 75
Width: 1316
VWidth: 3198
Flags: W
HStem: 0 106<83 250 436 595 754 912 1096 1260> 956 134<579.632 840.511> 1449 105<73 250>
VStem: 250 186<106 827.677 873 1449> 912 184<106 878.361>
LayerCount: 3
Fore
SplineSet
83 0 m 1,0,-1
 83 106 l 1,1,-1
 250 106 l 1,2,-1
 250 1449 l 1,3,-1
 73 1449 l 1,4,-1
 73 1554 l 1,5,-1
 436 1554 l 1,6,-1
 436 873 l 1,7,8
 486 982 486 982 566.5 1036 c 128,-1,9
 647 1090 647 1090 754 1090 c 0,10,11
 931 1090 931 1090 1013.5 989.5 c 128,-1,12
 1096 889 1096 889 1096 675 c 2,13,-1
 1096 106 l 1,14,-1
 1260 106 l 1,15,-1
 1260 0 l 1,16,-1
 754 0 l 1,17,-1
 754 106 l 1,18,-1
 912 106 l 1,19,-1
 912 617 l 2,20,21
 912 812 912 812 863.5 884 c 128,-1,22
 815 956 815 956 697 956 c 0,23,24
 565 956 565 956 500.5 863.5 c 128,-1,25
 436 771 436 771 436 592 c 2,26,-1
 436 106 l 1,27,-1
 595 106 l 1,28,-1
 595 0 l 1,29,-1
 83 0 l 1,0,-1
EndSplineSet
Layer: 2
SplineSet
697 956 m 3
 501 956 436 803 436 592 c 2
 436 106 l 1
 595 106 l 1
 595 0 l 1
 83 0 l 1
 83 106 l 1
 250 106 l 1
 250 1449 l 1
 73 1449 l 1
 73 1554 l 1
 436 1554 l 1
 436 873 l 1
 493 997 588 1090 754 1090 c 3
 1007 1090 1096 940 1096 675 c 2
 1096 106 l 1
 1260 106 l 1
 1260 0 l 1
 754 0 l 1
 754 106 l 1
 912 106 l 1
 912 617 l 2
 912 834 886 956 697 956 c 3
EndSplineSet
EndChar

StartChar: i
Encoding: 74 105 76
Width: 654
VWidth: 3198
Flags: W
HStem: 0 106<73 250 436 608> 956 106<73 250> 1279 228<222.761 399.555>
VStem: 198 227<1302.53 1482.55> 250 186<106 956>
LayerCount: 3
Fore
SplineSet
198 1391 m 256,0,1
 198 1440 198 1440 231.5 1473.5 c 128,-1,2
 265 1507 265 1507 314 1507 c 0,3,4
 358 1507 358 1507 391.5 1473.5 c 128,-1,5
 425 1440 425 1440 425 1391 c 256,6,7
 425 1343 425 1343 393 1311 c 128,-1,8
 361 1279 361 1279 314 1279 c 256,9,10
 265 1279 265 1279 231.5 1311 c 128,-1,11
 198 1343 198 1343 198 1391 c 256,0,1
436 106 m 1,12,-1
 608 106 l 1,13,-1
 608 0 l 1,14,-1
 73 0 l 1,15,-1
 73 106 l 1,16,-1
 250 106 l 1,17,-1
 250 956 l 1,18,-1
 73 956 l 1,19,-1
 73 1062 l 1,20,-1
 436 1062 l 1,21,-1
 436 106 l 1,12,-1
EndSplineSet
Layer: 2
SplineSet
314 1279 m 259xf0
 250 1279 198 1327 198 1391 c 259
 198 1456 249 1507 314 1507 c 3
 375 1507 425 1453 425 1391 c 259
 425 1328 377 1279 314 1279 c 259xf0
436 106 m 1xe8
 608 106 l 1
 608 0 l 1
 73 0 l 1
 73 106 l 1
 250 106 l 1
 250 956 l 1
 73 956 l 1
 73 1062 l 1
 436 1062 l 1
 436 106 l 1xe8
EndSplineSet
EndChar

StartChar: j
Encoding: 75 106 77
Width: 632
VWidth: 3198
Flags: W
HStem: -454 99<-48.6568 187.984> -390 220<-195 -96.6328> 956 106<77 250> 1279 228<229.377 405.555>
VStem: -195 92<-301.822 -170> 205 226<1302.23 1481.62> 250 186<-290.773 956>
LayerCount: 3
Fore
SplineSet
205 1391 m 256,0,1
 205 1440 205 1440 238.5 1473.5 c 128,-1,2
 272 1507 272 1507 320 1507 c 0,3,4
 364 1507 364 1507 397.5 1473.5 c 128,-1,5
 431 1440 431 1440 431 1391 c 256,6,7
 431 1343 431 1343 400 1311 c 128,-1,8
 369 1279 369 1279 320 1279 c 256,9,10
 272 1279 272 1279 238.5 1311 c 128,-1,11
 205 1343 205 1343 205 1391 c 256,0,1
250 956 m 1,12,-1
 77 956 l 1,13,-1
 77 1062 l 1,14,-1
 436 1062 l 1,15,-1
 436 -106 l 2,16,17
 436 -269 436 -269 338.5 -361.5 c 128,-1,18
 241 -454 241 -454 67 -454 c 0,19,20
 -3 -454 -3 -454 -68.5 -438 c 128,-1,21
 -134 -422 -134 -422 -195 -390 c 1,22,-1
 -195 -170 l 1,23,-1
 -103 -170 l 1,24,25
 -92 -265 -92 -265 -50.5 -310 c 128,-1,26
 -9 -355 -9 -355 70 -355 c 0,27,28
 162 -355 162 -355 206 -294.5 c 128,-1,29
 250 -234 250 -234 250 -106 c 2,30,-1
 250 956 l 1,12,-1
EndSplineSet
Layer: 2
SplineSet
320 1279 m 259x3c
 256 1279 205 1327 205 1391 c 259
 205 1455 256 1507 320 1507 c 3
 381 1507 431 1453 431 1391 c 259
 431 1327 384 1279 320 1279 c 259x3c
70 -355 m 3xba
 208 -355 250 -256 250 -106 c 2
 250 956 l 1
 77 956 l 1
 77 1062 l 1
 436 1062 l 1
 436 -106 l 2
 436 -328 293 -454 67 -454 c 3xba
 -38 -454 -122 -428 -195 -390 c 1
 -195 -170 l 1
 -103 -170 l 1x7a
 -90 -283 -47 -355 70 -355 c 3xba
EndSplineSet
EndChar

StartChar: k
Encoding: 76 107 78
Width: 1239
VWidth: 3198
Flags: W
HStem: 0 106<70 237 419 586 729 882 1101 1254> 956 106<714 867 1014 1196> 1449 105<61 237>
VStem: 237 182<106 406 543 1449>
DStem2: 419 543 419 406 0.73433 0.678793<0 107.212 284.92 609.321> 697 662 565 543 0.587826 -0.808988<18.6766 558.545>
LayerCount: 3
Fore
SplineSet
586 0 m 1,0,-1
 70 0 l 1,1,-1
 70 106 l 1,2,-1
 237 106 l 1,3,-1
 237 1449 l 1,4,-1
 61 1449 l 1,5,-1
 61 1554 l 1,6,-1
 419 1554 l 1,7,-1
 419 543 l 1,8,-1
 867 956 l 1,9,-1
 714 956 l 1,10,-1
 714 1062 l 1,11,-1
 1196 1062 l 1,12,-1
 1196 956 l 1,13,-1
 1014 956 l 1,14,-1
 697 662 l 1,15,-1
 1101 106 l 1,16,-1
 1254 106 l 1,17,-1
 1254 0 l 1,18,-1
 729 0 l 1,19,-1
 729 106 l 1,20,-1
 882 106 l 1,21,-1
 565 543 l 1,22,-1
 419 406 l 1,23,-1
 419 106 l 1,24,-1
 586 106 l 1,25,-1
 586 0 l 1,0,-1
EndSplineSet
Layer: 2
SplineSet
586 0 m 1
 70 0 l 1
 70 106 l 1
 237 106 l 1
 237 1449 l 1
 61 1449 l 1
 61 1554 l 1
 419 1554 l 1
 419 543 l 1
 867 956 l 1
 714 956 l 1
 714 1062 l 1
 1196 1062 l 1
 1196 956 l 1
 1014 956 l 1
 697 662 l 1
 1101 106 l 1
 1254 106 l 1
 1254 0 l 1
 729 0 l 1
 729 106 l 1
 882 106 l 1
 565 543 l 1
 419 406 l 1
 419 106 l 1
 586 106 l 1
 586 0 l 1
EndSplineSet
EndChar

StartChar: l
Encoding: 77 108 79
Width: 654
VWidth: 3198
Flags: W
HStem: 0 106<61 237 419 595> 1449 105<61 237>
VStem: 237 182<106 1449>
LayerCount: 3
Fore
SplineSet
419 106 m 1,0,-1
 595 106 l 1,1,-1
 595 0 l 1,2,-1
 61 0 l 1,3,-1
 61 106 l 1,4,-1
 237 106 l 1,5,-1
 237 1449 l 1,6,-1
 61 1449 l 1,7,-1
 61 1554 l 1,8,-1
 419 1554 l 1,9,-1
 419 106 l 1,0,-1
EndSplineSet
Layer: 2
SplineSet
419 106 m 1
 595 106 l 1
 595 0 l 1
 61 0 l 1
 61 106 l 1
 237 106 l 1
 237 1449 l 1
 61 1449 l 1
 61 1554 l 1
 419 1554 l 1
 419 106 l 1
EndSplineSet
EndChar

StartChar: m
Encoding: 78 109 80
Width: 1941
VWidth: 3198
Flags: W
HStem: 0 106<83 250 436 595 732 892 1078 1238 1376 1535 1721 1883> 956 134<579.249 821.678 1217.42 1462.52> 959 103<73 250>
VStem: 250 186<106 831.418 873 959> 892 186<106 831.418> 1535 186<106 880.533>
LayerCount: 3
Fore
SplineSet
1062 857 m 1,0,1
 1113 973 1113 973 1196 1031.5 c 128,-1,2
 1279 1090 1279 1090 1388 1090 c 0,3,4
 1554 1090 1554 1090 1637.5 986 c 128,-1,5
 1721 882 1721 882 1721 675 c 2,6,-1
 1721 106 l 1,7,-1
 1883 106 l 1,8,-1
 1883 0 l 1,9,-1
 1376 0 l 1,10,-1
 1376 106 l 1,11,-1
 1535 106 l 1,12,-1
 1535 656 l 2,13,14
 1535 815 1535 815 1487.5 885.5 c 128,-1,15
 1440 956 1440 956 1327 956 c 0,16,17
 1206 956 1206 956 1142 863.5 c 128,-1,18
 1078 771 1078 771 1078 592 c 2,19,-1
 1078 106 l 1,20,-1
 1238 106 l 1,21,-1
 1238 0 l 1,22,-1
 732 0 l 1,23,-1
 732 106 l 1,24,-1
 892 106 l 1,25,-1
 892 662 l 2,26,27
 892 821 892 821 844 888.5 c 128,-1,28
 796 956 796 956 684 956 c 0,29,30
 562 956 562 956 499 863.5 c 128,-1,31
 436 771 436 771 436 592 c 2,32,-1
 436 106 l 1,33,-1
 595 106 l 1,34,-1
 595 0 l 1,35,-1
 83 0 l 1,36,-1
 83 106 l 1,37,-1
 250 106 l 1,38,-1
 250 959 l 1,39,-1
 73 959 l 1,40,-1
 73 1062 l 1,41,-1
 436 1062 l 1,42,-1
 436 873 l 1,43,44
 486 982 486 982 564.5 1036 c 128,-1,45
 643 1090 643 1090 742 1090 c 0,46,47
 867 1090 867 1090 950.5 1030 c 128,-1,48
 1034 970 1034 970 1062 857 c 1,0,1
EndSplineSet
Layer: 2
SplineSet
742 1090 m 3xdc
 916 1090 1026 1000 1062 857 c 1
 1119 988 1217 1090 1388 1090 c 3
 1628 1090 1721 928 1721 675 c 2
 1721 106 l 1
 1883 106 l 1
 1883 0 l 1
 1376 0 l 1
 1376 106 l 1
 1535 106 l 1
 1535 656 l 2
 1535 842 1497 956 1327 956 c 3
 1141 956 1078 796 1078 592 c 2
 1078 106 l 1
 1238 106 l 1
 1238 0 l 1
 732 0 l 1
 732 106 l 1
 892 106 l 1
 892 662 l 2
 892 848 854 956 684 956 c 3xdc
 497 956 436 796 436 592 c 2
 436 106 l 1
 595 106 l 1
 595 0 l 1
 83 0 l 1
 83 106 l 1
 250 106 l 1
 250 959 l 1
 73 959 l 1
 73 1062 l 1
 436 1062 l 1xbc
 436 873 l 1
 491 994 584 1090 742 1090 c 3xdc
EndSplineSet
EndChar

StartChar: n
Encoding: 79 110 81
Width: 1316
VWidth: 3198
Flags: W
HStem: 0 106<83 250 436 595 754 912 1096 1260> 956 106<73 250> 959 131<579.632 840.511>
VStem: 250 186<106 828.898 873 956> 912 184<106 879.693>
LayerCount: 3
Fore
SplineSet
83 0 m 1,0,-1
 83 106 l 1,1,-1
 250 106 l 1,2,-1
 250 956 l 1,3,-1
 73 956 l 1,4,-1
 73 1062 l 1,5,-1
 436 1062 l 1,6,-1
 436 873 l 1,7,8
 486 982 486 982 566.5 1036 c 128,-1,9
 647 1090 647 1090 754 1090 c 0,10,11
 931 1090 931 1090 1013.5 989.5 c 128,-1,12
 1096 889 1096 889 1096 675 c 2,13,-1
 1096 106 l 1,14,-1
 1260 106 l 1,15,-1
 1260 0 l 1,16,-1
 754 0 l 1,17,-1
 754 106 l 1,18,-1
 912 106 l 1,19,-1
 912 617 l 2,20,21
 912 812 912 812 863.5 885.5 c 128,-1,22
 815 959 815 959 697 959 c 0,23,24
 565 959 565 959 500.5 865 c 128,-1,25
 436 771 436 771 436 592 c 2,26,-1
 436 106 l 1,27,-1
 595 106 l 1,28,-1
 595 0 l 1,29,-1
 83 0 l 1,0,-1
EndSplineSet
Layer: 2
SplineSet
697 959 m 3xb8
 501 959 436 803 436 592 c 2
 436 106 l 1
 595 106 l 1
 595 0 l 1
 83 0 l 1
 83 106 l 1
 250 106 l 1
 250 956 l 1
 73 956 l 1
 73 1062 l 1
 436 1062 l 1xd8
 436 873 l 1
 493 997 588 1090 754 1090 c 3
 1007 1090 1096 940 1096 675 c 2
 1096 106 l 1
 1260 106 l 1
 1260 0 l 1
 754 0 l 1
 754 106 l 1
 912 106 l 1
 912 617 l 2
 912 834 886 959 697 959 c 3xb8
EndSplineSet
EndChar

StartChar: o
Encoding: 80 111 82
Width: 1230
VWidth: 3198
Flags: W
HStem: -28 98<465.312 768.612> 992 98<464.958 768.966>
VStem: 103 214<282.396 780.258> 915 214<282.178 780.258>
LayerCount: 3
Fore
SplineSet
617 70 m 256,0,1
 764 70 764 70 839.5 187.5 c 128,-1,2
 915 305 915 305 915 531 c 256,3,4
 915 757 915 757 839.5 874.5 c 128,-1,5
 764 992 764 992 617 992 c 256,6,7
 470 992 470 992 393.5 874.5 c 128,-1,8
 317 757 317 757 317 531 c 256,9,10
 317 305 317 305 393.5 187.5 c 128,-1,11
 470 70 470 70 617 70 c 256,0,1
617 -28 m 256,12,13
 384 -28 384 -28 243.5 125 c 128,-1,14
 103 278 103 278 103 531 c 0,15,16
 103 787 103 787 243.5 938.5 c 128,-1,17
 384 1090 384 1090 617 1090 c 256,18,19
 851 1090 851 1090 990 938.5 c 128,-1,20
 1129 787 1129 787 1129 531 c 0,21,22
 1129 278 1129 278 990 125 c 128,-1,23
 851 -28 851 -28 617 -28 c 256,12,13
EndSplineSet
Layer: 2
SplineSet
317 531 m 259
 317 278 389 70 617 70 c 259
 845 70 915 278 915 531 c 259
 915 784 845 992 617 992 c 259
 389 992 317 784 317 531 c 259
1129 531 m 3
 1129 205 937 -28 617 -28 c 259
 298 -28 103 206 103 531 c 3
 103 859 296 1090 617 1090 c 259
 939 1090 1129 859 1129 531 c 3
EndSplineSet
EndChar

StartChar: p
Encoding: 81 112 83
Width: 1310
VWidth: 3198
Flags: W
HStem: -425 105<61 237 419 595> -28 114<559.214 855.414> 956 106<61 237> 976 114<559.214 855.632>
VStem: 237 182<-320 166 239.586 821.984 895 956> 992 217<277.043 785.392>
LayerCount: 3
Fore
SplineSet
419 583 m 2,0,-1
 419 479 l 2,1,2
 419 287 419 287 492 186.5 c 128,-1,3
 565 86 565 86 707 86 c 256,4,5
 848 86 848 86 920 198.5 c 128,-1,6
 992 311 992 311 992 531 c 0,7,8
 992 754 992 754 920 865 c 128,-1,9
 848 976 848 976 707 976 c 256,10,11
 565 976 565 976 492 875.5 c 128,-1,12
 419 775 419 775 419 583 c 2,0,-1
237 956 m 1,13,-1
 61 956 l 1,14,-1
 61 1062 l 1,15,-1
 419 1062 l 1,16,-1
 419 895 l 1,17,18
 473 998 473 998 556.5 1044 c 128,-1,19
 640 1090 640 1090 764 1090 c 0,20,21
 959 1090 959 1090 1084 935.5 c 128,-1,22
 1209 781 1209 781 1209 531 c 256,23,24
 1209 281 1209 281 1084 126.5 c 128,-1,25
 959 -28 959 -28 764 -28 c 0,26,27
 640 -28 640 -28 556.5 18 c 128,-1,28
 473 64 473 64 419 166 c 1,29,-1
 419 -320 l 1,30,-1
 595 -320 l 1,31,-1
 595 -425 l 1,32,-1
 61 -425 l 1,33,-1
 61 -320 l 1,34,-1
 237 -320 l 1,35,-1
 237 956 l 1,13,-1
EndSplineSet
Layer: 2
SplineSet
707 976 m 259xdc
 496 976 419 809 419 583 c 2
 419 479 l 2
 419 252 496 86 707 86 c 259
 927 86 992 286 992 531 c 3
 992 778 928 976 707 976 c 259xdc
764 -28 m 3
 583 -28 485 41 419 166 c 1
 419 -320 l 1
 595 -320 l 1
 595 -425 l 1
 61 -425 l 1
 61 -320 l 1
 237 -320 l 1
 237 956 l 1
 61 956 l 1
 61 1062 l 1
 419 1062 l 1xec
 419 895 l 1
 485 1021 583 1090 764 1090 c 3
 1049 1090 1209 831 1209 531 c 259
 1209 231 1049 -28 764 -28 c 3
EndSplineSet
EndChar

StartChar: q
Encoding: 82 113 84
Width: 1310
VWidth: 3198
Flags: W
HStem: -425 105<717 889 1074 1251> -28 114<455.237 750.245> 956 106<1074 1251> 976 114<454.801 750.245>
VStem: 103 214<270.846 791.807> 889 185<-320 166 240.875 821.125 895 956>
LayerCount: 3
Fore
SplineSet
1074 956 m 1,0,-1
 1074 -320 l 1,1,-1
 1251 -320 l 1,2,-1
 1251 -425 l 1,3,-1
 717 -425 l 1,4,-1
 717 -320 l 1,5,-1
 889 -320 l 1,6,-1
 889 166 l 1,7,8
 839 64 839 64 753.5 18 c 128,-1,9
 668 -28 668 -28 547 -28 c 0,10,11
 348 -28 348 -28 225.5 126.5 c 128,-1,12
 103 281 103 281 103 531 c 256,13,14
 103 781 103 781 225.5 935.5 c 128,-1,15
 348 1090 348 1090 547 1090 c 0,16,17
 668 1090 668 1090 753.5 1044 c 128,-1,18
 839 998 839 998 889 895 c 1,19,-1
 889 1062 l 1,20,-1
 1251 1062 l 1,21,-1
 1251 956 l 1,22,-1
 1074 956 l 1,0,-1
889 583 m 2,23,24
 889 775 889 775 815.5 875.5 c 128,-1,25
 742 976 742 976 604 976 c 0,26,27
 464 976 464 976 390.5 865 c 128,-1,28
 317 754 317 754 317 531 c 0,29,30
 317 311 317 311 390.5 198.5 c 128,-1,31
 464 86 464 86 604 86 c 0,32,33
 742 86 742 86 815.5 186.5 c 128,-1,34
 889 287 889 287 889 479 c 2,35,-1
 889 583 l 2,23,24
EndSplineSet
Layer: 2
SplineSet
547 1090 m 3xdc
 724 1090 828 1021 889 895 c 1
 889 1062 l 1
 1251 1062 l 1
 1251 956 l 1
 1074 956 l 1xec
 1074 -320 l 1
 1251 -320 l 1
 1251 -425 l 1
 717 -425 l 1
 717 -320 l 1
 889 -320 l 1
 889 166 l 1
 828 41 724 -28 547 -28 c 3
 259 -28 103 229 103 531 c 259
 103 833 259 1090 547 1090 c 3xdc
604 86 m 3
 812 86 889 255 889 479 c 2
 889 583 l 2
 889 807 812 976 604 976 c 3xdc
 383 976 317 778 317 531 c 3
 317 287 385 86 604 86 c 3
EndSplineSet
EndChar

StartChar: r
Encoding: 83 114 85
Width: 977
VWidth: 3198
Flags: W
HStem: 0 106<83 250 436 647> 956 134<585.337 832.677> 959 103<73 250>
VStem: 250 186<106 814.07 873 959> 873 106<800 915.875>
LayerCount: 3
Fore
SplineSet
979 1065 m 1,0,-1
 979 800 l 1,1,-1
 873 800 l 1,2,3
 867 879 867 879 828.5 917.5 c 128,-1,4
 790 956 790 956 714 956 c 0,5,6
 579 956 579 956 507.5 862 c 128,-1,7
 436 768 436 768 436 592 c 2,8,-1
 436 106 l 1,9,-1
 647 106 l 1,10,-1
 647 0 l 1,11,-1
 83 0 l 1,12,-1
 83 106 l 1,13,-1
 250 106 l 1,14,-1
 250 959 l 1,15,-1
 73 959 l 1,16,-1
 73 1062 l 1,17,-1
 436 1062 l 1,18,-1
 436 873 l 1,19,20
 486 985 486 985 571 1037.5 c 128,-1,21
 656 1090 656 1090 781 1090 c 0,22,23
 825 1090 825 1090 875 1084 c 128,-1,24
 925 1078 925 1078 979 1065 c 1,0,-1
EndSplineSet
Layer: 2
SplineSet
781 1090 m 3xd8
 851 1090 917 1080 979 1065 c 1
 979 800 l 1
 873 800 l 1
 865 901 820 956 714 956 c 3xd8
 516 956 436 803 436 592 c 2
 436 106 l 1
 647 106 l 1
 647 0 l 1
 83 0 l 1
 83 106 l 1
 250 106 l 1
 250 959 l 1
 73 959 l 1
 73 1062 l 1
 436 1062 l 1xb8
 436 873 l 1
 496 1008 597 1090 781 1090 c 3xd8
EndSplineSet
EndChar

StartChar: s
Encoding: 84 115 86
Width: 1047
VWidth: 3198
Flags: W
HStem: -28 98<319.855 689.228> 61 247<116 220> 775 229<781 889> 992 98<343.651 688.852>
VStem: 116 174<720.377 939.115> 116 104<165.315 308> 757 189<135.242 365.267> 781 108<775 905.623>
DStem2: 515 640 378 503 0.9562 -0.292714<-226.141 286.983>
LayerCount: 3
Fore
SplineSet
116 61 m 1,0,-1
 116 308 l 1,1,-1
 220 308 l 1,2,3
 223 189 223 189 296 129.5 c 128,-1,4
 369 70 369 70 503 70 c 0,5,6
 626 70 626 70 691.5 116 c 128,-1,7
 757 162 757 162 757 253 c 0,8,9
 757 320 757 320 709.5 363 c 128,-1,10
 662 406 662 406 509 458 c 2,11,-1
 378 503 l 2,12,13
 241 547 241 547 178.5 612.5 c 128,-1,14
 116 678 116 678 116 781 c 0,15,16
 116 925 116 925 224.5 1007.5 c 128,-1,17
 333 1090 333 1090 522 1090 c 0,18,19
 604 1090 604 1090 697 1069.5 c 128,-1,20
 790 1049 790 1049 889 1004 c 1,21,-1
 889 775 l 1,22,-1
 781 775 l 1,23,24
 778 876 778 876 710.5 934 c 128,-1,25
 643 992 643 992 525 992 c 0,26,27
 409 992 409 992 349.5 952 c 128,-1,28
 290 912 290 912 290 828 c 0,29,30
 290 761 290 761 335.5 721 c 128,-1,31
 381 681 381 681 515 640 c 2,32,-1
 662 595 l 2,33,34
 812 547 812 547 879 476.5 c 128,-1,35
 946 406 946 406 946 294 c 0,36,37
 946 144 946 144 830 58 c 128,-1,38
 714 -28 714 -28 512 -28 c 0,39,40
 409 -28 409 -28 311.5 -8 c 128,-1,41
 214 12 214 12 116 61 c 1,0,-1
EndSplineSet
Layer: 2
SplineSet
512 -28 m 3x9a
 352 -28 232 3 116 61 c 1
 116 308 l 1
 220 308 l 1x46
 224 144 331 70 503 70 c 3
 648 70 757 118 757 253 c 3
 757 385 649 410 509 458 c 2
 378 503 l 2
 232 553 116 610 116 781 c 3
 116 993 297 1090 522 1090 c 3x9a
 661 1090 780 1053 889 1004 c 1
 889 775 l 1
 781 775 l 1x29
 777 916 674 992 525 992 c 3
 389 992 290 954 290 828 c 3
 290 705 388 679 515 640 c 2
 662 595 l 2
 822 546 946 475 946 294 c 3
 946 71 750 -28 512 -28 c 3x9a
EndSplineSet
EndChar

StartChar: t
Encoding: 85 116 87
Width: 821
VWidth: 3198
Flags: W
HStem: -28 98<426.974 632.575> 956 106<61 220 406 751>
VStem: 220 186<91.7343 956 1062 1391> 668 138<102.059 250>
LayerCount: 3
Fore
SplineSet
220 956 m 1,0,-1
 61 956 l 1,1,-1
 61 1062 l 1,2,-1
 220 1062 l 1,3,-1
 220 1391 l 1,4,-1
 406 1391 l 1,5,-1
 406 1062 l 1,6,-1
 751 1062 l 1,7,-1
 751 956 l 1,8,-1
 406 956 l 1,9,-1
 406 281 l 2,10,11
 406 144 406 144 432 107 c 128,-1,12
 458 70 458 70 528 70 c 0,13,14
 601 70 601 70 633 113 c 128,-1,15
 665 156 665 156 668 250 c 1,16,-1
 806 250 l 1,17,18
 800 106 800 106 728 39 c 128,-1,19
 656 -28 656 -28 512 -28 c 0,20,21
 351 -28 351 -28 285.5 42 c 128,-1,22
 220 112 220 112 220 281 c 2,23,-1
 220 956 l 1,0,-1
EndSplineSet
Layer: 2
SplineSet
512 -28 m 3
 293 -28 220 59 220 281 c 2
 220 956 l 1
 61 956 l 1
 61 1062 l 1
 220 1062 l 1
 220 1391 l 1
 406 1391 l 1
 406 1062 l 1
 751 1062 l 1
 751 956 l 1
 406 956 l 1
 406 281 l 2
 406 136 410 70 528 70 c 3
 636 70 664 138 668 250 c 1
 806 250 l 1
 798 61 707 -28 512 -28 c 3
EndSplineSet
EndChar

StartChar: u
Encoding: 86 117 88
Width: 1316
VWidth: 3198
Flags: W
HStem: -28 134<478.063 732.46> 0 106<1068 1242> 956 106<55 220 726 882>
VStem: 220 186<183.289 956> 882 186<106 189 237.348 956>
LayerCount: 3
Fore
SplineSet
726 1062 m 1,0,-1
 1068 1062 l 1,1,-1
 1068 106 l 1,2,-1
 1242 106 l 1,3,-1
 1242 0 l 1,4,-1
 882 0 l 1,5,-1
 882 189 l 1,6,7
 831 83 831 83 751.5 27.5 c 128,-1,8
 672 -28 672 -28 565 -28 c 0,9,10
 387 -28 387 -28 303.5 72.5 c 128,-1,11
 220 173 220 173 220 387 c 2,12,-1
 220 956 l 1,13,-1
 55 956 l 1,14,-1
 55 1062 l 1,15,-1
 406 1062 l 1,16,-1
 406 445 l 2,17,18
 406 250 406 250 454.5 178 c 128,-1,19
 503 106 503 106 623 106 c 0,20,21
 751 106 751 106 816.5 200 c 128,-1,22
 882 294 882 294 882 473 c 2,23,-1
 882 956 l 1,24,-1
 726 956 l 1,25,-1
 726 1062 l 1,0,-1
EndSplineSet
Layer: 2
SplineSet
623 106 m 3xb8
 816 106 882 265 882 473 c 2
 882 956 l 1
 726 956 l 1
 726 1062 l 1
 1068 1062 l 1
 1068 106 l 1
 1242 106 l 1
 1242 0 l 1
 882 0 l 1x78
 882 189 l 1
 824 68 729 -28 565 -28 c 3
 311 -28 220 121 220 387 c 2
 220 956 l 1
 55 956 l 1
 55 1062 l 1
 406 1062 l 1
 406 445 l 2
 406 227 432 106 623 106 c 3xb8
EndSplineSet
EndChar

StartChar: v
Encoding: 87 118 89
Width: 1157
VWidth: 3198
Flags: W
HStem: 0 21G<497.841 648.243> 956 106<-6 116 314 483 751 912 1034 1151>
DStem2: 314 956 116 956 0.377728 -0.925917<0 790.882> 611 223 640 0 0.381042 0.924558<0 792.394>
LayerCount: 3
Fore
SplineSet
506 0 m 1,0,-1
 116 956 l 1,1,-1
 -6 956 l 1,2,-1
 -6 1062 l 1,3,-1
 483 1062 l 1,4,-1
 483 956 l 1,5,-1
 314 956 l 1,6,-1
 611 223 l 1,7,-1
 912 956 l 1,8,-1
 751 956 l 1,9,-1
 751 1062 l 1,10,-1
 1151 1062 l 1,11,-1
 1151 956 l 1,12,-1
 1034 956 l 1,13,-1
 640 0 l 1,14,-1
 506 0 l 1,0,-1
EndSplineSet
Layer: 2
SplineSet
506 0 m 1
 116 956 l 1
 -6 956 l 1
 -6 1062 l 1
 483 1062 l 1
 483 956 l 1
 314 956 l 1
 611 223 l 1
 912 956 l 1
 751 956 l 1
 751 1062 l 1
 1151 1062 l 1
 1151 956 l 1
 1034 956 l 1
 640 0 l 1
 506 0 l 1
EndSplineSet
EndChar

StartChar: w
Encoding: 88 119 90
Width: 1752
VWidth: 3198
Flags: W
HStem: 0 21G<460.368 620.608 1131.39 1298.55> 793 269<719.5 1116.5> 956 106<31 150 342 515 1340 1493 1605 1727>
DStem2: 342 956 150 956 0.314738 -0.949179<0 759.9> 579 234 614 0 0.315196 0.949027<0 624.119> 982 1062 876 793 0.312094 -0.950051<222.482 871.532> 1254 234 1292 0 0.311153 0.95036<0 760.525>
LayerCount: 3
Fore
SplineSet
982 1062 m 1,0,-1
 1254 234 l 1,1,-1
 1493 956 l 1,2,-1
 1340 956 l 1,3,-1
 1340 1062 l 1,4,-1
 1727 1062 l 1,5,-1
 1727 956 l 1,6,-1
 1605 956 l 1,7,-1
 1292 0 l 1,8,-1
 1138 0 l 1,9,-1
 876 793 l 1,10,-1
 614 0 l 1,11,-1
 467 0 l 1,12,-1
 150 956 l 1,13,-1
 31 956 l 1,14,-1
 31 1062 l 1,15,-1
 515 1062 l 1,16,-1
 515 956 l 1,17,-1
 342 956 l 1,18,-1
 579 234 l 1,19,-1
 854 1062 l 1,20,-1
 982 1062 l 1,0,-1
EndSplineSet
Layer: 2
SplineSet
982 1062 m 1xc0
 1254 234 l 1
 1493 956 l 1
 1340 956 l 1
 1340 1062 l 1
 1727 1062 l 1
 1727 956 l 1
 1605 956 l 1xa0
 1292 0 l 1
 1138 0 l 1
 876 793 l 1xc0
 614 0 l 1
 467 0 l 1
 150 956 l 1
 31 956 l 1
 31 1062 l 1
 515 1062 l 1
 515 956 l 1
 342 956 l 1xa0
 579 234 l 1
 854 1062 l 1
 982 1062 l 1xc0
EndSplineSet
EndChar

StartChar: x
Encoding: 89 120 91
Width: 1154
VWidth: 3198
Flags: W
HStem: 0 106<45 186 311 448 640 775 992 1129> 956 106<25 156 372 498 675 818 943 1084>
DStem2: 372 956 156 956 0.589301 -0.807913<0 378.636 532.196 924.215> 186 106 311 106 0.596672 0.802486<74.5839 466.597 680.591 1059.21>
LayerCount: 3
Fore
SplineSet
595 650 m 1,0,-1
 818 956 l 1,1,-1
 675 956 l 1,2,-1
 675 1062 l 1,3,-1
 1084 1062 l 1,4,-1
 1084 956 l 1,5,-1
 943 956 l 1,6,-1
 659 562 l 1,7,-1
 992 106 l 1,8,-1
 1129 106 l 1,9,-1
 1129 0 l 1,10,-1
 640 0 l 1,11,-1
 640 106 l 1,12,-1
 775 106 l 1,13,-1
 543 422 l 1,14,-1
 311 106 l 1,15,-1
 448 106 l 1,16,-1
 448 0 l 1,17,-1
 45 0 l 1,18,-1
 45 106 l 1,19,-1
 186 106 l 1,20,-1
 479 509 l 1,21,-1
 156 956 l 1,22,-1
 25 956 l 1,23,-1
 25 1062 l 1,24,-1
 498 1062 l 1,25,-1
 498 956 l 1,26,-1
 372 956 l 1,27,-1
 595 650 l 1,0,-1
EndSplineSet
Layer: 2
SplineSet
595 650 m 1
 818 956 l 1
 675 956 l 1
 675 1062 l 1
 1084 1062 l 1
 1084 956 l 1
 943 956 l 1
 659 562 l 1
 992 106 l 1
 1129 106 l 1
 1129 0 l 1
 640 0 l 1
 640 106 l 1
 775 106 l 1
 543 422 l 1
 311 106 l 1
 448 106 l 1
 448 0 l 1
 45 0 l 1
 45 106 l 1
 186 106 l 1
 479 509 l 1
 156 956 l 1
 25 956 l 1
 25 1062 l 1
 498 1062 l 1
 498 956 l 1
 372 956 l 1
 595 650 l 1
EndSplineSet
EndChar

StartChar: y
Encoding: 90 121 92
Width: 1157
VWidth: 3198
Flags: W
HStem: -454 106<184.505 388.205> -422 202<64 166.938> 956 106<-6 116 314 483 751 912 1034 1151>
VStem: 64 95<-325.601 -220>
DStem2: 314 956 116 956 0.376301 -0.926498<0 790.884> 442 -195 543 -241 0.379505 0.925189<-173.872 189.399 450.866 1243.26>
LayerCount: 3
Fore
SplineSet
442 -195 m 2,0,-1
 512 -19 l 1,1,-1
 116 956 l 1,2,-1
 -6 956 l 1,3,-1
 -6 1062 l 1,4,-1
 483 1062 l 1,5,-1
 483 956 l 1,6,-1
 314 956 l 1,7,-1
 611 223 l 1,8,-1
 912 956 l 1,9,-1
 751 956 l 1,10,-1
 751 1062 l 1,11,-1
 1151 1062 l 1,12,-1
 1151 956 l 1,13,-1
 1034 956 l 1,14,-1
 543 -241 l 2,15,16
 495 -364 495 -364 433.5 -409 c 128,-1,17
 372 -454 372 -454 262 -454 c 0,18,19
 214 -454 214 -454 165 -446.5 c 128,-1,20
 116 -439 116 -439 64 -422 c 1,21,-1
 64 -220 l 1,22,-1
 159 -220 l 1,23,24
 166 -287 166 -287 194.5 -317.5 c 128,-1,25
 223 -348 223 -348 281 -348 c 256,26,27
 339 -348 339 -348 372.5 -317.5 c 128,-1,28
 406 -287 406 -287 442 -195 c 2,0,-1
EndSplineSet
Layer: 2
SplineSet
159 -220 m 1x70
 168 -301 196 -348 281 -348 c 259
 384 -348 405 -288 442 -195 c 2
 512 -19 l 1
 116 956 l 1
 -6 956 l 1
 -6 1062 l 1
 483 1062 l 1
 483 956 l 1
 314 956 l 1
 611 223 l 1
 912 956 l 1
 751 956 l 1
 751 1062 l 1
 1151 1062 l 1
 1151 956 l 1
 1034 956 l 1
 543 -241 l 2
 486 -381 437 -454 262 -454 c 3xb0
 187 -454 125 -442 64 -422 c 1
 64 -220 l 1
 159 -220 l 1x70
EndSplineSet
EndChar

StartChar: z
Encoding: 91 122 93
Width: 1077
VWidth: 3198
Flags: W
HStem: 0 106<320 895> 956 106<220 748>
VStem: 116 104<771 956> 895 109<106 297>
DStem2: 83 86 320 106 0.607281 0.794487<159.815 1095.05>
LayerCount: 3
Fore
SplineSet
83 0 m 1,0,-1
 83 86 l 1,1,-1
 748 956 l 1,2,-1
 220 956 l 1,3,-1
 220 771 l 1,4,-1
 116 771 l 1,5,-1
 116 1062 l 1,6,-1
 985 1062 l 1,7,-1
 985 976 l 1,8,-1
 320 106 l 1,9,-1
 895 106 l 1,10,-1
 895 297 l 1,11,-1
 1004 297 l 1,12,-1
 1004 0 l 1,13,-1
 83 0 l 1,0,-1
EndSplineSet
Layer: 2
SplineSet
83 0 m 1
 83 86 l 1
 748 956 l 1
 220 956 l 1
 220 771 l 1
 116 771 l 1
 116 1062 l 1
 985 1062 l 1
 985 976 l 1
 320 106 l 1
 895 106 l 1
 895 297 l 1
 1004 297 l 1
 1004 0 l 1
 83 0 l 1
EndSplineSet
EndChar

StartChar: braceleft
Encoding: 92 123 94
Width: 1300
VWidth: 3198
Flags: W
HStem: -333 103<794.298 1046> 559 103<256 493.392> 1452 102<795.122 1046>
VStem: 565 186<-185.875 487.199 732.827 1407.38>
LayerCount: 3
Fore
SplineSet
1046 -230 m 1,0,-1
 1046 -333 l 1,1,-1
 985 -333 l 2,2,3
 736 -333 736 -333 650.5 -259.5 c 128,-1,4
 565 -186 565 -186 565 36 c 2,5,-1
 565 294 l 2,6,7
 565 442 565 442 511.5 500.5 c 128,-1,8
 458 559 458 559 317 559 c 2,9,-1
 256 559 l 1,10,-1
 256 662 l 1,11,-1
 317 662 l 2,12,13
 458 662 458 662 511.5 721.5 c 128,-1,14
 565 781 565 781 565 931 c 2,15,-1
 565 1187 l 2,16,17
 565 1407 565 1407 650.5 1480.5 c 128,-1,18
 736 1554 736 1554 985 1554 c 2,19,-1
 1046 1554 l 1,20,-1
 1046 1452 l 1,21,-1
 979 1452 l 2,22,23
 839 1452 839 1452 795 1407 c 128,-1,24
 751 1362 751 1362 751 1221 c 2,25,-1
 751 934 l 2,26,27
 751 778 751 778 702 709 c 128,-1,28
 653 640 653 640 522 611 c 1,29,30
 653 576 653 576 702 510.5 c 128,-1,31
 751 445 751 445 751 287 c 2,32,-1
 751 0 l 2,33,34
 751 -141 751 -141 795 -185.5 c 128,-1,35
 839 -230 839 -230 979 -230 c 2,36,-1
 1046 -230 l 1,0,-1
EndSplineSet
Layer: 2
SplineSet
751 0 m 2
 751 -189 790 -230 979 -230 c 2
 1046 -230 l 1
 1046 -333 l 1
 985 -333 l 2
 664 -333 565 -275 565 36 c 2
 565 294 l 2
 565 489 509 559 317 559 c 2
 256 559 l 1
 256 662 l 1
 317 662 l 2
 510 662 565 735 565 931 c 2
 565 1187 l 2
 565 1496 666 1554 985 1554 c 2
 1046 1554 l 1
 1046 1452 l 1
 979 1452 l 2
 790 1452 751 1410 751 1221 c 2
 751 934 l 2
 751 723 696 650 522 611 c 1
 694 565 751 502 751 287 c 2
 751 0 l 2
EndSplineSet
EndChar

StartChar: bar
Encoding: 93 124 95
Width: 690
VWidth: 3198
Flags: W
VStem: 265 160<-483 1563>
LayerCount: 3
Fore
SplineSet
425 1563 m 1,0,-1
 425 -483 l 1,1,-1
 265 -483 l 1,2,-1
 265 1563 l 1,3,-1
 425 1563 l 1,0,-1
EndSplineSet
Layer: 2
SplineSet
425 1563 m 1
 425 -483 l 1
 265 -483 l 1
 265 1563 l 1
 425 1563 l 1
EndSplineSet
EndChar

StartChar: braceright
Encoding: 94 125 96
Width: 1300
VWidth: 3198
Flags: W
HStem: -333 103<256 508.497> 559 103<808.648 1046> 1452 102<256 507.673>
VStem: 550 186<-186.506 486.793 735.675 1407.71>
LayerCount: 3
Fore
SplineSet
256 -230 m 1,0,-1
 326 -230 l 2,1,2
 467 -230 467 -230 508.5 -185.5 c 128,-1,3
 550 -141 550 -141 550 0 c 2,4,-1
 550 287 l 2,5,6
 550 445 550 445 600 510.5 c 128,-1,7
 650 576 650 576 781 611 c 1,8,9
 650 640 650 640 600 709 c 128,-1,10
 550 778 550 778 550 934 c 2,11,-1
 550 1221 l 2,12,13
 550 1365 550 1365 508.5 1408.5 c 128,-1,14
 467 1452 467 1452 326 1452 c 2,15,-1
 256 1452 l 1,16,-1
 256 1554 l 1,17,-1
 320 1554 l 2,18,19
 565 1554 565 1554 650.5 1480.5 c 128,-1,20
 736 1407 736 1407 736 1187 c 2,21,-1
 736 931 l 2,22,23
 736 781 736 781 790.5 721.5 c 128,-1,24
 845 662 845 662 985 662 c 2,25,-1
 1046 662 l 1,26,-1
 1046 559 l 1,27,-1
 985 559 l 2,28,29
 845 559 845 559 790.5 500.5 c 128,-1,30
 736 442 736 442 736 294 c 2,31,-1
 736 36 l 2,32,33
 736 -186 736 -186 650.5 -259.5 c 128,-1,34
 565 -333 565 -333 320 -333 c 2,35,-1
 256 -333 l 1,36,-1
 256 -230 l 1,0,-1
EndSplineSet
Layer: 2
SplineSet
550 1221 m 2
 550 1412 516 1452 326 1452 c 2
 256 1452 l 1
 256 1554 l 1
 320 1554 l 2
 635 1554 736 1493 736 1187 c 2
 736 931 l 2
 736 735 793 662 985 662 c 2
 1046 662 l 1
 1046 559 l 1
 985 559 l 2
 794 559 736 488 736 294 c 2
 736 36 l 2
 736 -273 637 -333 320 -333 c 2
 256 -333 l 1
 256 -230 l 1
 326 -230 l 2
 516 -230 550 -189 550 0 c 2
 550 287 l 2
 550 502 609 565 781 611 c 1
 607 650 550 723 550 934 c 2
 550 1221 l 2
EndSplineSet
EndChar

StartChar: asciitilde
Encoding: 95 126 97
Width: 1713
VWidth: 3198
Flags: W
HStem: 476 150<217 367> 486 170<938.518 1315.04> 626 170<390.088 781.268> 659 147<1349 1496>
DStem2: 860 729 812 570 0.935472 -0.353401<-229.387 286.779>
LayerCount: 3
Fore
SplineSet
1496 806 m 1,0,-1
 1496 659 l 1,1,2
 1398 573 1398 573 1308 529.5 c 128,-1,3
 1218 486 1218 486 1126 486 c 0,4,5
 1029 486 1029 486 857 553 c 2,6,-1
 845 556 l 2,7,8
 836 559 836 559 812 570 c 0,9,10
 665 626 665 626 573 626 c 256,11,12
 479 626 479 626 392 589.5 c 128,-1,13
 305 553 305 553 217 476 c 1,14,-1
 217 626 l 1,15,16
 317 717 317 717 406 756.5 c 128,-1,17
 495 796 495 796 589 796 c 0,18,19
 684 796 684 796 860 729 c 2,20,-1
 870 726 l 2,21,22
 879 723 879 723 903 714 c 0,23,24
 1046 656 1046 656 1142 656 c 0,25,26
 1235 656 1235 656 1322.5 692.5 c 128,-1,27
 1410 729 1410 729 1496 806 c 1,0,-1
EndSplineSet
Layer: 2
SplineSet
1142 656 m 3x40
 1297 656 1402 722 1496 806 c 1
 1496 659 l 1
 1395 570 1285 486 1126 486 c 3x50
 1061 486 973 509 857 553 c 2
 812 570 l 2
 714 607 634 626 573 626 c 259x20
 417 626 313 560 217 476 c 1
 217 626 l 1x80
 322 722 423 796 589 796 c 3x20
 652 796 743 773 860 729 c 2
 903 713 l 2
 999 677 1078 656 1142 656 c 3x40
EndSplineSet
EndChar

StartChar: nounicode-3-1-45
Encoding: 376 -1 98
Width: 0
VWidth: 3198
Flags: W
HStem: -12 21G<-754 -6>
VStem: -754 748<-12 1887>
LayerCount: 3
Fore
SplineSet
-6 -12 m 1,0,-1
 -754 -12 l 1,1,-1
 -754 1887 l 1,2,-1
 -6 1887 l 1,3,-1
 -6 -12 l 1,0,-1
EndSplineSet
Layer: 2
SplineSet
-6 -12 m 1
 -754 -12 l 1
 -754 1887 l 1
 -6 1887 l 1
 -6 -12 l 1
EndSplineSet
EndChar

StartChar: uni0E10.descless
Encoding: 338 63232 99
Width: 1194
VWidth: 3198
Flags: W
HStem: 0 21G<711.048 956> 361 84<310.99 433.536> 665 77<306.035 430.692> 860 99<259 679.332> 989 146<762.487 1066.54> 1142 96<367.952 631.889>
VStem: 159 131<459.311 654.96> 882 177<328.498 773.781>
LayerCount: 3
Fore
SplineSet
1059 650 m 0,0,1
 1059 510 1059 510 1005 289 c 0,2,3
 961 110 961 110 953 0 c 1,4,-1
 720 0 l 1,5,-1
 515 458 l 1,6,7
 452 361 452 361 369 361 c 0,8,9
 274 361 274 361 216.5 410.5 c 128,-1,10
 159 460 159 460 159 543 c 0,11,12
 159 637 159 637 219 689.5 c 128,-1,13
 279 742 279 742 387 742 c 0,14,15
 469 742 469 742 523 696 c 128,-1,16
 577 650 577 650 626 540 c 2,17,-1
 806 128 l 1,18,19
 806 131 806 131 808 137 c 128,-1,20
 810 143 810 143 811 149 c 0,21,22
 853 332 853 332 867.5 435.5 c 128,-1,23
 882 539 882 539 882 650 c 0,24,25
 882 753 882 753 814 794.5 c 128,-1,26
 746 836 746 836 554 850 c 0,27,28
 436 860 436 860 247 860 c 0,29,30
 121 860 121 860 25 848 c 1,31,32
 88 1057 88 1057 196 1147.5 c 128,-1,33
 304 1238 304 1238 489 1238 c 0,34,35
 566 1238 566 1238 694 1187 c 0,36,37
 823 1135 823 1135 889 1135 c 0,38,39
 981 1135 981 1135 1132 1209 c 1,40,-1
 1132 1007 l 1,41,42
 1093 989 1093 989 1017 989 c 0,43,44
 806 989 806 989 648 1089 c 0,45,46
 557 1142 557 1142 479 1142 c 0,47,48
 417 1142 417 1142 353.5 1089 c 128,-1,49
 290 1036 290 1036 259 959 c 1,50,-1
 297 959 l 2,51,52
 579 959 579 959 710 936 c 0,53,54
 904 905 904 905 981.5 841.5 c 128,-1,55
 1059 778 1059 778 1059 650 c 0,0,1
372 445 m 0,56,57
 403 445 403 445 428.5 478.5 c 128,-1,58
 454 512 454 512 454 553 c 0,59,60
 454 596 454 596 428 630.5 c 128,-1,61
 402 665 402 665 369 665 c 0,62,63
 332 665 332 665 311 636 c 128,-1,64
 290 607 290 607 290 556 c 0,65,66
 290 511 290 511 314.5 478 c 128,-1,67
 339 445 339 445 372 445 c 0,56,57
EndSplineSet
Layer: 2
SplineSet
1059 650 m 3
 1059 558 1041 436 1005 289 c 0
 970 147 959 83 953 0 c 1
 720 0 l 1
 515 458 l 1
 474 395 423 361 369 361 c 3
 242 361 159 433 159 543 c 3
 159 669 243 742 387 742 c 3
 496 742 561 687 626 540 c 2
 806 128 l 1
 807 134 809 138 811 149 c 0
 867 394 882 503 882 650 c 3
 882 787 810 831 554 850 c 0
 483 856 358 860 247 860 c 3
 165 860 89 856 25 848 c 1
 109 1126 242 1238 489 1238 c 3
 548 1238 596 1226 694 1187 c 0
 791 1148 840 1135 889 1135 c 3
 951 1135 1032 1160 1132 1209 c 1
 1132 1007 l 1
 1104 994 1072 989 1017 989 c 3
 881 989 751 1024 648 1089 c 0
 588 1124 532 1142 479 1142 c 3
 396 1142 300 1062 259 959 c 1
 297 959 l 2
 491 959 619 952 710 936 c 0
 969 894 1059 820 1059 650 c 3
372 445 m 3
 414 445 454 498 454 553 c 259
 454 611 413 665 369 665 c 3
 320 665 290 624 290 556 c 259
 290 496 328 445 372 445 c 3
EndSplineSet
EndChar

StartChar: ellipsis
Encoding: 316 8230 104
Width: 2045
VWidth: 3198
Flags: W
HStem: -28 265<243.915 438.846 925.214 1121.49 1608.85 1803.33>
VStem: 208 265<5.76236 202.496> 889 268<6.46274 199.974> 1574 266<8.27798 199.974>
LayerCount: 3
Fore
SplineSet
1574 106 m 0,0,1
 1574 159 1574 159 1612.5 198 c 128,-1,2
 1651 237 1651 237 1705 237 c 256,3,4
 1758 237 1758 237 1799 198 c 128,-1,5
 1840 159 1840 159 1840 106 c 0,6,7
 1840 48 1840 48 1799 10 c 128,-1,8
 1758 -28 1758 -28 1705 -28 c 0,9,10
 1648 -28 1648 -28 1611 10 c 128,-1,11
 1574 48 1574 48 1574 106 c 0,0,1
889 106 m 0,12,13
 889 159 889 159 929.5 198 c 128,-1,14
 970 237 970 237 1023 237 c 256,15,16
 1078 237 1078 237 1117.5 198 c 128,-1,17
 1157 159 1157 159 1157 106 c 0,18,19
 1157 48 1157 48 1117.5 10 c 128,-1,20
 1078 -28 1078 -28 1023 -28 c 0,21,22
 965 -28 965 -28 927 10 c 128,-1,23
 889 48 889 48 889 106 c 0,12,13
208 106 m 0,24,25
 208 159 208 159 247.5 198 c 128,-1,26
 287 237 287 237 342 237 c 256,27,28
 397 237 397 237 435 198 c 128,-1,29
 473 159 473 159 473 106 c 0,30,31
 473 48 473 48 435 10 c 128,-1,32
 397 -28 397 -28 342 -28 c 0,33,34
 284 -28 284 -28 246 10 c 128,-1,35
 208 48 208 48 208 106 c 0,24,25
EndSplineSet
Layer: 2
SplineSet
1705 -28 m 3
 1629 -28 1574 30 1574 106 c 3
 1574 177 1634 237 1705 237 c 259
 1775 237 1840 176 1840 106 c 3
 1840 32 1778 -28 1705 -28 c 3
1023 -28 m 3
 946 -28 889 29 889 106 c 3
 889 176 953 237 1023 237 c 259
 1095 237 1157 177 1157 106 c 3
 1157 31 1097 -28 1023 -28 c 3
342 -28 m 3
 265 -28 208 29 208 106 c 3
 208 177 270 237 342 237 c 259
 414 237 473 177 473 106 c 3
 473 31 416 -28 342 -28 c 3
EndSplineSet
EndChar

StartChar: uni0E48.low
Encoding: 348 63242 109
Width: 0
VWidth: 3198
Flags: W
HStem: 1501 412<-361 -176>
VStem: -361 185<1501 1913>
LayerCount: 3
Fore
SplineSet
-361 1501 m 1,0,-1
 -361 1913 l 1,1,-1
 -176 1913 l 1,2,-1
 -176 1501 l 1,3,-1
 -361 1501 l 1,0,-1
EndSplineSet
Layer: 2
SplineSet
-361 1501 m 1
 -361 1913 l 1
 -176 1913 l 1
 -176 1501 l 1
 -361 1501 l 1
EndSplineSet
Substitution2: "Single Substitution lookup 21 subtable" uni0E48.left
Substitution2: "Single Substitution lookup 20 subtable" uni0E48
Substitution2: "Single Substitution lookup 22 subtable" uni0E48.low_left
EndChar

StartChar: uni0E49.low
Encoding: 349 63243 110
Width: 0
VWidth: 3198
Flags: W
HStem: 1480 91<-707 -625.922> 1682 61<-655.286 -563.557> 1963 55<-656.821 -541.003>
VStem: -796 116<1754.7 1955.23> -511 112<1752.98 1947.37> -179 189<1847.29 2011>
LayerCount: 3
Fore
SplineSet
-479 1612 m 1,0,1
 -337 1655 -337 1655 -261.5 1752 c 128,-1,2
 -186 1849 -186 1849 -179 2011 c 1,3,-1
 10 2011 l 1,4,5
 -22 1764 -22 1764 -197 1635 c 128,-1,6
 -372 1506 -372 1506 -707 1480 c 1,7,-1
 -707 1571 l 1,8,9
 -654 1581 -654 1581 -611.5 1612 c 128,-1,10
 -569 1643 -569 1643 -563 1691 c 1,11,12
 -589 1682 -589 1682 -618 1682 c 0,13,14
 -692 1682 -692 1682 -744 1730.5 c 128,-1,15
 -796 1779 -796 1779 -796 1852 c 0,16,17
 -796 1928 -796 1928 -736 1973 c 128,-1,18
 -676 2018 -676 2018 -594 2018 c 0,19,20
 -503 2018 -503 2018 -451 1968.5 c 128,-1,21
 -399 1919 -399 1919 -399 1829 c 0,22,23
 -399 1774 -399 1774 -423 1715 c 128,-1,24
 -447 1656 -447 1656 -479 1612 c 1,0,1
-594 1743 m 0,25,26
 -551 1743 -551 1743 -531 1775.5 c 128,-1,27
 -511 1808 -511 1808 -511 1858 c 0,28,29
 -511 1902 -511 1902 -537 1932.5 c 128,-1,30
 -563 1963 -563 1963 -604 1963 c 0,31,32
 -643 1963 -643 1963 -661.5 1931.5 c 128,-1,33
 -680 1900 -680 1900 -680 1855 c 0,34,35
 -680 1808 -680 1808 -658 1775.5 c 128,-1,36
 -636 1743 -636 1743 -594 1743 c 0,25,26
EndSplineSet
Layer: 2
SplineSet
-479 1612 m 1
 -294 1668 -188 1790 -179 2011 c 1
 10 2011 l 1
 -33 1682 -261 1514 -707 1480 c 1
 -707 1571 l 1
 -645 1583 -571 1622 -563 1691 c 1
 -580 1685 -598 1682 -618 1682 c 3
 -716 1682 -796 1753 -796 1852 c 3
 -796 1959 -697 2018 -594 2018 c 3
 -474 2018 -399 1951 -399 1829 c 3
 -399 1749 -443 1662 -479 1612 c 1
-594 1743 m 3
 -532 1743 -511 1799 -511 1858 c 259
 -511 1914 -547 1963 -604 1963 c 259
 -660 1963 -680 1908 -680 1855 c 3
 -680 1797 -654 1743 -594 1743 c 3
EndSplineSet
Substitution2: "Single Substitution lookup 21 subtable" uni0E49.left
Substitution2: "Single Substitution lookup 20 subtable" uni0E49
Substitution2: "Single Substitution lookup 22 subtable" uni0E49.low_left
EndChar

StartChar: uni0E4A.low
Encoding: 350 63244 111
Width: 0
VWidth: 3198
Flags: W
HStem: 1486 201<-660.477 -532.724> 1819 118<-490.473 -369.928>
VStem: -885 138<1601.02 1796.99> -671 171<1574.81 1677.42> -357 119<1621.44 1811.2> -171 162<1718.31 1967>
LayerCount: 3
Fore
SplineSet
-265 1620 m 1,0,1
 -171 1669 -171 1669 -171 1879 c 0,2,3
 -171 1943 -171 1943 -174 1967 c 1,4,-1
 -9 1967 l 1,5,-1
 -9 1934 l 2,6,7
 -9 1555 -9 1555 -415 1480 c 1,8,-1
 -415 1567 l 1,9,10
 -380 1605 -380 1605 -368.5 1630.5 c 128,-1,11
 -357 1656 -357 1656 -357 1701 c 0,12,13
 -357 1819 -357 1819 -436 1819 c 0,14,15
 -449 1819 -449 1819 -460.5 1810.5 c 128,-1,16
 -472 1802 -472 1802 -493 1778 c 0,17,18
 -528 1736 -528 1736 -541 1736 c 128,-1,19
 -554 1736 -554 1736 -597 1776 c 0,20,21
 -625 1802 -625 1802 -634.5 1808.5 c 128,-1,22
 -644 1815 -644 1815 -655 1815 c 0,23,24
 -695 1815 -695 1815 -721 1780.5 c 128,-1,25
 -747 1746 -747 1746 -747 1694 c 0,26,27
 -747 1657 -747 1657 -721.5 1621.5 c 128,-1,28
 -696 1586 -696 1586 -661 1573 c 1,29,30
 -671 1610 -671 1610 -671 1614 c 0,31,32
 -671 1648 -671 1648 -647 1667.5 c 128,-1,33
 -623 1687 -623 1687 -582 1687 c 0,34,35
 -547 1687 -547 1687 -523.5 1661 c 128,-1,36
 -500 1635 -500 1635 -500 1598 c 0,37,38
 -500 1550 -500 1550 -548.5 1518 c 128,-1,39
 -597 1486 -597 1486 -668 1486 c 0,40,41
 -762 1486 -762 1486 -823.5 1545 c 128,-1,42
 -885 1604 -885 1604 -885 1694 c 0,43,44
 -885 1779 -885 1779 -819.5 1849.5 c 128,-1,45
 -754 1920 -754 1920 -661 1937 c 1,46,-1
 -543 1845 l 1,47,48
 -482 1904 -482 1904 -451 1924 c 0,49,50
 -433 1937 -433 1937 -427 1937 c 0,51,52
 -358 1937 -358 1937 -298 1874 c 128,-1,53
 -238 1811 -238 1811 -238 1739 c 0,54,55
 -238 1697 -238 1697 -243.5 1673 c 128,-1,56
 -249 1649 -249 1649 -265 1620 c 1,0,1
EndSplineSet
Layer: 2
SplineSet
-265 1620 m 1
 -203 1652 -171 1740 -171 1879 c 3
 -171 1942 -171 1943 -174 1967 c 1
 -9 1967 l 1
 -9 1934 l 2
 -9 1682 -144 1530 -415 1480 c 1
 -415 1567 l 1
 -368 1617 -357 1641 -357 1701 c 3
 -357 1782 -382 1819 -436 1819 c 3
 -453 1819 -465 1811 -493 1778 c 0
 -522 1743 -531 1736 -541 1736 c 259
 -550 1736 -564 1745 -597 1776 c 0
 -635 1811 -641 1815 -655 1815 c 3
 -708 1815 -747 1763 -747 1694 c 3
 -747 1645 -708 1590 -661 1573 c 1
 -664 1584 -671 1601 -671 1614 c 3
 -671 1659 -637 1687 -582 1687 c 259
 -536 1687 -500 1648 -500 1598 c 3
 -500 1534 -573 1486 -668 1486 c 3
 -793 1486 -885 1574 -885 1694 c 3
 -885 1807 -785 1915 -661 1937 c 1
 -543 1845 l 1
 -513 1874 -468 1913 -451 1924 c 0
 -437 1934 -431 1937 -427 1937 c 3
 -335 1937 -238 1835 -238 1739 c 3
 -238 1683 -243 1659 -265 1620 c 1
EndSplineSet
Substitution2: "Single Substitution lookup 21 subtable" uni0E4A.left
Substitution2: "Single Substitution lookup 20 subtable" uni0E4A
Substitution2: "Single Substitution lookup 22 subtable" uni0E4A.low_left
EndChar

StartChar: uni0E4B.low
Encoding: 351 63245 112
Width: 0
VWidth: 3198
Flags: W
HStem: 1496 21G<-361 -176> 1682 103<-522 -361 -176 -9>
VStem: -361 185<1496 1682 1785 1963>
LayerCount: 3
Fore
SplineSet
-176 1682 m 1,0,-1
 -176 1496 l 1,1,-1
 -361 1496 l 1,2,-1
 -361 1682 l 1,3,-1
 -522 1682 l 1,4,-1
 -522 1785 l 1,5,-1
 -361 1785 l 1,6,-1
 -361 1963 l 1,7,-1
 -176 1963 l 1,8,-1
 -176 1785 l 1,9,-1
 -9 1785 l 1,10,-1
 -9 1682 l 1,11,-1
 -176 1682 l 1,0,-1
EndSplineSet
Layer: 2
SplineSet
-176 1682 m 1
 -176 1496 l 1
 -361 1496 l 1
 -361 1682 l 1
 -522 1682 l 1
 -522 1785 l 1
 -361 1785 l 1
 -361 1963 l 1
 -176 1963 l 1
 -176 1785 l 1
 -9 1785 l 1
 -9 1682 l 1
 -176 1682 l 1
EndSplineSet
Substitution2: "Single Substitution lookup 21 subtable" uni0E4B.left
Substitution2: "Single Substitution lookup 20 subtable" uni0E4B
Substitution2: "Single Substitution lookup 22 subtable" uni0E4B.low_left
EndChar

StartChar: uni0E4C.low
Encoding: 352 63246 113
Width: 0
VWidth: 3198
Flags: W
HStem: 1487 58<-440.626 -338.423>
VStem: -602 122<1569.28 1783.85> -310 122<1558.31 1788.73> -132 177<1954.16 2102>
LayerCount: 3
Fore
SplineSet
-390 1487 m 256,0,1
 -482 1487 -482 1487 -542 1539.5 c 128,-1,2
 -602 1592 -602 1592 -602 1673 c 0,3,4
 -602 1761 -602 1761 -551 1810 c 128,-1,5
 -500 1859 -500 1859 -389 1876 c 0,6,7
 -231 1901 -231 1901 -181.5 1944.5 c 128,-1,8
 -132 1988 -132 1988 -132 2102 c 1,9,-1
 45 2102 l 1,10,11
 31 1974 31 1974 -41.5 1893 c 128,-1,12
 -114 1812 -114 1812 -227 1798 c 1,13,14
 -188 1746 -188 1746 -188 1679 c 0,15,16
 -188 1597 -188 1597 -246 1542 c 128,-1,17
 -304 1487 -304 1487 -390 1487 c 256,0,1
-310 1666 m 0,18,19
 -310 1725 -310 1725 -334 1764.5 c 128,-1,20
 -358 1804 -358 1804 -394 1804 c 0,21,22
 -428 1804 -428 1804 -454 1763 c 128,-1,23
 -480 1722 -480 1722 -480 1669 c 0,24,25
 -480 1623 -480 1623 -450.5 1584 c 128,-1,26
 -421 1545 -421 1545 -386 1545 c 0,27,28
 -356 1545 -356 1545 -333 1581.5 c 128,-1,29
 -310 1618 -310 1618 -310 1666 c 0,18,19
EndSplineSet
Layer: 2
SplineSet
-390 1487 m 259
 -513 1487 -602 1565 -602 1673 c 3
 -602 1790 -537 1853 -389 1876 c 0
 -178 1909 -132 1950 -132 2102 c 1
 45 2102 l 1
 26 1931 -76 1817 -227 1798 c 1
 -201 1763 -188 1724 -188 1679 c 3
 -188 1570 -275 1487 -390 1487 c 259
-310 1666 m 3
 -310 1745 -346 1804 -394 1804 c 3
 -439 1804 -480 1739 -480 1669 c 259
 -480 1608 -432 1545 -386 1545 c 259
 -346 1545 -310 1602 -310 1666 c 3
EndSplineSet
Substitution2: "Single Substitution lookup 21 subtable" uni0E4C.left
Substitution2: "Single Substitution lookup 20 subtable" uni0E4C
Substitution2: "Single Substitution lookup 22 subtable" uni0E4C.low_left
EndChar

StartChar: uni0E0D.descless
Encoding: 353 63247 114
Width: 1777
VWidth: 3198
Flags: W
HStem: -9 79<358.731 493.642> 0 106<1062 1437> 320 83<346.518 486.222> 860 93<156 281 392.348 483> 1126 105<360.011 757.661> 1195 20G<1525.35 1630>
VStem: 137 196<93.3924 309.451 375 766.265> 515 122<84.1535 297.55> 867 195<106 1005.69> 1437 193<106 1117>
LayerCount: 3
Fore
SplineSet
589 1231 m 0,0,1
 816 1231 816 1231 939 1117 c 128,-1,2
 1062 1003 1062 1003 1062 793 c 2,3,-1
 1062 106 l 1,4,-1
 1437 106 l 1,5,-1
 1437 1117 l 1,6,-1
 1548 1215 l 1,7,-1
 1630 1215 l 1,8,-1
 1630 0 l 1,9,-1
 867 0 l 1,10,-1
 867 806 l 2,11,12
 867 974 867 974 798.5 1050 c 128,-1,13
 730 1126 730 1126 579 1126 c 0,14,15
 468 1126 468 1126 346 1076 c 128,-1,16
 224 1026 224 1026 156 953 c 1,17,-1
 483 953 l 1,18,-1
 483 864 l 1,19,20
 404 838 404 838 368.5 790 c 128,-1,21
 333 742 333 742 333 662 c 2,22,-1
 333 375 l 1,23,24
 400 403 400 403 445 403 c 0,25,26
 530 403 530 403 583.5 351 c 128,-1,27
 637 299 637 299 637 217 c 0,28,29
 637 -9 637 -9 400 -9 c 0,30,31
 290 -9 290 -9 213.5 58.5 c 128,-1,32
 137 126 137 126 137 223 c 2,33,-1
 137 634 l 2,34,35
 137 698 137 698 175.5 758.5 c 128,-1,36
 214 819 214 819 281 860 c 1,37,-1
 22 860 l 1,38,-1
 22 1001 l 1,39,40
 218 1129 218 1129 343.5 1180 c 128,-1,41
 469 1231 469 1231 589 1231 c 0,0,1
422 70 m 256,42,43
 463 70 463 70 489 100.5 c 128,-1,44
 515 131 515 131 515 180 c 0,45,46
 515 241 515 241 486.5 280.5 c 128,-1,47
 458 320 458 320 415 320 c 0,48,49
 378 320 378 320 350.5 285.5 c 128,-1,50
 323 251 323 251 323 205 c 0,51,52
 323 155 323 155 354 112.5 c 128,-1,53
 385 70 385 70 422 70 c 256,42,43
EndSplineSet
Layer: 2
SplineSet
589 1231 m 3xbbc0
 892 1231 1062 1073 1062 793 c 2
 1062 106 l 1
 1437 106 l 1
 1437 1117 l 1
 1548 1215 l 1
 1630 1215 l 1
 1630 0 l 1
 867 0 l 1x77c0
 867 806 l 2
 867 1030 780 1126 579 1126 c 3
 431 1126 246 1050 156 953 c 1
 483 953 l 1
 483 864 l 1
 378 829 333 768 333 662 c 2
 333 375 l 1
 376 393 416 403 445 403 c 3
 558 403 637 326 637 217 c 3
 637 66 558 -9 400 -9 c 3
 254 -9 137 94 137 223 c 2
 137 634 l 2
 137 720 192 806 281 860 c 1
 22 860 l 1
 22 1001 l 1
 283 1172 429 1231 589 1231 c 3xbbc0
422 70 m 259xb3c0
 477 70 515 114 515 180 c 259
 515 261 473 320 415 320 c 3
 366 320 323 266 323 205 c 259
 323 139 373 70 422 70 c 259xb3c0
EndSplineSet
EndChar

StartChar: quoteleft
Encoding: 307 8216 115
Width: 629
VWidth: 3198
Flags: W
HStem: 803 186<259.88 394.492>
VStem: 170 89<939 1138.32>
LayerCount: 3
Fore
SplineSet
412 1279 m 1,0,-1
 412 1242 l 1,1,2
 259 1151 259 1151 259 1049 c 0,3,4
 259 989 259 989 290 989 c 0,5,6
 301 989 301 989 317 998 c 0,7,8
 339 1007 339 1007 358 1007 c 0,9,10
 400 1007 400 1007 425.5 978.5 c 128,-1,11
 451 950 451 950 451 915 c 0,12,13
 451 854 451 854 414.5 828.5 c 128,-1,14
 378 803 378 803 333 803 c 0,15,16
 259 803 259 803 214.5 860.5 c 128,-1,17
 170 918 170 918 170 985 c 0,18,19
 170 1190 170 1190 412 1279 c 1,0,-1
EndSplineSet
Layer: 2
SplineSet
333 803 m 3
 238 803 170 893 170 985 c 3
 170 1122 251 1220 412 1279 c 1
 412 1242 l 1
 310 1181 259 1117 259 1049 c 3
 259 1009 269 989 290 989 c 3
 297 989 306 992 317 998 c 0
 332 1004 345 1007 358 1007 c 3
 410 1007 451 965 451 915 c 3
 451 841 401 803 333 803 c 3
EndSplineSet
EndChar

StartChar: quoteright
Encoding: 308 8217 116
Width: 629
VWidth: 3198
Flags: W
HStem: 1093 186<235.794 370.924>
VStem: 372 86<947.294 1144>
LayerCount: 3
Fore
SplineSet
220 803 m 1,0,-1
 220 848 l 1,1,2
 278 876 278 876 325 924.5 c 128,-1,3
 372 973 372 973 372 1034 c 256,4,5
 372 1093 372 1093 339 1093 c 0,6,7
 333 1093 333 1093 311 1084 c 1,8,9
 281 1078 281 1078 272 1078 c 0,10,11
 226 1078 226 1078 203 1108 c 128,-1,12
 180 1138 180 1138 180 1174 c 0,13,14
 180 1212 180 1212 208.5 1245.5 c 128,-1,15
 237 1279 237 1279 301 1279 c 0,16,17
 372 1279 372 1279 415 1221 c 128,-1,18
 458 1163 458 1163 458 1101 c 0,19,20
 458 895 458 895 220 803 c 1,0,-1
EndSplineSet
Layer: 2
SplineSet
180 1174 m 3
 180 1238 229 1279 301 1279 c 3
 391 1279 458 1187 458 1101 c 3
 458 964 379 864 220 803 c 1
 220 848 l 1
 285 879 372 944 372 1034 c 259
 372 1073 361 1093 339 1093 c 3
 335 1093 326 1090 311 1084 c 1
 291 1080 278 1078 272 1078 c 3
 216 1078 180 1121 180 1174 c 3
EndSplineSet
EndChar

StartChar: quotedblleft
Encoding: 310 8220 117
Width: 840
VWidth: 3198
Flags: W
HStem: 806 204<148.906 322.107 623.09 760.549> 806 189<593.132 725.137> 1245 31<720.436 742>
VStem: 58 89<942 1147.05> 506 86<944 1147.37>
LayerCount: 3
Fore
SplineSet
301 1279 m 1,0,-1
 301 1245 l 1,1,2
 147 1163 147 1163 147 1056 c 0,3,4
 147 998 147 998 180 998 c 0,5,6
 189 998 189 998 211 1004 c 0,7,8
 244 1010 244 1010 250 1010 c 0,9,10
 290 1010 290 1010 317.5 980 c 128,-1,11
 345 950 345 950 345 915 c 0,12,13
 345 864 345 864 308.5 835 c 128,-1,14
 272 806 272 806 223 806 c 0,15,16
 147 806 147 806 102.5 863.5 c 128,-1,17
 58 921 58 921 58 989 c 0,18,19
 58 1206 58 1206 301 1279 c 1,0,-1
742 1276 m 1,20,-1
 742 1245 l 1,21,22
 592 1154 592 1154 592 1049 c 0,23,24
 592 995 592 995 623 995 c 0,25,26
 626 995 626 995 653 1004 c 0,27,28
 681 1010 681 1010 690 1010 c 0,29,30
 784 1010 784 1010 784 918 c 0,31,32
 784 864 784 864 745.5 835 c 128,-1,33
 707 806 707 806 662 806 c 0,34,35
 601 806 601 806 553.5 860.5 c 128,-1,36
 506 915 506 915 506 989 c 0,37,38
 506 1209 506 1209 742 1276 c 1,20,-1
EndSplineSet
Layer: 2
SplineSet
223 806 m 3xb8
 126 806 58 895 58 989 c 3
 58 1134 139 1230 301 1279 c 1
 301 1245 l 1
 198 1190 147 1127 147 1056 c 3
 147 1017 158 998 180 998 c 3
 188 998 247 1010 250 1010 c 3
 300 1010 345 964 345 915 c 3
 345 848 289 806 223 806 c 3xb8
662 806 m 3
 575 806 506 899 506 989 c 3
 506 1136 585 1231 742 1276 c 1
 742 1245 l 1
 642 1184 592 1119 592 1049 c 3
 592 1013 602 995 623 995 c 3x78
 624 995 685 1010 690 1010 c 3
 753 1010 784 979 784 918 c 3
 784 851 726 806 662 806 c 3
EndSplineSet
EndChar

StartChar: quotedblright
Encoding: 311 8221 118
Width: 840
VWidth: 3198
Flags: W
HStem: 1074 205<85.7905 258.648 526.83 696.343>
VStem: 259 86<934.381 1140> 697 87<934.78 1139.5>
LayerCount: 3
Fore
SplineSet
547 803 m 1,0,-1
 547 848 l 1,1,2
 697 918 697 918 697 1029 c 0,3,4
 697 1087 697 1087 668 1087 c 0,5,6
 662 1087 662 1087 637 1084 c 1,7,8
 608 1074 608 1074 601 1074 c 0,9,10
 559 1074 559 1074 532.5 1103 c 128,-1,11
 506 1132 506 1132 506 1174 c 0,12,13
 506 1218 506 1218 539.5 1248.5 c 128,-1,14
 573 1279 573 1279 626 1279 c 0,15,16
 690 1279 690 1279 737 1223.5 c 128,-1,17
 784 1168 784 1168 784 1093 c 0,18,19
 784 876 784 876 547 803 c 1,0,-1
109 803 m 1,20,-1
 109 848 l 1,21,22
 214 906 214 906 236.5 947.5 c 128,-1,23
 259 989 259 989 259 1040 c 0,24,25
 259 1087 259 1087 226 1087 c 0,26,27
 220 1087 220 1087 192 1084 c 1,28,29
 166 1074 166 1074 156 1074 c 0,30,31
 58 1074 58 1074 58 1168 c 0,32,33
 58 1212 58 1212 96 1245.5 c 128,-1,34
 134 1279 134 1279 183 1279 c 0,35,36
 250 1279 250 1279 297.5 1223.5 c 128,-1,37
 345 1168 345 1168 345 1093 c 0,38,39
 345 873 345 873 109 803 c 1,20,-1
EndSplineSet
Layer: 2
SplineSet
626 1279 m 3
 716 1279 784 1186 784 1093 c 3
 784 948 705 852 547 803 c 1
 547 848 l 1
 647 895 697 955 697 1029 c 3
 697 1068 687 1087 668 1087 c 3
 664 1087 654 1086 637 1084 c 1
 618 1077 606 1074 601 1074 c 3
 545 1074 506 1118 506 1174 c 3
 506 1237 561 1279 626 1279 c 3
183 1279 m 3
 276 1279 345 1187 345 1093 c 3
 345 946 266 850 109 803 c 1
 109 848 l 1
 210 904 259 931 259 1040 c 3
 259 1071 248 1087 226 1087 c 3
 222 1087 211 1086 192 1084 c 1
 175 1077 163 1074 156 1074 c 3
 91 1074 58 1105 58 1168 c 3
 58 1229 121 1279 183 1279 c 3
EndSplineSet
EndChar

StartChar: bullet
Encoding: 315 8226 119
Width: 1208
VWidth: 3198
Flags: W
HStem: 464 592<449.837 757.651>
VStem: 308 595<607.452 914.89>
LayerCount: 3
Fore
SplineSet
308 761 m 256,0,1
 308 885 308 885 393.5 970.5 c 128,-1,2
 479 1056 479 1056 604 1056 c 256,3,4
 729 1056 729 1056 816 970.5 c 128,-1,5
 903 885 903 885 903 761 c 256,6,7
 903 637 903 637 814.5 550.5 c 128,-1,8
 726 464 726 464 604 464 c 0,9,10
 479 464 479 464 393.5 550.5 c 128,-1,11
 308 637 308 637 308 761 c 256,0,1
EndSplineSet
Layer: 2
SplineSet
604 464 m 3
 439 464 308 596 308 761 c 259
 308 926 439 1056 604 1056 c 259
 769 1056 903 926 903 761 c 259
 903 598 766 464 604 464 c 3
EndSplineSet
EndChar

StartChar: endash
Encoding: 305 8211 120
Width: 1022
VWidth: 3198
Flags: W
HStem: 476 135<0 1023>
LayerCount: 3
Fore
SplineSet
0 611 m 1,0,-1
 1023 611 l 1,1,-1
 1023 476 l 1,2,-1
 0 476 l 1,3,-1
 0 611 l 1,0,-1
EndSplineSet
Layer: 2
SplineSet
0 611 m 1
 1023 611 l 1
 1023 476 l 1
 0 476 l 1
 0 611 l 1
EndSplineSet
EndChar

StartChar: emdash
Encoding: 306 8212 121
Width: 2045
VWidth: 3198
Flags: W
HStem: 476 135<0 2047>
LayerCount: 3
Fore
SplineSet
0 611 m 1,0,-1
 2047 611 l 1,1,-1
 2047 476 l 1,2,-1
 0 476 l 1,3,-1
 0 611 l 1,0,-1
EndSplineSet
Layer: 2
SplineSet
0 611 m 1
 2047 611 l 1
 2047 476 l 1
 0 476 l 1
 0 611 l 1
EndSplineSet
EndChar

StartChar: uni0E01
Encoding: 212 3585 131
Width: 1313
VWidth: 3198
Flags: W
HStem: 0 21G<144 336 973 1074.46> 851 95<156 290> 1132 103<349.232 832.968>
VStem: 144 192<0 759.821> 973 195<141 993.272>
LayerCount: 3
Fore
SplineSet
973 825 m 2,0,1
 973 967 973 967 887.5 1049.5 c 128,-1,2
 802 1132 802 1132 653 1132 c 0,3,4
 466 1132 466 1132 351 1089 c 128,-1,5
 236 1046 236 1046 156 946 c 1,6,-1
 486 946 l 1,7,-1
 486 864 l 1,8,9
 392 808 392 808 364 771 c 128,-1,10
 336 734 336 734 336 665 c 2,11,-1
 336 0 l 1,12,-1
 144 0 l 1,13,-1
 144 653 l 2,14,15
 144 703 144 703 173.5 743 c 128,-1,16
 203 783 203 783 290 851 c 1,17,-1
 25 851 l 1,18,-1
 25 995 l 1,19,20
 205 1135 205 1135 330 1185 c 128,-1,21
 455 1235 455 1235 626 1235 c 0,22,23
 886 1235 886 1235 1027 1123 c 128,-1,24
 1168 1011 1168 1011 1168 806 c 2,25,-1
 1168 141 l 1,26,-1
 1059 0 l 1,27,-1
 973 0 l 1,28,-1
 973 825 l 2,0,1
EndSplineSet
Layer: 2
SplineSet
973 825 m 2
 973 1015 851 1132 653 1132 c 3
 403 1132 263 1079 156 946 c 1
 486 946 l 1
 486 864 l 1
 360 789 336 757 336 665 c 2
 336 0 l 1
 144 0 l 1
 144 653 l 2
 144 719 174 760 290 851 c 1
 25 851 l 1
 25 995 l 1
 265 1182 399 1235 626 1235 c 3
 972 1235 1168 1080 1168 806 c 2
 1168 141 l 1
 1059 0 l 1
 973 0 l 1
 973 825 l 2
EndSplineSet
EndChar

StartChar: uni0E02
Encoding: 213 3586 132
Width: 1199
VWidth: 3198
Flags: W
HStem: 0 106<186 301 498 854> 707 61<164.243 294.345> 985 68<157.014 295.708> 1151 76<236.82 464.329>
VStem: 12 122<786.351 971.04> 301 197<106 555.688> 323 113<782.234 966.978> 550 182<793.521 1072.32> 854 199<107.578 1084>
LayerCount: 3
Fore
SplineSet
436 892 m 0,0,1
 436 806 436 806 379.5 756.5 c 128,-1,2
 323 707 323 707 226 707 c 0,3,4
 133 707 133 707 72.5 760 c 128,-1,5
 12 813 12 813 12 895 c 0,6,7
 12 1034 12 1034 111.5 1130.5 c 128,-1,8
 211 1227 211 1227 355 1227 c 0,9,10
 524 1227 524 1227 628 1144.5 c 128,-1,11
 732 1062 732 1062 732 928 c 0,12,13
 732 856 732 856 696 804 c 2,14,-1
 536 570 l 2,15,16
 498 514 498 514 498 445 c 2,17,-1
 498 106 l 1,18,-1
 854 106 l 1,19,-1
 854 1084 l 1,20,-1
 970 1215 l 1,21,-1
 1049 1215 l 1,22,-1
 1053 195 l 2,23,24
 1053 94 1053 94 1006.5 47 c 128,-1,25
 960 0 960 0 860 0 c 2,26,-1
 186 0 l 1,27,-1
 186 106 l 1,28,-1
 301 106 l 1,29,-1
 301 415 l 2,30,31
 301 492 301 492 340 548 c 2,32,-1
 512 794 l 2,33,34
 550 848 550 848 550 940 c 0,35,36
 550 1028 550 1028 493 1089.5 c 128,-1,37
 436 1151 436 1151 355 1151 c 0,38,39
 295 1151 295 1151 234 1113 c 128,-1,40
 173 1075 173 1075 156 1026 c 1,41,42
 213 1053 213 1053 256 1053 c 0,43,44
 338 1053 338 1053 387 1009.5 c 128,-1,45
 436 966 436 966 436 892 c 0,0,1
134 882 m 0,46,47
 134 828 134 828 163 798 c 128,-1,48
 192 768 192 768 244 768 c 0,49,50
 276 768 276 768 299.5 803 c 128,-1,51
 323 838 323 838 323 885 c 0,52,53
 323 923 323 923 294.5 954 c 128,-1,54
 266 985 266 985 230 985 c 0,55,56
 187 985 187 985 160.5 956.5 c 128,-1,57
 134 928 134 928 134 882 c 0,46,47
EndSplineSet
Layer: 2
SplineSet
436 892 m 3xfb80
 436 778 356 707 226 707 c 3
 102 707 12 786 12 895 c 3
 12 1081 163 1227 355 1227 c 3
 581 1227 732 1107 732 928 c 3
 732 880 720 839 696 804 c 2
 536 570 l 2
 511 533 498 491 498 445 c 2
 498 106 l 1
 854 106 l 1
 854 1084 l 1
 970 1215 l 1
 1049 1215 l 1
 1053 195 l 2
 1053 60 994 0 860 0 c 2
 186 0 l 1
 186 106 l 1
 301 106 l 1
 301 415 l 2xfd80
 301 467 314 511 340 548 c 2
 512 794 l 2
 538 831 550 878 550 940 c 3
 550 1057 463 1151 355 1151 c 3
 275 1151 179 1091 156 1026 c 1
 198 1046 226 1053 256 1053 c 3
 366 1053 436 990 436 892 c 3xfb80
134 882 m 3
 134 810 175 768 244 768 c 3
 286 768 323 822 323 885 c 3xfb80
 323 936 278 985 230 985 c 3
 173 985 134 944 134 882 c 3
EndSplineSet
EndChar

StartChar: uni0E03
Encoding: 214 3587 133
Width: 1215
VWidth: 3198
Flags: W
HStem: 0 109<189 314 512 867> 662 58<195.517 304.665> 925 70<187.083 323.19> 1117 107<473.082 608.163>
VStem: 12 135<862.958 1116.75> 314 198<109 546.595> 336 100<735.48 918.721> 614 167<851.255 1114.63> 867 195<109.896 1101>
LayerCount: 3
Fore
SplineSet
570 1224 m 0,0,1
 670 1224 670 1224 725.5 1166.5 c 128,-1,2
 781 1109 781 1109 781 1007 c 0,3,4
 781 927 781 927 755.5 863 c 128,-1,5
 730 799 730 799 666 717 c 2,6,-1
 578 604 l 2,7,8
 512 519 512 519 512 355 c 2,9,-1
 512 109 l 1,10,-1
 867 109 l 1,11,-1
 867 1101 l 1,12,-1
 979 1215 l 1,13,-1
 1062 1215 l 1,14,-1
 1062 156 l 2,15,16
 1062 99 1062 99 1001 49.5 c 128,-1,17
 940 0 940 0 870 0 c 2,18,-1
 189 0 l 1,19,-1
 189 109 l 1,20,-1
 314 109 l 1,21,-1
 314 412 l 2,22,23
 314 489 314 489 360 550 c 2,24,-1
 464 689 l 2,25,26
 553 808 553 808 583.5 876.5 c 128,-1,27
 614 945 614 945 614 1026 c 0,28,29
 614 1076 614 1076 602 1096.5 c 128,-1,30
 590 1117 590 1117 559 1117 c 0,31,32
 537 1117 537 1117 478 1076 c 0,33,34
 422 1037 422 1037 381 1037 c 128,-1,35
 340 1037 340 1037 292 1064.5 c 128,-1,36
 244 1092 244 1092 214 1132 c 1,37,38
 182 1118 182 1118 164.5 1080 c 128,-1,39
 147 1042 147 1042 147 988 c 0,40,41
 147 963 147 963 150 950 c 1,42,43
 218 995 218 995 262 995 c 0,44,45
 345 995 345 995 390.5 952 c 128,-1,46
 436 909 436 909 436 831 c 0,47,48
 436 754 436 754 384.5 708 c 128,-1,49
 333 662 333 662 247 662 c 0,50,51
 140 662 140 662 76 743.5 c 128,-1,52
 12 825 12 825 12 962 c 0,53,54
 12 1072 12 1072 66 1145 c 128,-1,55
 120 1218 120 1218 201 1218 c 0,56,57
 283 1218 283 1218 390 1120 c 1,58,59
 494 1224 494 1224 570 1224 c 0,0,1
250 720 m 256,60,61
 284 720 284 720 310 752.5 c 128,-1,62
 336 785 336 785 336 828 c 0,63,64
 336 925 336 925 259 925 c 0,65,66
 220 925 220 925 193 897.5 c 128,-1,67
 166 870 166 870 166 831 c 0,68,69
 166 786 166 786 191 753 c 128,-1,70
 216 720 216 720 250 720 c 256,60,61
EndSplineSet
Layer: 2
SplineSet
570 1224 m 3xfb80
 703 1224 781 1143 781 1007 c 259
 781 901 752 827 666 717 c 2
 578 604 l 2
 532 545 512 470 512 355 c 2
 512 109 l 1
 867 109 l 1
 867 1101 l 1
 979 1215 l 1
 1062 1215 l 1
 1062 156 l 2
 1062 80 964 0 870 0 c 2
 189 0 l 1
 189 109 l 1
 314 109 l 1
 314 412 l 2xfd80
 314 463 329 509 360 550 c 2
 464 689 l 2
 582 847 614 918 614 1026 c 3
 614 1093 600 1117 559 1117 c 3
 543 1117 520 1105 478 1076 c 0
 438 1048 410 1037 381 1037 c 3
 327 1037 254 1078 214 1132 c 1
 172 1113 147 1060 147 988 c 3
 147 967 148 959 150 950 c 1
 197 981 233 995 262 995 c 3
 372 995 436 935 436 831 c 3
 436 729 362 662 247 662 c 3
 104 662 12 780 12 962 c 3
 12 1108 93 1218 201 1218 c 3
 253 1218 322 1182 390 1120 c 1
 464 1194 516 1224 570 1224 c 3xfb80
250 720 m 259
 295 720 336 771 336 828 c 259xfb80
 336 892 310 925 259 925 c 3
 207 925 166 883 166 831 c 3
 166 771 204 720 250 720 c 259
EndSplineSet
EndChar

StartChar: uni0E04
Encoding: 215 3588 134
Width: 1325
VWidth: 3198
Flags: W
HStem: 0 21G<198 384 982 1091.98> 473 74<412.704 552.628> 828 75<417.038 562.228> 1135 89<393.362 829.027>
VStem: 45 121<607.651 944.496> 198 186<0 478.621> 595 125<578.589 802.41> 982 199<119 985.219>
LayerCount: 3
Fore
SplineSet
495 473 m 0,0,1
 460 473 460 473 384 492 c 1,2,-1
 384 0 l 1,3,-1
 198 0 l 1,4,-1
 198 419 l 1,5,6
 110 531 110 531 77.5 607.5 c 128,-1,7
 45 684 45 684 45 781 c 0,8,9
 45 901 45 901 121.5 1003 c 128,-1,10
 198 1105 198 1105 330 1164.5 c 128,-1,11
 462 1224 462 1224 617 1224 c 0,12,13
 873 1224 873 1224 1027 1113.5 c 128,-1,14
 1181 1003 1181 1003 1181 818 c 2,15,-1
 1181 119 l 1,16,-1
 1074 0 l 1,17,-1
 982 0 l 1,18,-1
 982 828 l 2,19,20
 982 969 982 969 890.5 1052 c 128,-1,21
 799 1135 799 1135 643 1135 c 0,22,23
 423 1135 423 1135 294.5 1040.5 c 128,-1,24
 166 946 166 946 166 784 c 0,25,26
 166 737 166 737 183 677.5 c 128,-1,27
 200 618 200 618 220 592 c 1,28,29
 246 762 246 762 306.5 832.5 c 128,-1,30
 367 903 367 903 486 903 c 0,31,32
 585 903 585 903 652.5 846.5 c 128,-1,33
 720 790 720 790 720 707 c 0,34,35
 720 598 720 598 660 535.5 c 128,-1,36
 600 473 600 473 495 473 c 0,0,1
372 690 m 0,37,38
 372 631 372 631 406.5 589 c 128,-1,39
 441 547 441 547 489 547 c 0,40,41
 530 547 530 547 562.5 593 c 128,-1,42
 595 639 595 639 595 697 c 0,43,44
 595 749 595 749 564 788.5 c 128,-1,45
 533 828 533 828 492 828 c 0,46,47
 448 828 448 828 410 784.5 c 128,-1,48
 372 741 372 741 372 690 c 0,37,38
EndSplineSet
Layer: 2
SplineSet
495 473 m 3
 468 473 440 478 384 492 c 1
 384 0 l 1
 198 0 l 1
 198 419 l 1
 80 569 45 652 45 781 c 3
 45 1025 302 1224 617 1224 c 259
 959 1224 1181 1064 1181 818 c 2
 1181 119 l 1
 1074 0 l 1
 982 0 l 1
 982 828 l 2
 982 1016 851 1135 643 1135 c 3
 349 1135 166 1000 166 784 c 3
 166 721 193 626 220 592 c 1
 255 819 327 903 486 903 c 3
 618 903 720 818 720 707 c 3
 720 562 635 473 495 473 c 3
372 690 m 3
 372 612 425 547 489 547 c 3
 543 547 595 620 595 697 c 3
 595 767 547 828 492 828 c 259
 433 828 372 758 372 690 c 3
EndSplineSet
EndChar

StartChar: uni0E05
Encoding: 216 3589 135
Width: 1358
VWidth: 3198
Flags: W
HStem: 0 21G<287 476 1017 1119.66> 454 68<501.144 638.019> 800 67<504.92 645.237> 1014 106<558.655 771.762> 1081 150<806.017 982.87> 1132 99<303.435 499.96>
VStem: 73 116<705.658 988.86> 287 189<0 479.481> 681 115<554.491 776.56> 1017 195<119 1045.11>
LayerCount: 3
Fore
SplineSet
608 454 m 0,0,1
 558 454 558 454 531 460 c 128,-1,2
 504 466 504 466 476 483 c 1,3,-1
 476 0 l 1,4,-1
 287 0 l 1,5,-1
 287 445 l 1,6,7
 73 670 73 670 73 818 c 0,8,9
 73 921 73 921 122 1017 c 128,-1,10
 171 1113 171 1113 250.5 1172 c 128,-1,11
 330 1231 330 1231 415 1231 c 0,12,13
 471 1231 471 1231 544 1175 c 0,14,15
 614 1120 614 1120 659 1120 c 0,16,17
 705 1120 705 1120 788 1175 c 0,18,19
 869 1231 869 1231 912 1231 c 0,20,21
 1038 1231 1038 1231 1125 1118 c 128,-1,22
 1212 1005 1212 1005 1212 842 c 2,23,-1
 1212 119 l 1,24,-1
 1101 0 l 1,25,-1
 1017 0 l 1,26,-1
 1017 876 l 2,27,28
 1017 985 1017 985 989 1033 c 128,-1,29
 961 1081 961 1081 898 1081 c 0,30,31
 855 1081 855 1081 795 1053 c 0,32,33
 711 1014 711 1014 665 1014 c 0,34,35
 602 1014 602 1014 521 1073 c 0,36,37
 442 1132 442 1132 390 1132 c 0,38,39
 323 1132 323 1132 256 1030 c 128,-1,40
 189 928 189 928 189 825 c 0,41,42
 189 737 189 737 311 604 c 1,43,-1
 323 675 l 2,44,45
 337 754 337 754 409.5 810.5 c 128,-1,46
 482 867 482 867 570 867 c 0,47,48
 669 867 669 867 732.5 813 c 128,-1,49
 796 759 796 759 796 675 c 0,50,51
 796 583 796 583 741.5 518.5 c 128,-1,52
 687 454 687 454 608 454 c 0,0,1
576 522 m 0,53,54
 616 522 616 522 648.5 568 c 128,-1,55
 681 614 681 614 681 672 c 0,56,57
 681 724 681 724 650.5 762 c 128,-1,58
 620 800 620 800 579 800 c 0,59,60
 533 800 533 800 495.5 758 c 128,-1,61
 458 716 458 716 458 665 c 0,62,63
 458 606 458 606 492.5 564 c 128,-1,64
 527 522 527 522 576 522 c 0,53,54
EndSplineSet
Layer: 2
SplineSet
608 454 m 3xf7c0
 542 454 513 460 476 483 c 1
 476 0 l 1
 287 0 l 1
 287 445 l 1
 145 594 73 719 73 818 c 3
 73 1028 241 1231 415 1231 c 3
 454 1231 493 1214 544 1175 c 0
 590 1139 631 1120 659 1120 c 3xf7c0
 694 1120 728 1135 788 1175 c 0
 847 1216 880 1231 912 1231 c 3
 1080 1231 1212 1060 1212 842 c 2
 1212 119 l 1
 1101 0 l 1
 1017 0 l 1
 1017 876 l 2
 1017 1021 982 1081 898 1081 c 3xebc0
 864 1081 842 1075 795 1053 c 0
 728 1022 703 1014 665 1014 c 3
 627 1014 569 1038 521 1073 c 0
 473 1109 421 1132 390 1132 c 3
 300 1132 189 962 189 825 c 3
 189 767 230 692 311 604 c 1
 323 675 l 2
 342 780 453 867 570 867 c 3
 702 867 796 787 796 675 c 3
 796 552 713 454 608 454 c 3xf7c0
576 522 m 3
 630 522 681 595 681 672 c 3
 681 741 634 800 579 800 c 259
 518 800 458 733 458 665 c 3
 458 586 511 522 576 522 c 3
EndSplineSet
EndChar

StartChar: uni0E06
Encoding: 217 3590 136
Width: 1374
VWidth: 3198
Flags: W
HStem: 0 77<284.687 366.027> 406 97<308.617 375> 681 64<176.407 298.061> 934 73<165.089 295.525> 1120 101<507.345 634.199>
VStem: 25 128<755.878 1022.75> 116 146<88.3855 362.814> 314 114<752.044 924.98> 375 184<77.5879 358 491.364 641.991> 643 160<864.168 1117.68> 1029 198<183 1110>
LayerCount: 3
Fore
SplineSet
25 906 m 0,0,1
 25 1068 25 1068 74 1146 c 128,-1,2
 123 1224 123 1224 226 1224 c 0,3,4
 255 1224 255 1224 318 1187 c 0,5,6
 358 1163 358 1163 406 1129 c 1,7,8
 463 1158 463 1158 507 1189 c 0,9,10
 556 1221 556 1221 617 1221 c 0,11,12
 707 1221 707 1221 755 1162.5 c 128,-1,13
 803 1104 803 1104 803 995 c 0,14,15
 803 925 803 925 766 866 c 0,16,17
 717 787 717 787 602 652 c 0,18,19
 565 609 565 609 565 550 c 2,20,-1
 565 483 l 1,21,22
 870 296 870 296 1029 183 c 1,23,-1
 1029 1110 l 1,24,-1
 1145 1215 l 1,25,-1
 1227 1215 l 1,26,-1
 1227 3 l 1,27,-1
 1046 3 l 1,28,29
 884 142 884 142 559 358 c 1,30,-1
 559 208 l 2,31,32
 559 98 559 98 506.5 49 c 128,-1,33
 454 0 454 0 336 0 c 0,34,35
 228 0 228 0 172 59.5 c 128,-1,36
 116 119 116 119 116 234 c 0,37,38
 116 324 116 324 190 400.5 c 128,-1,39
 264 477 264 477 375 503 c 1,40,-1
 375 553 l 2,41,42
 375 600 375 600 416 642 c 0,43,44
 550 785 550 785 601 868 c 0,45,46
 643 937 643 937 643 1034 c 0,47,48
 643 1066 643 1066 627 1093 c 128,-1,49
 611 1120 611 1120 592 1120 c 0,50,51
 558 1120 558 1120 500 1070 c 128,-1,52
 442 1020 442 1020 406 1020 c 0,53,54
 350 1020 350 1020 300 1058 c 0,55,56
 248 1098 248 1098 195 1123 c 1,57,58
 153 1055 153 1055 147 965 c 1,59,60
 198 1007 198 1007 262 1007 c 0,61,62
 343 1007 343 1007 385.5 967 c 128,-1,63
 428 927 428 927 428 851 c 0,64,65
 428 774 428 774 377 727.5 c 128,-1,66
 326 681 326 681 241 681 c 0,67,68
 140 681 140 681 82.5 741 c 128,-1,69
 25 801 25 801 25 906 c 0,0,1
153 845 m 0,70,71
 153 806 153 806 176.5 775.5 c 128,-1,72
 200 745 200 745 230 745 c 0,73,74
 314 745 314 745 314 836 c 0,75,76
 314 874 314 874 291.5 904 c 128,-1,77
 269 934 269 934 241 934 c 0,78,79
 153 934 153 934 153 845 c 0,70,71
342 77 m 0,80,81
 349 77 349 77 362 102.5 c 128,-1,82
 375 128 375 128 375 141 c 2,83,-1
 375 406 l 1,84,85
 326 396 326 396 294 346 c 128,-1,86
 262 296 262 296 262 230 c 0,87,88
 262 157 262 157 283 117 c 128,-1,89
 304 77 304 77 342 77 c 0,80,81
EndSplineSet
Layer: 2
SplineSet
25 906 m 3xfd60
 25 1122 89 1224 226 1224 c 3
 248 1224 272 1214 318 1187 c 0
 350 1168 385 1144 406 1129 c 1
 441 1147 474 1166 507 1189 c 0
 539 1210 575 1221 617 1221 c 3
 737 1221 803 1140 803 995 c 3
 803 948 791 906 766 866 c 0
 730 808 688 753 602 652 c 0
 577 623 565 589 565 550 c 2
 565 483 l 1
 798 340 912 266 1029 183 c 1
 1029 1110 l 1
 1145 1215 l 1
 1227 1215 l 1
 1227 3 l 1
 1046 3 l 1
 934 99 774 215 559 358 c 1
 559 208 l 2
 559 61 494 0 336 0 c 259
 192 0 116 81 116 234 c 3
 116 354 227 469 375 503 c 1
 375 553 l 2
 375 584 388 613 416 642 c 0
 516 749 562 805 601 868 c 0
 629 914 643 969 643 1034 c 3
 643 1077 617 1120 592 1120 c 259
 567 1120 542 1106 500 1070 c 0
 457 1033 433 1020 406 1020 c 3
 368 1020 333 1033 300 1058 c 0
 265 1085 231 1106 195 1123 c 1
 167 1078 151 1026 147 965 c 1
 181 993 219 1007 262 1007 c 3xfae0
 370 1007 428 952 428 851 c 3
 428 748 355 681 241 681 c 3
 106 681 25 766 25 906 c 3xfd60
153 845 m 3xfd60
 153 793 190 745 230 745 c 3
 286 745 314 775 314 836 c 3
 314 887 279 934 241 934 c 3
 182 934 153 904 153 845 c 3xfd60
342 77 m 3
 351 77 375 124 375 141 c 2
 375 406 l 1
 310 393 262 318 262 230 c 3xfae0
 262 133 291 77 342 77 c 3
EndSplineSet
EndChar

StartChar: uni0E07
Encoding: 218 3591 137
Width: 943
VWidth: 3198
Flags: W
HStem: -3 21G<545.114 728.5> 778 67<469.263 603.352> 1171 60<474.069 602.684>
VStem: 294 128<881.111 1136.14> 604 192<153 787> 643 153<872 1135.11>
LayerCount: 3
Fore
SplineSet
543 1231 m 256,0,1
 653 1231 653 1231 724.5 1165.5 c 128,-1,2
 796 1100 796 1100 796 998 c 2,3,-1
 796 109 l 2,4,5
 796 84 796 84 765 40.5 c 128,-1,6
 734 -3 734 -3 717 -3 c 2,7,-1
 562 -3 l 1,8,-1
 36 620 l 1,9,-1
 189 620 l 1,10,-1
 604 153 l 1,11,-1
 604 787 l 1,12,13
 568 778 568 778 543 778 c 0,14,15
 431 778 431 778 362.5 843 c 128,-1,16
 294 908 294 908 294 1014 c 0,17,18
 294 1114 294 1114 361.5 1172.5 c 128,-1,19
 429 1231 429 1231 543 1231 c 256,0,1
422 1017 m 0,20,21
 422 942 422 942 455 893.5 c 128,-1,22
 488 845 488 845 540 845 c 0,23,24
 587 845 587 845 615 892 c 128,-1,25
 643 939 643 939 643 1017 c 0,26,27
 643 1084 643 1084 614 1127.5 c 128,-1,28
 585 1171 585 1171 540 1171 c 0,29,30
 492 1171 492 1171 457 1125.5 c 128,-1,31
 422 1080 422 1080 422 1017 c 0,20,21
EndSplineSet
Layer: 2
SplineSet
543 1231 m 259xf8
 690 1231 796 1134 796 998 c 2
 796 109 l 2xf4
 796 76 740 -3 717 -3 c 2
 562 -3 l 1
 36 620 l 1
 189 620 l 1
 604 153 l 1
 604 787 l 1
 580 781 562 778 543 778 c 3
 394 778 294 873 294 1014 c 259
 294 1147 391 1231 543 1231 c 259xf8
422 1017 m 3
 422 917 471 845 540 845 c 3
 602 845 643 913 643 1017 c 3
 643 1107 600 1171 540 1171 c 259
 476 1171 422 1101 422 1017 c 3
EndSplineSet
EndChar

StartChar: uni0E08
Encoding: 219 3592 138
Width: 1108
VWidth: 3198
Flags: W
HStem: 6 97<701 771> 412 80<278.691 406.855> 757 74<273.759 390.108> 1142 85<317.811 679.632>
VStem: 109 138<517.132 742.209> 800 182<517.748 1012.99>
LayerCount: 3
Fore
SplineSet
800 787 m 0,0,1
 800 974 800 974 730 1058 c 128,-1,2
 660 1142 660 1142 503 1142 c 0,3,4
 378 1142 378 1142 271 1074.5 c 128,-1,5
 164 1007 164 1007 19 836 c 1,6,-1
 19 1056 l 1,7,8
 139 1153 139 1153 239 1190 c 128,-1,9
 339 1227 339 1227 483 1227 c 128,-1,10
 627 1227 627 1227 720.5 1204 c 128,-1,11
 814 1181 814 1181 873.5 1125 c 128,-1,12
 933 1069 933 1069 957.5 981 c 128,-1,13
 982 893 982 893 982 757 c 1,14,-1
 937 6 l 1,15,-1
 573 6 l 1,16,-1
 464 458 l 1,17,18
 403 412 403 412 330 412 c 0,19,20
 227 412 227 412 168 470 c 128,-1,21
 109 528 109 528 109 629 c 0,22,23
 109 720 109 720 173.5 775.5 c 128,-1,24
 238 831 238 831 345 831 c 0,25,26
 525 831 525 831 574 627 c 2,27,-1
 701 103 l 1,28,-1
 771 103 l 1,29,30
 800 666 800 666 800 787 c 0,0,1
247 626 m 0,31,32
 247 572 247 572 276.5 532 c 128,-1,33
 306 492 306 492 345 492 c 0,34,35
 379 492 379 492 403.5 525 c 128,-1,36
 428 558 428 558 428 604 c 0,37,38
 428 663 428 663 399 710 c 128,-1,39
 370 757 370 757 333 757 c 128,-1,40
 296 757 296 757 271.5 720 c 128,-1,41
 247 683 247 683 247 626 c 0,31,32
EndSplineSet
Layer: 2
SplineSet
800 787 m 3
 800 1036 712 1142 503 1142 c 3
 336 1142 212 1064 19 836 c 1
 19 1056 l 1
 179 1186 291 1227 483 1227 c 3
 860 1227 982 1112 982 757 c 1
 937 6 l 1
 573 6 l 1
 464 458 l 1
 423 427 379 412 330 412 c 3
 192 412 109 494 109 629 c 259
 109 751 203 831 345 831 c 3
 466 831 541 764 574 627 c 2
 701 103 l 1
 771 103 l 1
 792 511 800 689 800 787 c 3
247 626 m 3
 247 554 293 492 345 492 c 3
 390 492 428 543 428 604 c 3
 428 683 382 757 333 757 c 3
 283 757 247 702 247 626 c 3
EndSplineSet
EndChar

StartChar: uni0E09
Encoding: 220 3593 139
Width: 1282
VWidth: 3198
Flags: W
HStem: -6 73<951.874 1052.03> 375 86<211.562 341.013> 687 77<219.364 348.018> 1138 93<412.369 805.287>
VStem: 58 134<476.767 666.995> 342 189<0 73.7911 192 390> 369 162<471.333 674.096> 790 141<77.0424 249.74> 940 195<412.158 994.018> 1071 138<75.7018 286.59>
LayerCount: 3
Fore
SplineSet
1059 361 m 1,0,1
 1131 344 1131 344 1170 297 c 128,-1,2
 1209 250 1209 250 1209 180 c 0,3,4
 1209 -6 1209 -6 1017 -6 c 0,5,6
 891 -6 891 -6 840.5 38.5 c 128,-1,7
 790 83 790 83 790 195 c 0,8,9
 790 205 790 205 795.5 224 c 128,-1,10
 801 243 801 243 806 250 c 1,11,12
 675 166 675 166 611 109.5 c 128,-1,13
 547 53 547 53 522 0 c 1,14,-1
 342 0 l 1,15,-1
 342 390 l 1,16,17
 308 375 308 375 256 375 c 0,18,19
 174 375 174 375 116 425.5 c 128,-1,20
 58 476 58 476 58 547 c 0,21,22
 58 648 58 648 122 706 c 128,-1,23
 186 764 186 764 297 764 c 0,24,25
 422 764 422 764 476.5 704.5 c 128,-1,26
 531 645 531 645 531 509 c 2,27,-1
 531 192 l 1,28,29
 702 302 702 302 770 332 c 0,30,31
 940 407 940 407 940 506 c 2,32,-1
 940 809 l 2,33,34
 940 969 940 969 857 1053.5 c 128,-1,35
 774 1138 774 1138 617 1138 c 0,36,37
 342 1138 342 1138 25 821 c 1,38,-1
 25 1040 l 1,39,40
 147 1132 147 1132 297.5 1181.5 c 128,-1,41
 448 1231 448 1231 604 1231 c 0,42,43
 885 1231 885 1231 1010 1133 c 128,-1,44
 1135 1035 1135 1035 1135 815 c 2,45,-1
 1135 509 l 2,46,47
 1135 474 1135 474 1125.5 456 c 128,-1,48
 1116 438 1116 438 1059 361 c 1,0,1
1071 189 m 0,49,50
 1071 232 1071 232 1051.5 263 c 128,-1,51
 1032 294 1032 294 1004 294 c 0,52,53
 970 294 970 294 950.5 262.5 c 128,-1,54
 931 231 931 231 931 176 c 0,55,56
 931 133 931 133 952.5 100 c 128,-1,57
 974 67 974 67 1001 67 c 0,58,59
 1032 67 1032 67 1051.5 101 c 128,-1,60
 1071 135 1071 135 1071 189 c 0,49,50
278 461 m 0,61,62
 322 461 322 461 345.5 487 c 128,-1,63
 369 513 369 513 369 562 c 0,64,65
 369 616 369 616 346.5 651.5 c 128,-1,66
 324 687 324 687 290 687 c 0,67,68
 249 687 249 687 220.5 652 c 128,-1,69
 192 617 192 617 192 565 c 0,70,71
 192 526 192 526 219 493.5 c 128,-1,72
 246 461 246 461 278 461 c 0,61,62
EndSplineSet
Layer: 2
SplineSet
1059 361 m 1xfd80
 1155 339 1209 274 1209 180 c 3
 1209 55 1146 -6 1017 -6 c 3
 849 -6 790 46 790 195 c 3
 790 208 799 240 806 250 c 1
 631 138 555 71 522 0 c 1
 342 0 l 1
 342 390 l 1xfd40
 319 380 291 375 256 375 c 3
 147 375 58 452 58 547 c 3
 58 681 149 764 297 764 c 3
 463 764 531 690 531 509 c 2xfb
 531 192 l 1
 660 275 718 309 770 332 c 0
 885 383 940 439 940 506 c 2
 940 809 l 2
 940 1022 826 1138 617 1138 c 3
 437 1138 233 1029 25 821 c 1
 25 1040 l 1
 187 1162 396 1231 604 1231 c 3
 979 1231 1135 1109 1135 815 c 2
 1135 509 l 2
 1135 463 1136 464 1059 361 c 1xfd80
1071 189 m 3
 1071 247 1041 294 1004 294 c 3
 959 294 931 249 931 176 c 3
 931 119 965 67 1001 67 c 3
 1042 67 1071 117 1071 189 c 3
278 461 m 3
 337 461 369 497 369 562 c 3xfb
 369 634 336 687 290 687 c 3
 235 687 192 634 192 565 c 3
 192 513 235 461 278 461 c 3
EndSplineSet
EndChar

StartChar: uni0E0A
Encoding: 221 3594 140
Width: 1239
VWidth: 3198
Flags: W
HStem: -3 112<201 330 525 903> 690 67<182.74 304.419> 946 91<169.795 311.074> 1151 73<264.319 506.302>
VStem: 19 140<773.059 1001.29> 323 122<766.575 933.655> 330 195<109 512.085> 595 150<790.534 1073.53> 903 198<110.573 801.909>
LayerCount: 3
Fore
SplineSet
781 979 m 1,0,1
 862 1017 862 1017 932.5 1097.5 c 128,-1,2
 1003 1178 1003 1178 1037 1270 c 1,3,-1
 1227 1270 l 1,4,5
 1155 1149 1155 1149 1078 1071 c 128,-1,6
 1001 993 1001 993 898 937 c 1,7,8
 981 909 981 909 1041 826.5 c 128,-1,9
 1101 744 1101 744 1101 656 c 2,10,-1
 1101 159 l 2,11,12
 1101 83 1101 83 1050 40 c 128,-1,13
 999 -3 999 -3 909 -3 c 2,14,-1
 201 -3 l 1,15,-1
 201 109 l 1,16,-1
 330 109 l 1,17,-1
 330 400 l 2,18,19
 330 432 330 432 347 466.5 c 128,-1,20
 364 501 364 501 423 588 c 0,21,22
 533 750 533 750 564 815 c 128,-1,23
 595 880 595 880 595 950 c 0,24,25
 595 1033 595 1033 537 1092 c 128,-1,26
 479 1151 479 1151 397 1151 c 0,27,28
 314 1151 314 1151 243.5 1103.5 c 128,-1,29
 173 1056 173 1056 159 989 c 1,30,31
 217 1037 217 1037 290 1037 c 0,32,33
 359 1037 359 1037 402 990 c 128,-1,34
 445 943 445 943 445 867 c 0,35,36
 445 786 445 786 393 738 c 128,-1,37
 341 690 341 690 253 690 c 0,38,39
 145 690 145 690 82 750.5 c 128,-1,40
 19 811 19 811 19 915 c 0,41,42
 19 1048 19 1048 123 1136 c 128,-1,43
 227 1224 227 1224 384 1224 c 0,44,45
 544 1224 544 1224 644.5 1153 c 128,-1,46
 745 1082 745 1082 745 970 c 0,47,48
 745 899 745 899 726 847.5 c 128,-1,49
 707 796 707 796 627 654 c 0,50,51
 558 531 558 531 541.5 487 c 128,-1,52
 525 443 525 443 525 384 c 2,53,-1
 525 109 l 1,54,-1
 903 109 l 1,55,-1
 903 650 l 2,56,57
 903 740 903 740 876 790.5 c 128,-1,58
 849 841 849 841 781 882 c 1,59,-1
 781 979 l 1,0,1
244 757 m 128,-1,61
 278 757 278 757 300.5 784 c 128,-1,62
 323 811 323 811 323 851 c 0,63,64
 323 892 323 892 298.5 919 c 128,-1,65
 274 946 274 946 237 946 c 0,66,67
 203 946 203 946 181 920 c 128,-1,68
 159 894 159 894 159 854 c 0,69,70
 159 816 159 816 184.5 786.5 c 128,-1,60
 210 757 210 757 244 757 c 128,-1,61
EndSplineSet
Layer: 2
SplineSet
781 979 m 1xfb80
 889 1030 992 1147 1037 1270 c 1
 1227 1270 l 1
 1131 1109 1035 1012 898 937 c 1
 1009 900 1101 773 1101 656 c 2
 1101 159 l 2
 1101 58 1029 -3 909 -3 c 2
 201 -3 l 1
 201 109 l 1
 330 109 l 1
 330 400 l 2xfb80
 330 443 344 472 423 588 c 0
 569 803 595 857 595 950 c 3
 595 1061 506 1151 397 1151 c 3
 286 1151 178 1078 159 989 c 1
 201 1024 237 1037 290 1037 c 3
 382 1037 445 968 445 867 c 3xfd80
 445 759 370 690 253 690 c 3
 109 690 19 777 19 915 c 3
 19 1092 175 1224 384 1224 c 3
 597 1224 745 1120 745 970 c 3
 745 875 733 843 627 654 c 0
 535 490 525 463 525 384 c 2
 525 109 l 1
 903 109 l 1
 903 650 l 2
 903 770 872 828 781 882 c 1
 781 979 l 1xfb80
244 757 m 3
 289 757 323 798 323 851 c 3xfd80
 323 906 287 946 237 946 c 3
 192 946 159 908 159 854 c 259
 159 803 199 757 244 757 c 3
EndSplineSet
EndChar

StartChar: uni0E0B
Encoding: 222 3595 141
Width: 1300
VWidth: 3198
Flags: W
HStem: 0 106<226 375 573 950> 684 55<220.615 325.114> 925 79<214.62 340.877> 1123 98<196.329 319.921 529.18 648.812>
VStem: 48 138<870.12 1120.51> 351 110<749.381 920.446> 375 198<106 543.013> 653 140<869.032 1118.67> 950 195<108.736 825.399>
LayerCount: 3
Fore
SplineSet
241 1123 m 256,0,1
 186 1123 186 1123 186 995 c 0,2,3
 186 960 186 960 189 956 c 1,4,5
 205 976 205 976 240.5 990 c 128,-1,6
 276 1004 276 1004 311 1004 c 0,7,8
 382 1004 382 1004 421.5 964 c 128,-1,9
 461 924 461 924 461 854 c 0,10,11
 461 778 461 778 408 731 c 128,-1,12
 355 684 355 684 269 684 c 0,13,14
 170 684 170 684 109 760 c 128,-1,15
 48 836 48 836 48 959 c 0,16,17
 48 1083 48 1083 99 1152 c 128,-1,18
 150 1221 150 1221 241 1221 c 0,19,20
 294 1221 294 1221 338 1186 c 0,21,22
 381.5 1151.5 381.5 1151.5 425 1126 c 1,23,24
 455 1136 455 1136 499 1179 c 0,25,26
 550 1227 550 1227 604 1227 c 0,27,28
 793 1227 793 1227 793 1017 c 0,29,30
 793 937 793 937 768.5 870 c 128,-1,31
 744 803 744 803 654 636 c 0,32,33
 600 536 600 536 586.5 500 c 128,-1,34
 573 464 573 464 573 419 c 2,35,-1
 573 106 l 1,36,-1
 950 106 l 1,37,-1
 950 697 l 2,38,39
 950 759 950 759 918 816.5 c 128,-1,40
 886 874 886 874 836 903 c 1,41,-1
 836 982 l 1,42,43
 1014 1104 1014 1104 1087 1270 c 1,44,-1
 1288 1270 l 1,45,46
 1226 1165 1226 1165 1161.5 1102.5 c 128,-1,47
 1097 1040 1097 1040 956 946 c 1,48,49
 1145 849 1145 849 1145 675 c 2,50,-1
 1145 156 l 2,51,52
 1145 97 1145 97 1083.5 48.5 c 128,-1,53
 1022 0 1022 0 946 0 c 2,54,-1
 226 0 l 1,55,-1
 226 106 l 1,56,-1
 375 106 l 1,57,-1
 375 409 l 2,58,59
 375 454 375 454 393 494.5 c 128,-1,60
 411 535 411 535 483 651 c 0,61,62
 589 823 589 823 621 897.5 c 128,-1,63
 653 972 653 972 653 1049 c 0,64,65
 653 1088 653 1088 635 1105.5 c 128,-1,66
 617 1123 617 1123 576 1123 c 0,67,68
 569 1123 569 1123 524 1073 c 0,69,70
 480 1023 480 1023 431 1023 c 0,71,72
 365 1023 365 1023 320 1078 c 0,73,74
 282 1123 282 1123 241 1123 c 256,0,1
269 739 m 256,75,76
 303 739 303 739 327 767 c 128,-1,77
 351 795 351 795 351 836 c 0,78,79
 351 878 351 878 332.5 901.5 c 128,-1,80
 314 925 314 925 281 925 c 0,81,82
 249 925 249 925 225 899.5 c 128,-1,83
 201 874 201 874 201 839 c 0,84,85
 201 793 201 793 219.5 766 c 128,-1,86
 238 739 238 739 269 739 c 256,75,76
EndSplineSet
Layer: 2
SplineSet
241 1123 m 259xfb80
 204 1123 186 1082 186 995 c 3
 186 973 187 959 189 956 c 1
 211 983 265 1004 311 1004 c 3
 405 1004 461 948 461 854 c 3xfd80
 461 753 383 684 269 684 c 3
 137 684 48 795 48 959 c 3
 48 1124 119 1221 241 1221 c 259
 276 1221 309 1209 338 1186 c 0
 367 1163 396 1143 425 1126 c 1
 449 1134 462 1143 499 1179 c 0
 533 1211 568 1227 604 1227 c 3
 729 1227 793 1156 793 1017 c 3
 793 910 773 857 654 636 c 0
 583 504 573 479 573 419 c 2
 573 106 l 1
 950 106 l 1
 950 697 l 2
 950 780 903 864 836 903 c 1
 836 982 l 1
 954 1063 1040 1163 1087 1270 c 1
 1288 1270 l 1
 1205 1129 1143 1070 956 946 c 1
 1084 880 1145 792 1145 675 c 2
 1145 156 l 2
 1145 77 1047 0 946 0 c 2
 226 0 l 1
 226 106 l 1
 375 106 l 1
 375 409 l 2
 375 469 388 497 483 651 c 0
 625 880 653 946 653 1049 c 3
 653 1101 630 1123 576 1123 c 3
 571 1123 550 1102 524 1073 c 0
 495 1040 464 1023 431 1023 c 3
 387 1023 350 1041 320 1078 c 0
 295 1108 269 1123 241 1123 c 259xfb80
269 739 m 259
 315 739 351 782 351 836 c 259
 351 892 325 925 281 925 c 3
 238 925 201 886 201 839 c 3
 201 778 228 739 269 739 c 259
EndSplineSet
EndChar

StartChar: uni0E0C
Encoding: 223 3596 142
Width: 1800
VWidth: 3198
Flags: W
HStem: -9 79<366.293 501.554 860.113 950.03> 320 80<356.258 492.564> 345 97<888.782 940> 873 83<173 275 398.295 483> 1138 93<370.323 826.285> 1195 20G<1553.7 1654>
VStem: 162 193<375 806.63> 162 168<108.068 302.999> 522 121<85.5331 296.337> 707 138<69.4425 307.201> 940 192<62.5433 294 424.802 1032.4> 1459 195<208 1123>
LayerCount: 3
Fore
SplineSet
162 672 m 2,0,1
 162 733 162 733 193 787.5 c 128,-1,2
 224 842 224 842 275 873 c 1,3,-1
 22 873 l 1,4,-1
 22 992 l 1,5,6
 216 1144 216 1144 326.5 1187.5 c 128,-1,7
 437 1231 437 1231 629 1231 c 0,8,9
 861 1231 861 1231 996.5 1149.5 c 128,-1,10
 1132 1068 1132 1068 1132 928 c 2,11,-1
 1132 428 l 1,12,13
 1310 317 1310 317 1459 208 c 1,14,-1
 1459 1123 l 1,15,-1
 1580 1215 l 1,16,-1
 1654 1215 l 1,17,-1
 1654 3 l 1,18,-1
 1480 3 l 1,19,20
 1436 56 1436 56 1382 102.5 c 128,-1,21
 1328 149 1328 149 1245 209.5 c 128,-1,22
 1162 270 1162 270 1132 294 c 1,23,-1
 1132 147 l 2,24,25
 1132 80 1132 80 1078.5 37 c 128,-1,26
 1025 -6 1025 -6 943 -6 c 0,27,28
 834 -6 834 -6 770.5 46.5 c 128,-1,29
 707 99 707 99 707 189 c 0,30,31
 707 280 707 280 761 338.5 c 128,-1,32
 815 397 815 397 940 442 c 1,33,-1
 940 870 l 2,34,35
 940 1010 940 1010 860 1074 c 128,-1,36
 780 1138 780 1138 604 1138 c 0,37,38
 474 1138 474 1138 358.5 1089.5 c 128,-1,39
 243 1041 243 1041 173 956 c 1,40,-1
 483 956 l 1,41,-1
 483 879 l 1,42,43
 428 871 428 871 391.5 824 c 128,-1,44
 355 777 355 777 355 714 c 2,45,-1
 355 375 l 1,46,47
 409 400 409 400 442 400 c 0,48,49
 536 400 536 400 589.5 346 c 128,-1,50
 643 292 643 292 643 198 c 0,51,52
 643 112 643 112 577.5 51.5 c 128,-1,53
 512 -9 512 -9 419 -9 c 0,54,55
 315 -9 315 -9 238.5 68 c 128,-1,56
 162 145 162 145 162 250 c 2,57,-1
 162 672 l 2,0,1
915 61 m 0,58,59
 929 61 929 61 941 80 c 128,-1,60
 953 99 953 99 953 122 c 2,61,-1
 953 345 l 1,62,63
 903 329 903 329 874 289.5 c 128,-1,64
 845 250 845 250 845 195 c 0,65,66
 845 133 845 133 864 97 c 128,-1,67
 883 61 883 61 915 61 c 0,58,59
428 70 m 256,68,69
 470 70 470 70 496 100.5 c 128,-1,70
 522 131 522 131 522 180 c 0,71,72
 522 240 522 240 493.5 280 c 128,-1,73
 465 320 465 320 422 320 c 0,74,75
 385 320 385 320 357.5 286 c 128,-1,76
 330 252 330 252 330 205 c 0,77,78
 330 155 330 155 361 112.5 c 128,-1,79
 392 70 392 70 428 70 c 256,68,69
EndSplineSet
Layer: 2
SplineSet
162 672 m 2xdaf0
 162 753 207 832 275 873 c 1
 22 873 l 1
 22 992 l 1
 281 1195 373 1231 629 1231 c 3xdaf0
 938 1231 1132 1114 1132 928 c 2
 1132 428 l 1
 1248 356 1357 283 1459 208 c 1
 1459 1123 l 1
 1580 1215 l 1
 1654 1215 l 1x96f0
 1654 3 l 1
 1480 3 l 1
 1383 121 1252 199 1132 294 c 1
 1132 147 l 2
 1132 58 1053 -6 943 -6 c 3
 798 -6 707 69 707 189 c 3
 707 311 773 382 940 442 c 1
 940 870 l 2
 940 1057 839 1138 604 1138 c 3
 431 1138 267 1069 173 956 c 1
 483 956 l 1
 483 879 l 1
 410 868 355 798 355 714 c 2
 355 375 l 1xbaf0
 394 393 419 400 442 400 c 3
 567 400 643 323 643 198 c 3
 643 83 543 -9 419 -9 c 3
 280 -9 162 110 162 250 c 2xd9f0
 162 672 l 2xdaf0
915 61 m 3
 934 61 953 91 953 122 c 2
 953 345 l 1xb0f0
 886 324 845 268 845 195 c 3
 845 112 872 61 915 61 c 3
428 70 m 259
 484 70 522 115 522 180 c 259
 522 260 479 320 422 320 c 3
 372 320 330 267 330 205 c 259xd1f0
 330 139 380 70 428 70 c 259
EndSplineSet
EndChar

StartChar: uni0E0D
Encoding: 224 3597 143
Width: 1777
VWidth: 3198
Flags: W
HStem: -506 97<995.59 1377.15> -173 61<1010.33 1107.71> -9 79<358.731 493.642> 0 106<1062 1437> 320 83<346.518 486.222> 860 93<156 281 392.348 483> 1126 105<360.011 757.661> 1195 20G<1525.35 1630>
VStem: 137 196<93.3924 309.451 375 766.265> 515 122<84.1535 297.55> 851 131<-403.544 -186.541> 867 195<106 1005.69> 1123 128<-396.665 -176.871> 1437 193<-313.366 -150 106 1117>
LayerCount: 3
Fore
SplineSet
589 1231 m 0,0,1
 816 1231 816 1231 939 1117 c 128,-1,2
 1062 1003 1062 1003 1062 793 c 2,3,-1
 1062 106 l 1,4,-1
 1437 106 l 1,5,-1
 1437 1117 l 1,6,-1
 1548 1215 l 1,7,-1
 1630 1215 l 1,8,-1
 1630 0 l 1,9,-1
 867 0 l 1,10,-1
 867 806 l 2,11,12
 867 974 867 974 798.5 1050 c 128,-1,13
 730 1126 730 1126 579 1126 c 0,14,15
 468 1126 468 1126 346 1076 c 128,-1,16
 224 1026 224 1026 156 953 c 1,17,-1
 483 953 l 1,18,-1
 483 864 l 1,19,20
 404 838 404 838 368.5 790 c 128,-1,21
 333 742 333 742 333 662 c 2,22,-1
 333 375 l 1,23,24
 400 403 400 403 445 403 c 0,25,26
 530 403 530 403 583.5 351 c 128,-1,27
 637 299 637 299 637 217 c 0,28,29
 637 -9 637 -9 400 -9 c 0,30,31
 290 -9 290 -9 213.5 58.5 c 128,-1,32
 137 126 137 126 137 223 c 2,33,-1
 137 634 l 2,34,35
 137 698 137 698 175.5 758.5 c 128,-1,36
 214 819 214 819 281 860 c 1,37,-1
 22 860 l 1,38,-1
 22 1001 l 1,39,40
 218 1129 218 1129 343.5 1180 c 128,-1,41
 469 1231 469 1231 589 1231 c 0,0,1
1251 -272 m 0,42,43
 1251 -369 1251 -369 1187 -422 c 1,44,45
 1314 -422 1314 -422 1381.5 -363.5 c 128,-1,46
 1449 -305 1449 -305 1449 -196 c 2,47,-1
 1449 -150 l 1,48,-1
 1621 -150 l 1,49,-1
 1621 -198 l 2,50,51
 1621 -330 1621 -330 1481.5 -418 c 128,-1,52
 1342 -506 1342 -506 1132 -506 c 0,53,54
 1004 -506 1004 -506 927.5 -452 c 128,-1,55
 851 -398 851 -398 851 -308 c 0,56,57
 851 -215 851 -215 903 -163.5 c 128,-1,58
 955 -112 955 -112 1049 -112 c 0,59,60
 1251 -112 1251 -112 1251 -272 c 0,42,43
1123 -287 m 0,61,62
 1123 -173 1123 -173 1062 -173 c 0,63,64
 1028 -173 1028 -173 1005 -210 c 128,-1,65
 982 -247 982 -247 982 -301 c 0,66,67
 982 -347 982 -347 1000.5 -378 c 128,-1,68
 1019 -409 1019 -409 1046 -409 c 0,69,70
 1077 -409 1077 -409 1100 -372.5 c 128,-1,71
 1123 -336 1123 -336 1123 -287 c 0,61,62
422 70 m 256,72,73
 463 70 463 70 489 100.5 c 128,-1,74
 515 131 515 131 515 180 c 0,75,76
 515 241 515 241 486.5 280.5 c 128,-1,77
 458 320 458 320 415 320 c 0,78,79
 378 320 378 320 350.5 285.5 c 128,-1,80
 323 251 323 251 323 205 c 0,81,82
 323 155 323 155 354 112.5 c 128,-1,83
 385 70 385 70 422 70 c 256,72,73
EndSplineSet
Layer: 2
SplineSet
589 1231 m 3xeedc
 892 1231 1062 1073 1062 793 c 2
 1062 106 l 1
 1437 106 l 1
 1437 1117 l 1
 1548 1215 l 1
 1630 1215 l 1
 1630 0 l 1
 867 0 l 1xdddc
 867 806 l 2
 867 1030 780 1126 579 1126 c 3
 431 1126 246 1050 156 953 c 1
 483 953 l 1
 483 864 l 1
 378 829 333 768 333 662 c 2
 333 375 l 1
 376 393 416 403 445 403 c 3
 558 403 637 326 637 217 c 3
 637 66 558 -9 400 -9 c 3
 254 -9 137 94 137 223 c 2
 137 634 l 2
 137 720 192 806 281 860 c 1
 22 860 l 1
 22 1001 l 1
 283 1172 429 1231 589 1231 c 3xeedc
1251 -272 m 3
 1251 -336 1229 -387 1187 -422 c 1
 1356 -422 1449 -341 1449 -196 c 2
 1449 -150 l 1
 1621 -150 l 1
 1621 -198 l 2
 1621 -374 1412 -506 1132 -506 c 3
 962 -506 851 -428 851 -308 c 3xccec
 851 -184 924 -112 1049 -112 c 3
 1183 -112 1251 -166 1251 -272 c 3
1123 -287 m 3
 1123 -211 1102 -173 1062 -173 c 3xccdc
 1017 -173 982 -229 982 -301 c 3
 982 -362 1010 -409 1046 -409 c 3
 1087 -409 1123 -352 1123 -287 c 3
422 70 m 259xeccc
 477 70 515 114 515 180 c 259
 515 261 473 320 415 320 c 3
 366 320 323 266 323 205 c 259
 323 139 373 70 422 70 c 259xeccc
EndSplineSet
Substitution2: "Single Substitution lookup 22 subtable" uni0E0D.descless
EndChar

StartChar: uni0E0E
Encoding: 225 3598 144
Width: 1422
VWidth: 3198
Flags: W
HStem: -534 89<459.818 622.183> -269 99<459.853 642.356> -39 20G<721.869 836> -6 64<189.119 299.993> 311 83<178.775 298.474> 870 92<308 436 545.715 629> 1132 92<505.234 935.472>
VStem: 19 137<79.7918 293.017> 290 158<-434.177 -279.026> 308 190<88.7439 306.827 369 788.399> 656 180<-193.844 -80> 1081 195<-387 989.873>
LayerCount: 3
Fore
SplineSet
1081 790 m 2,0,1
 1081 958 1081 958 997 1045 c 128,-1,2
 913 1132 913 1132 751 1132 c 0,3,4
 619 1132 619 1132 497 1085 c 128,-1,5
 375 1038 375 1038 308 962 c 1,6,-1
 629 962 l 1,7,-1
 629 876 l 1,8,9
 553 848 553 848 525.5 797.5 c 128,-1,10
 498 747 498 747 498 637 c 2,11,-1
 498 314 l 2,12,13
 498 142 498 142 440.5 68 c 128,-1,14
 383 -6 383 -6 250 -6 c 0,15,16
 133 -6 133 -6 76 42 c 128,-1,17
 19 90 19 90 19 189 c 0,18,19
 19 282 19 282 73 338 c 128,-1,20
 127 394 127 394 217 394 c 0,21,22
 265 394 265 394 308 369 c 1,23,-1
 308 647 l 2,24,25
 308 784 308 784 436 870 c 1,26,-1
 173 870 l 1,27,-1
 173 995 l 1,28,29
 252 1093 252 1093 410 1158.5 c 128,-1,30
 568 1224 568 1224 726 1224 c 0,31,32
 1015 1224 1015 1224 1145.5 1118.5 c 128,-1,33
 1276 1013 1276 1013 1276 778 c 2,34,-1
 1276 -534 l 1,35,-1
 1084 -534 l 1,36,-1
 806 -372 l 1,37,38
 784 -445 784 -445 712.5 -489.5 c 128,-1,39
 641 -534 641 -534 547 -534 c 0,40,41
 433 -534 433 -534 361.5 -485 c 128,-1,42
 290 -436 290 -436 290 -358 c 0,43,44
 290 -272 290 -272 351.5 -221 c 128,-1,45
 413 -170 413 -170 518 -170 c 0,46,47
 571 -170 571 -170 656 -195 c 1,48,-1
 656 -80 l 1,49,-1
 754 -19 l 1,50,-1
 836 -19 l 1,51,-1
 836 -174 l 2,52,53
 836 -213 836 -213 828 -247 c 1,54,55
 868 -269 868 -269 961.5 -321 c 128,-1,56
 1055 -373 1055 -373 1081 -387 c 1,57,-1
 1081 790 l 2,0,1
250 58 m 256,58,59
 284 58 284 58 302 88 c 128,-1,60
 320 118 320 118 320 173 c 0,61,62
 320 232 320 232 298.5 271.5 c 128,-1,63
 277 311 277 311 244 311 c 0,64,65
 206 311 206 311 181 274.5 c 128,-1,66
 156 238 156 238 156 183 c 0,67,68
 156 133 156 133 184.5 95.5 c 128,-1,69
 213 58 213 58 250 58 c 256,58,59
537 -445 m 0,70,71
 643 -445 643 -445 643 -317 c 0,72,73
 643 -301 643 -301 605.5 -285 c 128,-1,74
 568 -269 568 -269 531 -269 c 0,75,76
 495 -269 495 -269 471.5 -293.5 c 128,-1,77
 448 -318 448 -318 448 -355 c 0,78,79
 448 -395 448 -395 472.5 -420 c 128,-1,80
 497 -445 497 -445 537 -445 c 0,70,71
EndSplineSet
Layer: 2
SplineSet
1081 790 m 2xffb0
 1081 1014 967 1132 751 1132 c 3
 575 1132 397 1064 308 962 c 1
 415 962 522 962 629 962 c 1
 629 876 l 1
 528 838 498 783 498 637 c 2
 498 314 l 2
 498 85 427 -6 250 -6 c 3
 94 -6 19 57 19 189 c 3
 19 313 97 394 217 394 c 3
 249 394 279 386 308 369 c 1
 308 647 l 2xff70
 308 738 351 813 436 870 c 1
 173 870 l 1
 173 995 l 1
 279 1126 516 1224 726 1224 c 3
 1111 1224 1276 1091 1276 778 c 2
 1276 -534 l 1
 1084 -534 l 1
 806 -372 l 1
 776 -469 672 -534 547 -534 c 3
 395 -534 290 -462 290 -358 c 3
 290 -243 378 -170 518 -170 c 3
 557 -170 595 -177 656 -195 c 1
 656 -80 l 1
 754 -19 l 1
 836 -19 l 1
 836 -174 l 2
 836 -201 833 -226 828 -247 c 1
 897 -285 996 -340 1081 -387 c 1
 1081 790 l 2xffb0
250 58 m 259
 295 58 320 100 320 173 c 3
 320 252 288 311 244 311 c 3
 194 311 156 256 156 183 c 259
 156 117 200 58 250 58 c 259
537 -445 m 3
 608 -445 643 -403 643 -317 c 3
 643 -296 581 -269 531 -269 c 3
 483 -269 448 -305 448 -355 c 3xffb0
 448 -409 484 -445 537 -445 c 3
EndSplineSet
Substitution2: "Single Substitution lookup 22 subtable" uni0E0E.alt1
EndChar

StartChar: uni0E0F
Encoding: 226 3599 145
Width: 1416
VWidth: 3198
Flags: W
HStem: -550 99<258.45 458.933> -281 98<259.173 480.5> -6 64<191.828 300.726> 311 86<178.531 295.984> 867 98<297 412 549.385 623> 1132 103<474.284 933.422>
VStem: 9 147<79.7289 293.909> 106 144<-437.866 -290.347> 297 198<381 797.15> 540 180<-243.747 -119> 1071 199<-384 1006.08>
LayerCount: 3
Fore
SplineSet
495 311 m 2,0,1
 495 143 495 143 438 68.5 c 128,-1,2
 381 -6 381 -6 253 -6 c 0,3,4
 143 -6 143 -6 76 51 c 128,-1,5
 9 108 9 108 9 201 c 0,6,7
 9 295 9 295 72.5 346 c 128,-1,8
 136 397 136 397 253 397 c 0,9,10
 261 397 261 397 297 381 c 1,11,-1
 297 665 l 2,12,13
 297 785 297 785 412 867 c 1,14,-1
 170 867 l 1,15,-1
 170 1004 l 1,16,17
 265 1109 265 1109 418.5 1172 c 128,-1,18
 572 1235 572 1235 732 1235 c 0,19,20
 985 1235 985 1235 1127.5 1138 c 128,-1,21
 1270 1041 1270 1041 1270 870 c 2,22,-1
 1270 -528 l 1,23,-1
 1065 -528 l 1,24,-1
 912 -384 l 1,25,-1
 800 -528 l 1,26,-1
 704 -528 l 1,27,28
 658 -469 658 -469 611 -422 c 1,29,30
 572 -483 572 -483 500 -516.5 c 128,-1,31
 428 -550 428 -550 333 -550 c 0,32,33
 236 -550 236 -550 171 -496 c 128,-1,34
 106 -442 106 -442 106 -361 c 128,-1,35
 106 -280 106 -280 163.5 -231.5 c 128,-1,36
 221 -183 221 -183 317 -183 c 0,37,38
 447 -183 447 -183 540 -247 c 1,39,-1
 540 -119 l 1,40,-1
 650 -67 l 1,41,-1
 720 -67 l 1,42,-1
 720 -116 l 2,43,44
 720 -163 720 -163 703 -226 c 128,-1,45
 686 -289 686 -289 662 -330 c 1,46,-1
 720 -387 l 1,47,-1
 879 -205 l 1,48,-1
 1071 -384 l 1,49,-1
 1071 848 l 2,50,51
 1071 985 1071 985 982.5 1058.5 c 128,-1,52
 894 1132 894 1132 729 1132 c 0,53,54
 447 1132 447 1132 297 965 c 1,55,-1
 623 965 l 1,56,-1
 623 879 l 1,57,58
 495 825 495 825 495 620 c 2,59,-1
 495 311 l 2,0,1
250 58 m 256,60,61
 284 58 284 58 302 88 c 128,-1,62
 320 118 320 118 320 173 c 0,63,64
 320 232 320 232 298.5 271.5 c 128,-1,65
 277 311 277 311 244 311 c 0,66,67
 206 311 206 311 181 274.5 c 128,-1,68
 156 238 156 238 156 183 c 0,69,70
 156 133 156 133 184.5 95.5 c 128,-1,71
 213 58 213 58 250 58 c 256,60,61
250 -372 m 0,72,73
 250 -408 250 -408 277.5 -429.5 c 128,-1,74
 305 -451 305 -451 351 -451 c 0,75,76
 398 -451 398 -451 432 -429 c 128,-1,77
 466 -407 466 -407 512 -348 c 1,78,79
 428 -281 428 -281 339 -281 c 128,-1,80
 250 -281 250 -281 250 -372 c 0,72,73
EndSplineSet
Layer: 2
SplineSet
495 311 m 2xfde0
 495 87 424 -6 253 -6 c 3
 107 -6 9 77 9 201 c 3xfee0
 9 326 97 397 253 397 c 3
 259 397 277 390 297 381 c 1
 297 665 l 2
 297 744 336 813 412 867 c 1
 170 867 l 1
 170 1004 l 1
 297 1144 519 1235 732 1235 c 3
 1069 1235 1270 1098 1270 870 c 2
 1270 -528 l 1
 1065 -528 l 1
 912 -384 l 1
 800 -528 l 1
 704 -528 l 1
 672 -487 645 -456 611 -422 c 1
 559 -504 459 -550 333 -550 c 3
 204 -550 106 -469 106 -361 c 259
 106 -253 189 -183 317 -183 c 3
 399 -183 482 -207 540 -247 c 1
 540 -119 l 1
 650 -67 l 1
 720 -67 l 1
 720 -116 l 2
 720 -178 694 -275 662 -330 c 1
 720 -387 l 1
 879 -205 l 1
 1071 -384 l 1
 1071 848 l 2
 1071 1031 949 1132 729 1132 c 3
 542 1132 397 1076 297 965 c 1
 623 965 l 1
 623 879 l 1
 536 842 495 758 495 620 c 2
 495 311 l 2xfde0
250 58 m 259xfde0
 295 58 320 100 320 173 c 3
 320 252 288 311 244 311 c 3
 194 311 156 256 156 183 c 259xfee0
 156 117 200 58 250 58 c 259xfde0
250 -372 m 3xfde0
 250 -420 290 -451 351 -451 c 3
 413 -451 451 -427 512 -348 c 1
 452 -300 403 -281 339 -281 c 3
 280 -281 250 -311 250 -372 c 3xfde0
EndSplineSet
Substitution2: "Single Substitution lookup 22 subtable" uni0E0F.alt1
EndChar

StartChar: uni0E10
Encoding: 227 3600 146
Width: 1194
VWidth: 3198
Flags: W
HStem: -553 92<131.441 286.148 751 856.525> -372 67<786.196 866.677> -297 96<132.019 296.039> -159 61<788.368 882.47> 0 21G<711.048 956> 361 84<310.99 433.536> 665 77<306.035 430.692> 860 99<259 679.332> 989 146<762.487 1066.54> 1142 96<367.952 631.889>
VStem: 12 113<-456.326 -303.531> 159 131<459.311 654.96> 345 164<-255.558 -147> 665 113<-301.758 -160.941> 882 177<328.498 773.781> 892 115<-304.221 -161.706>
LayerCount: 3
Fore
SplineSet
1059 650 m 0,0,1
 1059 510 1059 510 1005 289 c 0,2,3
 961 110 961 110 953 0 c 1,4,-1
 720 0 l 1,5,-1
 515 458 l 1,6,7
 452 361 452 361 369 361 c 0,8,9
 274 361 274 361 216.5 410.5 c 128,-1,10
 159 460 159 460 159 543 c 0,11,12
 159 637 159 637 219 689.5 c 128,-1,13
 279 742 279 742 387 742 c 0,14,15
 469 742 469 742 523 696 c 128,-1,16
 577 650 577 650 626 540 c 2,17,-1
 806 128 l 1,18,19
 806 131 806 131 808 137 c 128,-1,20
 810 143 810 143 811 149 c 0,21,22
 853 332 853 332 867.5 435.5 c 128,-1,23
 882 539 882 539 882 650 c 0,24,25
 882 753 882 753 814 794.5 c 128,-1,26
 746 836 746 836 554 850 c 0,27,28
 436 860 436 860 247 860 c 0,29,30
 121 860 121 860 25 848 c 1,31,32
 88 1057 88 1057 196 1147.5 c 128,-1,33
 304 1238 304 1238 489 1238 c 0,34,35
 566 1238 566 1238 694 1187 c 0,36,37
 823 1135 823 1135 889 1135 c 0,38,39
 981 1135 981 1135 1132 1209 c 1,40,-1
 1132 1007 l 1,41,42
 1093 989 1093 989 1017 989 c 0,43,44
 806 989 806 989 648 1089 c 0,45,46
 557 1142 557 1142 479 1142 c 0,47,48
 417 1142 417 1142 353.5 1089 c 128,-1,49
 290 1036 290 1036 259 959 c 1,50,-1
 297 959 l 2,51,52
 579 959 579 959 710 936 c 0,53,54
 904 905 904 905 981.5 841.5 c 128,-1,55
 1059 778 1059 778 1059 650 c 0,0,1
372 445 m 0,56,57
 403 445 403 445 428.5 478.5 c 128,-1,58
 454 512 454 512 454 553 c 0,59,60
 454 596 454 596 428 630.5 c 128,-1,61
 402 665 402 665 369 665 c 0,62,63
 332 665 332 665 311 636 c 128,-1,64
 290 607 290 607 290 556 c 0,65,66
 290 511 290 511 314.5 478 c 128,-1,67
 339 445 339 445 372 445 c 0,56,57
665 -230 m 256,68,69
 665 -166 665 -166 705 -132 c 128,-1,70
 745 -98 745 -98 821 -98 c 0,71,72
 900 -98 900 -98 953.5 -135 c 128,-1,73
 1007 -172 1007 -172 1007 -226 c 2,74,-1
 1007 -294 l 2,75,76
 1007 -449 1007 -449 976 -494.5 c 128,-1,77
 945 -540 945 -540 839 -540 c 2,78,-1
 701 -540 l 1,79,-1
 592 -425 l 1,80,81
 551 -468 551 -468 498 -531 c 1,82,-1
 397 -415 l 1,83,84
 372 -467 372 -467 310 -510 c 128,-1,85
 248 -553 248 -553 198 -553 c 0,86,87
 117 -553 117 -553 64.5 -499 c 128,-1,88
 12 -445 12 -445 12 -361 c 0,89,90
 12 -292 12 -292 58.5 -246.5 c 128,-1,91
 105 -201 105 -201 176 -201 c 0,92,93
 220 -201 220 -201 266 -218 c 128,-1,94
 312 -235 312 -235 333 -259 c 1,95,96
 345 -225 345 -225 345 -205 c 0,97,98
 345 -170 345 -170 348 -147 c 1,99,-1
 448 -89 l 1,100,-1
 509 -89 l 1,101,102
 509 -188 509 -188 436 -326 c 1,103,-1
 483 -375 l 1,104,105
 513 -335 513 -335 573 -275 c 1,106,-1
 751 -448 l 1,107,-1
 803 -448 l 2,108,109
 842 -448 842 -448 857 -428 c 1,110,-1
 867 -369 l 1,111,112
 859 -372 859 -372 836 -372 c 0,113,114
 759 -372 759 -372 712 -333 c 128,-1,115
 665 -294 665 -294 665 -230 c 256,68,69
839 -305 m 256,116,117
 863 -305 863 -305 877.5 -284.5 c 128,-1,118
 892 -264 892 -264 892 -230 c 0,119,120
 892 -199 892 -199 877 -179 c 128,-1,121
 862 -159 862 -159 839 -159 c 0,122,123
 778 -159 778 -159 778 -241 c 0,124,125
 778 -267 778 -267 796 -286 c 128,-1,126
 814 -305 814 -305 839 -305 c 256,116,117
125 -372 m 0,127,128
 125 -461 125 -461 196 -461 c 0,129,130
 243 -461 243 -461 269.5 -438.5 c 128,-1,131
 296 -416 296 -416 306 -365 c 1,132,133
 306 -342 306 -342 270.5 -319.5 c 128,-1,134
 235 -297 235 -297 198 -297 c 0,135,136
 166 -297 166 -297 145.5 -318 c 128,-1,137
 125 -339 125 -339 125 -372 c 0,127,128
EndSplineSet
Layer: 2
SplineSet
1059 650 m 3xfffe
 1059 558 1041 436 1005 289 c 0
 970 147 959 83 953 0 c 1
 720 0 l 1
 515 458 l 1
 474 395 423 361 369 361 c 3
 242 361 159 433 159 543 c 3
 159 669 243 742 387 742 c 3
 496 742 561 687 626 540 c 2
 806 128 l 1
 807 134 809 138 811 149 c 0
 867 394 882 503 882 650 c 3
 882 787 810 831 554 850 c 0
 483 856 358 860 247 860 c 3
 165 860 89 856 25 848 c 1
 109 1126 242 1238 489 1238 c 3
 548 1238 596 1226 694 1187 c 0
 791 1148 840 1135 889 1135 c 3
 951 1135 1032 1160 1132 1209 c 1
 1132 1007 l 1
 1104 994 1072 989 1017 989 c 3
 881 989 751 1024 648 1089 c 0
 588 1124 532 1142 479 1142 c 3
 396 1142 300 1062 259 959 c 1
 297 959 l 2
 491 959 619 952 710 936 c 0
 969 894 1059 820 1059 650 c 3xfffe
372 445 m 3
 414 445 454 498 454 553 c 259
 454 611 413 665 369 665 c 3
 320 665 290 624 290 556 c 259
 290 496 328 445 372 445 c 3
665 -230 m 259
 665 -144 720 -98 821 -98 c 3
 926 -98 1007 -154 1007 -226 c 2
 1007 -294 l 2xfffd
 1007 -500 980 -540 839 -540 c 2
 701 -540 l 1
 592 -425 l 1
 553 -466 546 -474 498 -531 c 1
 397 -415 l 1
 364 -484 265 -553 198 -553 c 3
 90 -553 12 -473 12 -361 c 3
 12 -269 81 -201 176 -201 c 3
 235 -201 305 -227 333 -259 c 1
 338 -245 345 -214 345 -205 c 3
 345 -179 346 -162 348 -147 c 1
 448 -89 l 1
 509 -89 l 1
 509 -153 484 -235 436 -326 c 1
 483 -375 l 1
 507 -343 528 -320 573 -275 c 1
 751 -448 l 1
 803 -448 l 2
 829 -448 847 -441 857 -428 c 1
 867 -369 l 1
 862 -371 851 -372 836 -372 c 3
 733 -372 665 -316 665 -230 c 259
839 -305 m 259
 871 -305 892 -275 892 -230 c 3
 892 -188 870 -159 839 -159 c 3
 798 -159 778 -186 778 -241 c 3
 778 -275 806 -305 839 -305 c 259
125 -372 m 3
 125 -433 147 -461 196 -461 c 3
 259 -461 292 -433 306 -365 c 1
 306 -334 247 -297 198 -297 c 3
 156 -297 125 -328 125 -372 c 3
EndSplineSet
Substitution2: "Single Substitution lookup 22 subtable" uni0E10.descless
EndChar

StartChar: uni0E11
Encoding: 228 3601 147
Width: 1572
VWidth: 3198
Flags: W
HStem: 0 21G<415 614 1227 1340.81> 662 61<216.845 325.047> 903 76<205.751 326.477> 1007 119<313.457 452.13> 1110 114<492.339 628.262 1053.6 1201.75>
VStem: 25 122<923.904 1124.98> 336 106<726.895 898.769> 415 196<0 110.353 244 620.413> 637 153<844.692 1106.79> 1227 199<106 1089.8>
LayerCount: 3
Fore
SplineSet
1227 985 m 2,0,1
 1227 1033 1227 1033 1193 1078 c 128,-1,2
 1159 1123 1159 1123 1123 1123 c 0,3,4
 1080 1123 1080 1123 1053 1065 c 0,5,6
 988 928 988 928 693 207 c 0,7,8
 614 11 614 11 614 0 c 1,9,-1
 415 0 l 1,10,-1
 415 483 l 2,11,12
 415 532 415 532 430 567 c 128,-1,13
 445 602 445 602 511 708 c 0,14,15
 595 843 595 843 616 891 c 128,-1,16
 637 939 637 939 637 995 c 0,17,18
 637 1110 637 1110 583 1110 c 0,19,20
 537 1110 537 1110 485 1059 c 0,21,22
 431 1007 431 1007 384 1007 c 0,23,24
 356 1007 356 1007 280 1056 c 0,25,26
 242 1081 242 1081 183 1126 c 1,27,28
 168 1116 168 1116 157.5 1092.5 c 128,-1,29
 147 1069 147 1069 147 1046 c 0,30,31
 147 982 147 982 162 921 c 1,32,33
 188 954 188 954 215 966.5 c 128,-1,34
 242 979 242 979 290 979 c 0,35,36
 364 979 364 979 403 941 c 128,-1,37
 442 903 442 903 442 831 c 0,38,39
 442 662 442 662 272 662 c 0,40,41
 163 662 163 662 94 755.5 c 128,-1,42
 25 849 25 849 25 995 c 0,43,44
 25 1224 25 1224 198 1224 c 0,45,46
 253 1224 253 1224 308 1175 c 128,-1,47
 363 1126 363 1126 384 1126 c 0,48,49
 395 1126 395 1126 458 1175 c 0,50,51
 520 1224 520 1224 579 1224 c 0,52,53
 670 1224 670 1224 730 1160.5 c 128,-1,54
 790 1097 790 1097 790 1001 c 0,55,56
 790 953 790 953 776 912.5 c 128,-1,57
 762 872 762 872 711 771 c 0,58,59
 648 646 648 646 629.5 590 c 128,-1,60
 611 534 611 534 611 470 c 2,61,-1
 611 244 l 1,62,63
 647 348 647 348 950 1090 c 0,64,65
 978 1160 978 1160 1019.5 1192 c 128,-1,66
 1061 1224 1061 1224 1123 1224 c 0,67,68
 1426 1224 1426 1224 1426 1007 c 2,69,-1
 1426 106 l 1,70,-1
 1321 0 l 1,71,-1
 1227 0 l 1,72,-1
 1227 985 l 2,0,1
269 723 m 0,73,74
 304 723 304 723 320 744.5 c 128,-1,75
 336 766 336 766 336 815 c 0,76,77
 336 903 336 903 265 903 c 0,78,79
 238 903 238 903 216.5 880 c 128,-1,80
 195 857 195 857 195 828 c 0,81,82
 195 780 195 780 215 751.5 c 128,-1,83
 235 723 235 723 269 723 c 0,73,74
EndSplineSet
Layer: 2
SplineSet
1227 985 m 2xf5c0
 1227 1049 1171 1123 1123 1123 c 3
 1095 1123 1071 1103 1053 1065 c 0
 1003 959 897 705 693 207 c 0
 620 26 614 11 614 0 c 1
 415 0 l 1
 415 483 l 2
 415 548 423 567 511 708 c 0
 622 887 637 920 637 995 c 3
 637 1069 618 1110 583 1110 c 3xedc0
 552 1110 521 1094 485 1059 c 0
 450 1025 415 1007 384 1007 c 3
 362 1007 339 1018 280 1056 c 0
 256 1072 220 1098 183 1126 c 1xf5c0
 163 1112 147 1076 147 1046 c 259
 147 1003 151 966 162 921 c 1
 196 965 226 979 290 979 c 3
 389 979 442 927 442 831 c 3
 442 718 385 662 272 662 c 3
 127 662 25 800 25 995 c 3
 25 1146 84 1224 198 1224 c 3xeec0
 235 1224 271 1208 308 1175 c 0
 344 1143 370 1126 384 1126 c 3xf6c0
 391 1126 414 1141 458 1175 c 0
 500 1208 540 1224 579 1224 c 3
 700 1224 790 1129 790 1001 c 3
 790 937 779 905 711 771 c 0
 627 604 611 556 611 470 c 2
 611 244 l 1
 646 345 674 414 950 1090 c 0
 988 1183 1041 1224 1123 1224 c 3xedc0
 1323 1224 1426 1150 1426 1007 c 2
 1426 106 l 1
 1321 0 l 1
 1227 0 l 1
 1227 985 l 2xf5c0
269 723 m 3
 316 723 336 750 336 815 c 259xe6c0
 336 875 314 903 265 903 c 3
 229 903 195 867 195 828 c 3
 195 764 224 723 269 723 c 3
EndSplineSet
EndChar

StartChar: uni0E12
Encoding: 229 3602 148
Width: 1742
VWidth: 3198
Flags: W
HStem: -16 74<888.106 950> 0 21G<198 387 1394.34 1596> 818 74<481.781 626.994> 985 132<508.864 689.607> 1110 108<241.575 446.332>
VStem: 25 125<681.618 1015.25> 198 189<0 271.483> 342 116<613.333 802.609> 650 107<612.14 800.549> 726 125<84.5379 289.648> 950 192<61.8359 265 406.72 1036.69> 1401 195<189 1110>
LayerCount: 3
Fore
SplineSet
1416 0 m 1,0,-1
 1129 265 l 1,1,2
 1129 105 1129 105 1090.5 44.5 c 128,-1,3
 1052 -16 1052 -16 950 -16 c 0,4,5
 830 -16 830 -16 778 29.5 c 128,-1,6
 726 75 726 75 726 180 c 0,7,8
 726 359 726 359 950 419 c 1,9,-1
 950 854 l 2,10,11
 950 1067 950 1067 825 1096 c 1,12,13
 796 1091 796 1091 713 1034 c 0,14,15
 640 985 640 985 604 985 c 0,16,17
 539 985 539 985 468 1047 c 0,18,19
 396 1110 396 1110 355 1110 c 0,20,21
 271 1110 271 1110 210.5 1037.5 c 128,-1,22
 150 965 150 965 150 864 c 0,23,24
 150 789 150 789 171.5 731 c 128,-1,25
 193 673 193 673 246 603 c 0,26,27
 306 524 306 524 330 476.5 c 128,-1,28
 354 429 354 429 361 372 c 1,29,30
 394 407 394 407 444 440 c 0,31,32
 490 471 490 471 515 512 c 1,33,34
 445 518 445 518 393.5 575 c 128,-1,35
 342 632 342 632 342 704 c 0,36,37
 342 784 342 784 401.5 838 c 128,-1,38
 461 892 461 892 550 892 c 0,39,40
 645 892 645 892 701 844 c 128,-1,41
 757 796 757 796 757 714 c 0,42,43
 757 646 757 646 715.5 577.5 c 128,-1,44
 674 509 674 509 573 412 c 0,45,46
 442 287 442 287 414.5 252.5 c 128,-1,47
 387 218 387 218 387 180 c 2,48,-1
 387 0 l 1,49,-1
 198 0 l 1,50,-1
 198 394 l 2,51,52
 198 421 198 421 138 510 c 0,53,54
 25 678 25 678 25 825 c 0,55,56
 25 993 25 993 117.5 1105.5 c 128,-1,57
 210 1218 210 1218 348 1218 c 0,58,59
 417 1218 417 1218 499 1168 c 0,60,61
 576 1117 576 1117 595 1117 c 0,62,63
 628 1117 628 1117 688 1160 c 0,64,65
 741 1198 741 1198 775 1221 c 1,66,67
 937 1221 937 1221 1039.5 1119.5 c 128,-1,68
 1142 1018 1142 1018 1142 857 c 2,69,-1
 1142 403 l 1,70,-1
 1401 189 l 1,71,-1
 1401 1110 l 1,72,-1
 1520 1215 l 1,73,-1
 1596 1215 l 1,74,-1
 1596 0 l 1,75,-1
 1416 0 l 1,0,-1
556 592 m 256,76,77
 594 592 594 592 622 628.5 c 128,-1,78
 650 665 650 665 650 714 c 0,79,80
 650 759 650 759 621.5 788.5 c 128,-1,81
 593 818 593 818 550 818 c 0,82,83
 511 818 511 818 484.5 786 c 128,-1,84
 458 754 458 754 458 707 c 0,85,86
 458 661 458 661 487.5 626.5 c 128,-1,87
 517 592 517 592 556 592 c 256,76,77
950 320 m 1,88,89
 887 291 887 291 869 265 c 128,-1,90
 851 239 851 239 851 176 c 0,91,92
 851 133 851 133 880.5 98 c 128,-1,93
 910 63 910 63 950 58 c 1,94,-1
 950 320 l 1,88,89
EndSplineSet
Layer: 2
SplineSet
1416 0 m 1x6eb0
 1129 265 l 1
 1129 51 1086 -16 950 -16 c 3
 790 -16 726 40 726 180 c 3
 726 300 800 379 950 419 c 1
 950 854 l 2
 950 995 908 1077 825 1096 c 1
 806 1093 768 1072 713 1034 c 0
 664 1001 630 985 604 985 c 3xb670
 561 985 515 1006 468 1047 c 0
 420 1089 382 1110 355 1110 c 3
 243 1110 150 998 150 864 c 3
 150 764 175 696 246 603 c 0
 326 498 351 449 361 372 c 1
 383 395 411 418 444 440 c 0
 474 460 498 484 515 512 c 1
 422 520 342 608 342 704 c 3x2d70
 342 811 432 892 550 892 c 259
 677 892 757 824 757 714 c 3
 757 623 707 541 573 412 c 0
 398 245 387 231 387 180 c 2
 387 0 l 1
 198 0 l 1
 198 394 l 2
 198 415 184 442 138 510 c 0
 62 623 25 726 25 825 c 3
 25 1049 164 1218 348 1218 c 3x6eb0
 396 1218 443 1202 499 1168 c 0
 549 1135 583 1117 595 1117 c 259x36b0
 617 1117 649 1132 688 1160 c 0
 735 1194 757 1209 775 1221 c 1
 991 1221 1142 1072 1142 857 c 2
 1142 403 l 1
 1401 189 l 1
 1401 1110 l 1
 1520 1215 l 1
 1596 1215 l 1
 1596 0 l 1
 1416 0 l 1x6eb0
556 592 m 259
 606 592 650 649 650 714 c 3
 650 774 607 818 550 818 c 259
 498 818 458 770 458 707 c 259x25b0
 458 645 504 592 556 592 c 259
950 320 m 1
 867 282 851 260 851 176 c 3
 851 119 897 65 950 58 c 1xa470
 950 320 l 1
EndSplineSet
EndChar

StartChar: uni0E13
Encoding: 230 3603 149
Width: 1770
VWidth: 3198
Flags: W
HStem: -6 73<336.666 479.014 1438.23 1555.28> 301 86<328.833 482.364> 870 89<141 269> 1135 100<346.027 756.609> 1195 20G<1512.05 1618>
VStem: 131 192<361 768.746> 131 174<91.2628 278.993> 506 128<84.9685 280.297> 876 192<201 1014.5> 876 170<0 66.2264> 1288 132<71.5508 212.896> 1426 192<378.394 1120> 1574 114<71.2853 270.923>
LayerCount: 3
Fore
SplineSet
1618 464 m 2,0,1
 1618 434 1618 434 1604 409 c 128,-1,2
 1590 384 1590 384 1554 351 c 1,3,4
 1688 307 1688 307 1688 173 c 0,5,6
 1688 87 1688 87 1636 39 c 128,-1,7
 1584 -9 1584 -9 1490 -9 c 128,-1,8
 1396 -9 1396 -9 1342 37 c 128,-1,9
 1288 83 1288 83 1288 162 c 0,10,11
 1288 186 1288 186 1295 214 c 1,12,13
 1180 149 1180 149 1124.5 101 c 128,-1,14
 1069 53 1069 53 1046 0 c 1,15,-1
 876 0 l 1,16,-1
 876 809 l 2,17,18
 876 973 876 973 802.5 1054 c 128,-1,19
 729 1135 729 1135 579 1135 c 0,20,21
 335 1135 335 1135 141 959 c 1,22,-1
 467 959 l 1,23,-1
 467 879 l 1,24,25
 323 794 323 794 323 665 c 2,26,-1
 323 361 l 1,27,28
 385 387 385 387 422 387 c 0,29,30
 526 387 526 387 580 336.5 c 128,-1,31
 634 286 634 286 634 189 c 0,32,33
 634 90 634 90 576 42 c 128,-1,34
 518 -6 518 -6 397 -6 c 0,35,36
 291 -6 291 -6 211 53.5 c 128,-1,37
 131 113 131 113 131 192 c 2,38,-1
 131 601 l 2,39,40
 131 685 131 685 167.5 756 c 128,-1,41
 204 827 204 827 269 870 c 1,42,-1
 25 870 l 1,43,-1
 25 1017 l 1,44,45
 210 1145 210 1145 328.5 1190 c 128,-1,46
 447 1235 447 1235 604 1235 c 0,47,48
 829 1235 829 1235 948.5 1139.5 c 128,-1,49
 1068 1044 1068 1044 1068 864 c 2,50,-1
 1068 201 l 1,51,52
 1191 292 1191 292 1330 346 c 0,53,54
 1426 383 1426 383 1426 503 c 2,55,-1
 1426 1120 l 1,56,-1
 1535 1215 l 1,57,-1
 1618 1215 l 1,58,-1
 1618 464 l 2,0,1
1420 159 m 0,59,60
 1420 122 1420 122 1445.5 90 c 128,-1,61
 1471 58 1471 58 1501 58 c 0,62,63
 1525 58 1525 58 1549.5 93 c 128,-1,64
 1574 128 1574 128 1574 162 c 0,65,66
 1574 216 1574 216 1557.5 245.5 c 128,-1,67
 1541 275 1541 275 1510 275 c 0,68,69
 1420 275 1420 275 1420 159 c 0,59,60
409 67 m 0,70,71
 450 67 450 67 478 100 c 128,-1,72
 506 133 506 133 506 180 c 0,73,74
 506 228 506 228 477.5 264.5 c 128,-1,75
 449 301 449 301 412 301 c 0,76,77
 369 301 369 301 337 268.5 c 128,-1,78
 305 236 305 236 305 192 c 0,79,80
 305 139 305 139 335 103 c 128,-1,81
 365 67 365 67 409 67 c 0,70,71
EndSplineSet
Layer: 2
SplineSet
1618 464 m 2xedb0
 1618 424 1603 396 1554 351 c 1
 1643 322 1688 263 1688 173 c 3
 1688 58 1615 -9 1490 -9 c 3
 1365 -9 1288 56 1288 162 c 3
 1288 177 1290 194 1295 214 c 1
 1142 127 1076 70 1046 0 c 1
 876 0 l 1xe968
 876 809 l 2
 876 1028 779 1135 579 1135 c 3
 415 1135 271 1077 141 959 c 1
 467 959 l 1
 467 879 l 1
 374 824 323 748 323 665 c 2
 323 361 l 1xf5a0
 368 380 393 387 422 387 c 3
 561 387 634 319 634 189 c 3
 634 57 558 -6 397 -6 c 3
 255 -6 131 87 131 192 c 2xf320
 131 601 l 2
 131 713 182 813 269 870 c 1
 25 870 l 1
 25 1017 l 1
 271 1188 395 1235 604 1235 c 259xf520
 904 1235 1068 1104 1068 864 c 2
 1068 201 l 1
 1152 263 1235 309 1330 346 c 0
 1395 371 1426 422 1426 503 c 2
 1426 1120 l 1
 1535 1215 l 1
 1618 1215 l 1
 1618 464 l 2xedb0
1420 159 m 3
 1420 109 1461 58 1501 58 c 3
 1533 58 1574 117 1574 162 c 3
 1574 234 1551 275 1510 275 c 3
 1450 275 1420 237 1420 159 c 3
409 67 m 3
 463 67 506 117 506 180 c 3
 506 244 462 301 412 301 c 259
 355 301 305 251 305 192 c 259xe320
 305 121 350 67 409 67 c 3
EndSplineSet
EndChar

StartChar: uni0E14
Encoding: 231 3604 150
Width: 1275
VWidth: 3198
Flags: W
HStem: 0 21G<192 381 934 1045.32> 831 67<483.137 618.116> 1132 89<355.21 780.785>
VStem: 45 128<646.793 968.879> 192 189<0 263.304> 192 163<369.282 490.986> 336 112<612.346 806.653> 643 111<606.47 816.701> 934 195<95 992.279>
LayerCount: 3
Fore
SplineSet
553 898 m 128,-1,1
 644 898 644 898 699 846.5 c 128,-1,2
 754 795 754 795 754 711 c 0,3,4
 754 645 754 645 712.5 577 c 128,-1,5
 671 509 671 509 568 408 c 0,6,7
 438 280 438 280 409.5 244 c 128,-1,8
 381 208 381 208 381 170 c 2,9,-1
 381 0 l 1,10,-1
 192 0 l 1,11,-1
 192 397 l 2,12,13
 192 425 192 425 150 491 c 0,14,15
 92 581 92 581 68.5 651.5 c 128,-1,16
 45 722 45 722 45 803 c 0,17,18
 45 983 45 983 189 1102 c 128,-1,19
 333 1221 333 1221 550 1221 c 0,20,21
 844 1221 844 1221 986.5 1124.5 c 128,-1,22
 1129 1028 1129 1028 1129 828 c 2,23,-1
 1129 95 l 1,24,-1
 1023 0 l 1,25,-1
 934 0 l 1,26,-1
 934 831 l 2,27,28
 934 1132 934 1132 550 1132 c 0,29,30
 387 1132 387 1132 280 1041.5 c 128,-1,31
 173 951 173 951 173 812 c 0,32,33
 173 744 173 744 191 698 c 128,-1,34
 209 652 209 652 264 578 c 0,35,36
 355 457 355 457 355 394 c 0,37,38
 355 377 355 377 351 369 c 1,39,40
 469 459 469 459 509 512 c 1,41,42
 439 518 439 518 387.5 576.5 c 128,-1,43
 336 635 336 635 336 707 c 0,44,45
 336 787 336 787 399 842.5 c 128,-1,0
 462 898 462 898 553 898 c 128,-1,1
448 707 m 256,46,47
 448 661 448 661 480.5 623.5 c 128,-1,48
 513 586 513 586 553 586 c 0,49,50
 589 586 589 586 616 624.5 c 128,-1,51
 643 663 643 663 643 714 c 0,52,53
 643 770 643 770 618 800.5 c 128,-1,54
 593 831 593 831 547 831 c 0,55,56
 509 831 509 831 478.5 792.5 c 128,-1,57
 448 754 448 754 448 707 c 256,46,47
EndSplineSet
Layer: 2
SplineSet
553 898 m 3xf380
 674 898 754 823 754 711 c 3
 754 623 705 543 568 408 c 0
 394 237 381 220 381 170 c 2
 381 0 l 1
 192 0 l 1xf980
 192 397 l 2
 192 417 180 444 150 491 c 0
 73 611 45 695 45 803 c 3
 45 1043 260 1221 550 1221 c 3
 942 1221 1129 1094 1129 828 c 2
 1129 95 l 1
 1023 0 l 1
 934 0 l 1
 934 831 l 2
 934 1031 805 1132 550 1132 c 3
 332 1132 173 997 173 812 c 3
 173 721 191 676 264 578 c 0
 328 493 355 438 355 394 c 3xf580
 355 382 354 375 351 369 c 1
 436 434 481 475 509 512 c 1
 416 520 336 611 336 707 c 3
 336 814 431 898 553 898 c 3xf380
448 707 m 259xf380
 448 646 500 586 553 586 c 259
 601 586 643 646 643 714 c 3
 643 789 609 831 547 831 c 3
 496 831 448 770 448 707 c 259xf380
EndSplineSet
EndChar

